<svg width="130" height="122" viewBox="0 0 130 122" fill="none" xmlns="http://www.w3.org/2000/svg">
<g opacity="0.2">
<path d="M128.881 8.59045H76.1645L74.2936 13.0756H128.881V8.59045Z" stroke="black" stroke-width="0.159792" stroke-linejoin="round"/>
<path d="M128.881 13.0756H76.1645L74.2936 17.5635H128.881V13.0756Z" stroke="black" stroke-width="0.159792" stroke-linejoin="round"/>
<path d="M128.881 17.5635H76.1645L74.2936 22.0486H128.881V17.5635Z" stroke="black" stroke-width="0.159792" stroke-linejoin="round"/>
<path d="M128.881 22.0486H76.1645L74.2936 26.5366H128.881V22.0486Z" stroke="black" stroke-width="0.159792" stroke-linejoin="round"/>
<path d="M128.881 26.5365H76.1645L74.2936 31.0217H128.881V26.5365Z" stroke="black" stroke-width="0.159792" stroke-linejoin="round"/>
<path d="M128.881 31.0217H76.1645L74.2936 35.5096H128.881V31.0217Z" stroke="black" stroke-width="0.159792" stroke-linejoin="round"/>
<path d="M128.881 35.5096H76.1645L74.2936 39.9947H128.881V35.5096Z" stroke="black" stroke-width="0.159792" stroke-linejoin="round"/>
<path d="M128.881 39.9947H76.1645L74.2936 44.4826H128.881V39.9947Z" stroke="black" stroke-width="0.159792" stroke-linejoin="round"/>
<path d="M128.881 44.4826H76.1645L74.2936 48.9678H128.881V44.4826Z" stroke="black" stroke-width="0.159792" stroke-linejoin="round"/>
<path d="M128.881 48.9678H76.1645L74.2936 53.4557H128.881V48.9678Z" stroke="black" stroke-width="0.159792" stroke-linejoin="round"/>
<path d="M128.881 53.4557H76.1645L74.2936 57.9408H128.881V53.4557Z" stroke="black" stroke-width="0.159792" stroke-linejoin="round"/>
<path d="M128.881 57.9408H76.1645L74.2936 62.4287H128.881V57.9408Z" stroke="black" stroke-width="0.159792" stroke-linejoin="round"/>
<path d="M128.881 62.4287H76.1645L74.2936 66.9139H128.881V62.4287Z" stroke="black" stroke-width="0.159792" stroke-linejoin="round"/>
<path d="M128.881 66.9139H76.1645L74.2936 71.4018H128.881V66.9139Z" stroke="black" stroke-width="0.159792" stroke-linejoin="round"/>
<path d="M128.881 71.4018H76.1645L74.2936 75.8869H128.881V71.4018Z" stroke="black" stroke-width="0.159792" stroke-linejoin="round"/>
<path d="M128.881 75.8869H76.1645L74.2936 80.3748H128.881V75.8869Z" stroke="black" stroke-width="0.159792" stroke-linejoin="round"/>
<path d="M130 7.0954H73.7326V81.8699H130V7.0954Z" stroke="black" stroke-width="0.159792" stroke-linejoin="round"/>
</g>
<g opacity="0.2">
<path d="M26.126 108.839H7.2182V118.818H26.126V108.839Z" stroke="black" stroke-width="0.159792" stroke-linejoin="round"/>
<path d="M18.2059 112.661H15.1356V114.147H18.2059V112.661Z" stroke="black" stroke-width="0.159792" stroke-linejoin="round"/>
<path d="M27.0932 95.8697H6.24823V121.402H27.0932V95.8697Z" stroke="black" stroke-width="0.159792" stroke-linejoin="round"/>
<path d="M26.126 97.163H7.2182V107.142H26.126V97.163Z" stroke="black" stroke-width="0.159792" stroke-linejoin="round"/>
<path d="M18.2059 100.985H15.1356V102.472H18.2059V100.985Z" stroke="black" stroke-width="0.159792" stroke-linejoin="round"/>
<path d="M18.7447 94.253H11.3109V95.8697H18.7447V94.253Z" stroke="black" stroke-width="0.159792" stroke-linejoin="round"/>
<path d="M15.3512 89.2456H14.0579V94.2558H15.3512V89.2456Z" stroke="black" stroke-width="0.159792" stroke-linejoin="round"/>
<path d="M21.4916 77.6086H7.59406V89.2428H21.4916V77.6086Z" stroke="black" stroke-width="0.159792" stroke-linejoin="round"/>
</g>
<g opacity="0.2">
<path d="M104.385 109.314V87.9799C104.386 87.577 104.307 87.1779 104.152 86.8056C103.998 86.4333 103.773 86.095 103.488 85.8101C103.203 85.5252 102.864 85.2992 102.492 85.1452C102.12 84.9912 101.721 84.9121 101.318 84.9124H73.2905V109.527" stroke="black" stroke-width="0.159792" stroke-linejoin="round"/>
<path d="M73.5254 84.9124H44.9758C44.5731 84.9124 44.1743 84.9918 43.8023 85.146C43.4303 85.3002 43.0923 85.5262 42.8077 85.8111C42.5231 86.0959 42.2974 86.4341 42.1436 86.8063C41.9897 87.1784 41.9107 87.5772 41.9111 87.9799V109.314" stroke="black" stroke-width="0.159792" stroke-linejoin="round"/>
<path d="M107.154 111.362V118.547H73.3043V109.314H105.115C105.383 109.314 105.649 109.366 105.898 109.469C106.146 109.572 106.371 109.723 106.561 109.914C106.75 110.104 106.9 110.33 107.002 110.578C107.104 110.827 107.156 111.093 107.154 111.362Z" stroke="black" stroke-width="0.159792" stroke-linejoin="round"/>
<path d="M73.5613 109.314H41.1787C40.911 109.314 40.646 109.367 40.3987 109.469C40.1514 109.572 39.9267 109.722 39.7376 109.912C39.5484 110.101 39.3985 110.326 39.2963 110.573C39.1941 110.821 39.1417 111.086 39.142 111.354V118.539H73.5613" stroke="black" stroke-width="0.159792" stroke-linejoin="round"/>
<path d="M39.142 121.542V118.528H107.212V121.542" stroke="black" stroke-width="0.159792" stroke-linejoin="round"/>
<path d="M41.9111 97.0718C41.7191 96.8718 41.4886 96.7127 41.2336 96.604C40.9786 96.4952 40.7043 96.4391 40.4271 96.439H34.2617C33.9919 96.4386 33.7246 96.4914 33.4751 96.5945C33.2257 96.6975 32.999 96.8487 32.8081 97.0394C32.6171 97.2301 32.4656 97.4565 32.3623 97.7058C32.2589 97.9551 32.2057 98.2223 32.2057 98.4922V121.396" stroke="black" stroke-width="0.159792" stroke-linejoin="round"/>
<path d="M113.375 121.247V98.4922C113.375 97.9477 113.159 97.4254 112.773 97.0403C112.388 96.6553 111.866 96.439 111.322 96.439H105.156C104.892 96.4378 104.63 96.4895 104.385 96.5909" stroke="black" stroke-width="0.159792" stroke-linejoin="round"/>
</g>
<path d="M118.081 6.64218V73.2422C118.081 74.0485 117.761 74.8216 117.191 75.3917C116.621 75.9618 115.847 76.2821 115.041 76.2821H18.8719C18.0657 76.2821 17.2925 75.9618 16.7224 75.3917C16.1523 74.8216 15.832 74.0485 15.832 73.2422V6.64218C15.832 5.90926 16.1232 5.20635 16.6414 4.6881C17.1597 4.16984 17.8626 3.87869 18.5955 3.87869H115.318C116.051 3.87869 116.753 4.16984 117.272 4.6881C117.79 5.20635 118.081 5.90926 118.081 6.64218Z" fill="#62CF3A" stroke="#263238" stroke-width="0.159792" stroke-miterlimit="10"/>
<path d="M118.081 6.64218V12.3902H15.832V6.64218C15.832 5.90926 16.1232 5.20635 16.6414 4.6881C17.1597 4.16985 17.8626 3.87869 18.5955 3.87869H115.318C116.051 3.87869 116.753 4.16985 117.272 4.6881C117.79 5.20635 118.081 5.90926 118.081 6.64218Z" fill="#C9C9C9" stroke="#263238" stroke-width="0.159792" stroke-miterlimit="10"/>
<path d="M81.7302 11.2766H27.1844C26.9387 11.2758 26.7032 11.1777 26.5296 11.0036C26.3561 10.8296 26.2587 10.5938 26.2587 10.348C26.2587 10.1022 26.3561 9.86648 26.5296 9.69243C26.7032 9.51838 26.9387 9.42023 27.1844 9.41949H81.7302C81.9764 9.41949 82.2126 9.51732 82.3867 9.69145C82.5609 9.86559 82.6587 10.1018 82.6587 10.348C82.6587 10.5943 82.5609 10.8305 82.3867 11.0046C82.2126 11.1787 81.9764 11.2766 81.7302 11.2766Z" fill="white" stroke="#263238" stroke-width="0.159792" stroke-miterlimit="10"/>
<path d="M112.9 9.60464H116.426" stroke="#263238" stroke-width="0.159792" stroke-miterlimit="10"/>
<path d="M112.9 10.348H116.426" stroke="#263238" stroke-width="0.159792" stroke-miterlimit="10"/>
<path d="M112.9 11.0914H116.426" stroke="#263238" stroke-width="0.159792" stroke-miterlimit="10"/>
<path d="M118.081 6.64218V8.30027H15.832V6.64218C15.832 5.90926 16.1232 5.20635 16.6414 4.6881C17.1597 4.16984 17.8626 3.87869 18.5955 3.87869H115.318C116.051 3.87869 116.753 4.16984 117.272 4.6881C117.79 5.20635 118.081 5.90926 118.081 6.64218Z" fill="#263238" stroke="#263238" stroke-width="0.159792" stroke-miterlimit="10"/>
<path d="M107.895 6.18069C107.898 6.01265 107.851 5.84745 107.76 5.70616C107.669 5.56487 107.538 5.45391 107.384 5.38744C107.23 5.32096 107.059 5.30199 106.894 5.33295C106.728 5.36391 106.576 5.44339 106.456 5.56124C106.337 5.67909 106.255 5.82998 106.221 5.99464C106.187 6.15929 106.203 6.33025 106.267 6.48569C106.331 6.64113 106.44 6.774 106.58 6.86734C106.72 6.96068 106.884 7.01025 107.052 7.00973C107.162 7.01157 107.271 6.99148 107.374 6.95064C107.476 6.90979 107.569 6.84902 107.647 6.77185C107.726 6.69468 107.788 6.60267 107.83 6.50117C107.873 6.39968 107.895 6.29073 107.895 6.18069Z" fill="white" stroke="#263238" stroke-width="0.159792" stroke-miterlimit="10"/>
<path d="M111.388 6.18069C111.391 6.01342 111.344 5.84913 111.253 5.70871C111.162 5.5683 111.031 5.45812 110.877 5.3922C110.724 5.32628 110.554 5.30761 110.389 5.33855C110.225 5.3695 110.073 5.44866 109.954 5.56597C109.835 5.68328 109.753 5.83342 109.72 5.99729C109.686 6.16115 109.702 6.33133 109.765 6.48615C109.828 6.64097 109.936 6.77343 110.075 6.86667C110.214 6.95991 110.378 7.00971 110.545 7.00973C110.655 7.01157 110.764 6.99148 110.867 6.95064C110.969 6.9098 111.062 6.84902 111.14 6.77185C111.219 6.69468 111.281 6.60267 111.323 6.50117C111.366 6.39968 111.388 6.29073 111.388 6.18069Z" fill="white" stroke="#263238" stroke-width="0.159792" stroke-miterlimit="10"/>
<path d="M114.881 6.18069C114.884 6.01342 114.837 5.84913 114.746 5.70871C114.655 5.5683 114.524 5.45812 114.37 5.3922C114.217 5.32628 114.047 5.30761 113.882 5.33855C113.718 5.3695 113.566 5.44866 113.447 5.56597C113.328 5.68328 113.246 5.83342 113.213 5.99729C113.179 6.16115 113.195 6.33133 113.258 6.48615C113.321 6.64097 113.43 6.77343 113.568 6.86667C113.707 6.95991 113.871 7.00971 114.038 7.00973C114.148 7.01157 114.257 6.99148 114.36 6.95064C114.462 6.9098 114.555 6.84902 114.633 6.77185C114.712 6.69468 114.774 6.60267 114.817 6.50117C114.859 6.39968 114.881 6.29073 114.881 6.18069Z" fill="white" stroke="#263238" stroke-width="0.159792" stroke-miterlimit="10"/>
<path d="M112.571 15.2283H21.6215V72.1451H112.571V15.2283Z" fill="white" stroke="#263238" stroke-width="0.159792" stroke-miterlimit="10"/>
<path d="M110.249 17.5856H23.9401V69.7824H110.249V17.5856Z" stroke="#62CF3A" stroke-width="0.798959" stroke-miterlimit="10"/>
<path d="M108.044 20.1971H26.1454V67.1764H108.044V20.1971Z" stroke="#62CF3A" stroke-width="0.159792" stroke-miterlimit="10"/>
<path d="M53.3989 25.6937V26.1773H52.8296V25.6633C52.8296 25.1797 52.6389 24.8895 52.2023 24.8895C51.7656 24.8895 51.575 25.1658 51.575 25.6633V28.4986C51.575 28.9795 51.7739 29.2724 52.2023 29.2724C52.6306 29.2724 52.8296 28.9795 52.8296 28.4986V27.7995H53.3989V28.4572C53.3989 29.2696 53.0147 29.8057 52.1857 29.8057C51.3566 29.8057 50.9836 29.2696 50.9836 28.4572V25.6937C50.9836 24.8812 51.3677 24.3451 52.1857 24.3451C53.0037 24.3451 53.3989 24.8784 53.3989 25.6937Z" fill="#263238"/>
<path d="M55.8501 26.7714V27.3076H54.5374V29.2144H56.1485V29.7671H53.9377V24.3948H56.1485V24.9475H54.5374V26.7797L55.8501 26.7714Z" fill="#263238"/>
<path d="M57.8951 24.3948C58.7379 24.3948 59.0889 24.8259 59.0889 25.6218V26.0585C59.0889 26.6498 58.8816 27.0174 58.4229 27.1639C58.912 27.3103 59.0972 27.7165 59.0972 28.2831V29.1121C59.0796 29.3323 59.1166 29.5535 59.205 29.756H58.5998C58.5149 29.5507 58.4807 29.3279 58.5003 29.1066V28.2637C58.5003 27.6558 58.2239 27.4651 57.7182 27.4651H57.2954V29.756H56.6985V24.3948H57.8951ZM57.7403 26.9234C58.2156 26.9234 58.5003 26.7714 58.5003 26.1883V25.6743C58.5003 25.1935 58.3234 24.9392 57.8785 24.9392H57.2954V26.9234H57.7403Z" fill="#263238"/>
<path d="M60.4983 29.7588V24.9392H59.5117V24.3865H62.0845V24.9392H61.098V29.7588H60.4983Z" fill="#263238"/>
<path d="M63.0959 24.3948V29.7588H62.499V24.3948H63.0959Z" fill="#263238"/>
<path d="M65.5417 26.893V27.4457H64.3064V29.7671H63.7095V24.3948H65.8401V24.9475H64.3064V26.9013L65.5417 26.893Z" fill="#263238"/>
<path d="M66.9124 24.3948V29.7588H66.3127V24.3948H66.9124Z" fill="#263238"/>
<path d="M69.8914 25.6937V26.1773H69.3166V25.6633C69.3166 25.1797 69.1259 24.8895 68.6893 24.8895C68.2526 24.8895 68.0592 25.1658 68.0592 25.6633V28.4986C68.0592 28.9795 68.2582 29.2724 68.6893 29.2724C69.1204 29.2724 69.3166 28.9795 69.3166 28.4986V27.7995H69.8831V28.4572C69.8831 29.2696 69.5017 29.8057 68.6727 29.8057C67.8437 29.8057 67.4706 29.2696 67.4706 28.4572V25.6937C67.4706 24.8812 67.8519 24.3451 68.6727 24.3451C69.4935 24.3451 69.8914 24.8784 69.8914 25.6937Z" fill="#263238"/>
<path d="M71.041 28.6782L70.8337 29.7588H70.281L71.3063 24.3948H72.1712L73.1992 29.7588H72.6051L72.3978 28.6782H71.041ZM71.1183 28.1642H72.3122L71.707 25.0691L71.1183 28.1642Z" fill="#263238"/>
<path d="M74.4511 29.7588V24.9392H73.4618V24.3865H76.0374V24.9392H75.048V29.7588H74.4511Z" fill="#263238"/>
<path d="M77.0543 24.3948V29.7588H76.4574V24.3948H77.0543Z" fill="#263238"/>
<path d="M77.6071 25.6937C77.6071 24.8646 78.0133 24.3451 78.8313 24.3451C79.6493 24.3451 80.0666 24.8729 80.0666 25.6937V28.4572C80.0666 29.2696 79.6603 29.8057 78.8313 29.8057C78.0022 29.8057 77.6071 29.2862 77.6071 28.4572V25.6937ZM78.1957 28.4986C78.1957 28.9878 78.4029 29.2724 78.8313 29.2724C79.2596 29.2724 79.4669 28.996 79.4669 28.4986V25.6605C79.4669 25.1769 79.2679 24.8867 78.8313 24.8867C78.3946 24.8867 78.1957 25.1631 78.1957 25.6605V28.4986Z" fill="#263238"/>
<path d="M81.1692 29.7588H80.6469V24.3948H81.404L82.6449 28.2637V24.3948H83.1754V29.7588H82.5537L81.1719 25.4229L81.1692 29.7588Z" fill="#263238"/>
<path d="M47.0014 32.7488H88.1414" stroke="#263238" stroke-width="0.159792" stroke-miterlimit="10"/>
<path d="M102.506 37.9967H105.352" stroke="#263238" stroke-width="0.159792" stroke-miterlimit="10"/>
<path d="M78.1514 37.9967H101.003" stroke="#263238" stroke-width="0.159792" stroke-miterlimit="10"/>
<path d="M64.9226 37.9967H76.8471" stroke="#263238" stroke-width="0.159792" stroke-miterlimit="10"/>
<path d="M47.181 37.9967H63.7177" stroke="#263238" stroke-width="0.159792" stroke-miterlimit="10"/>
<path d="M36.4559 37.9967H45.476" stroke="#263238" stroke-width="0.159792" stroke-miterlimit="10"/>
<path d="M29.7904 37.9967H35.1543" stroke="#263238" stroke-width="0.159792" stroke-miterlimit="10"/>
<path d="M64.019 40.5143H105.352" stroke="#263238" stroke-width="0.159792" stroke-miterlimit="10"/>
<path d="M31.9459 40.5143H62.7174" stroke="#263238" stroke-width="0.159792" stroke-miterlimit="10"/>
<path d="M29.7904 40.5143H30.7438" stroke="#263238" stroke-width="0.159792" stroke-miterlimit="10"/>
<path d="M102.205 43.0318H105.352" stroke="#263238" stroke-width="0.159792" stroke-miterlimit="10"/>
<path d="M85.2675 43.0318H100.702" stroke="#263238" stroke-width="0.159792" stroke-miterlimit="10"/>
<path d="M61.9132 43.0318H84.0653" stroke="#263238" stroke-width="0.159792" stroke-miterlimit="10"/>
<path d="M58.5058 43.0318H60.6116" stroke="#263238" stroke-width="0.159792" stroke-miterlimit="10"/>
<path d="M29.7904 43.0318H56.7013" stroke="#263238" stroke-width="0.159792" stroke-miterlimit="10"/>
<path d="M92.7841 45.5521H105.352" stroke="#263238" stroke-width="0.159792" stroke-miterlimit="10"/>
<path d="M47.8829 45.5521H91.582" stroke="#263238" stroke-width="0.159792" stroke-miterlimit="10"/>
<path d="M43.8732 45.5521H46.2802" stroke="#263238" stroke-width="0.159792" stroke-miterlimit="10"/>
<path d="M29.7904 45.5521H42.5715" stroke="#263238" stroke-width="0.159792" stroke-miterlimit="10"/>
<path d="M97.4958 48.0696H105.352" stroke="#263238" stroke-width="0.159792" stroke-miterlimit="10"/>
<path d="M63.9195 48.0696H95.8931" stroke="#263238" stroke-width="0.159792" stroke-miterlimit="10"/>
<path d="M51.0886 48.0696H62.4162" stroke="#263238" stroke-width="0.159792" stroke-miterlimit="10"/>
<path d="M33.1481 48.0696H49.5853" stroke="#263238" stroke-width="0.159792" stroke-miterlimit="10"/>
<path d="M29.7904 48.0696H32.1477" stroke="#263238" stroke-width="0.159792" stroke-miterlimit="10"/>
<path d="M32.8441 59.1623L35.4362 65.8969L36.6908 62.8515L39.739 64.0923L36.7599 57.7695L32.8441 59.1623Z" fill="#263238" stroke="#263238" stroke-width="0.159792" stroke-linecap="round" stroke-linejoin="round"/>
<path d="M31.9183 57.6976L28.7817 64.1946L31.8603 63.0312L33.0403 66.1014L35.6158 59.6044L31.9183 57.6976Z" fill="#263238" stroke="#263238" stroke-width="0.159792" stroke-linecap="round" stroke-linejoin="round"/>
<path d="M39.7307 56.0616C39.7307 55.8157 40.264 55.5338 40.2308 55.2962C40.1977 55.0585 39.6063 54.9341 39.5372 54.7048C39.4681 54.4754 39.8992 54.0498 39.7997 53.8315C39.7003 53.6132 39.0978 53.6629 38.9707 53.4584C38.8436 53.2539 39.1337 52.7289 38.9707 52.5465C38.8077 52.3641 38.2494 52.5824 38.067 52.4221C37.8846 52.2618 38.0228 51.6787 37.8183 51.5461C37.6138 51.4135 37.1385 51.7838 36.9147 51.6815C36.6908 51.5793 36.6632 50.9796 36.4283 50.9105C36.1934 50.8414 35.8452 51.3305 35.5992 51.2974C35.3533 51.2642 35.1598 50.6949 34.9139 50.6949C34.6679 50.6949 34.4662 51.2642 34.2285 51.2974C33.9909 51.3305 33.6316 50.8442 33.3995 50.9105C33.1674 50.9768 33.1232 51.582 32.9104 51.6815C32.6976 51.781 32.214 51.4052 32.0095 51.5461C31.805 51.687 31.9431 52.2646 31.7608 52.4249C31.5784 52.5852 31.0146 52.3641 30.8571 52.5465C30.6996 52.7289 30.9925 53.2539 30.8571 53.4584C30.7217 53.6629 30.1248 53.6104 30.028 53.8315C29.9313 54.0526 30.3597 54.4699 30.2906 54.7048C30.2215 54.9397 29.6329 55.0557 29.5969 55.2962C29.561 55.5366 30.0971 55.8157 30.0971 56.0616C30.0971 56.3076 29.5638 56.5867 29.5969 56.8244C29.6301 57.062 30.2215 57.1864 30.2906 57.4185C30.3597 57.6506 29.9258 58.0707 30.028 58.289C30.1303 58.5073 30.73 58.4603 30.8571 58.6621C30.9842 58.8638 30.6913 59.3916 30.8571 59.574C31.0229 59.7564 31.5756 59.5381 31.7608 59.6984C31.9459 59.8587 31.805 60.4418 32.0095 60.5744C32.214 60.7071 32.6893 60.3368 32.9104 60.439C33.1314 60.5413 33.1646 61.1409 33.3995 61.21C33.6344 61.2791 33.9826 60.79 34.2285 60.8259C34.4745 60.8618 34.6679 61.4256 34.9139 61.4256C35.1598 61.4256 35.3616 60.8591 35.5992 60.8259C35.8369 60.7927 36.1962 61.2763 36.4283 61.21C36.6604 61.1437 36.7046 60.5385 36.9174 60.439C37.1302 60.3395 37.6138 60.7154 37.8183 60.5744C38.0228 60.4335 37.8846 59.8559 38.067 59.6984C38.2494 59.5409 38.8132 59.7564 38.9707 59.574C39.1282 59.3916 38.8353 58.8666 38.9707 58.6621C39.1061 58.4576 39.703 58.5101 39.7997 58.289C39.8965 58.0679 39.4681 57.6506 39.5372 57.4157C39.6063 57.1809 40.1949 57.0675 40.2308 56.8244C40.2668 56.5812 39.7307 56.3076 39.7307 56.0616Z" fill="#62CF3A" stroke="#263238" stroke-width="0.159792" stroke-miterlimit="10"/>
<path d="M34.9194 59.3944C36.7601 59.3944 38.2522 57.9023 38.2522 56.0616C38.2522 54.221 36.7601 52.7289 34.9194 52.7289C33.0788 52.7289 31.5867 54.221 31.5867 56.0616C31.5867 57.9023 33.0788 59.3944 34.9194 59.3944Z" fill="#263238" stroke="#263238" stroke-width="0.159792" stroke-linecap="round" stroke-linejoin="round"/>
<path d="M34.9195 53.7707L35.4335 55.3542H37.0971L35.7513 56.3297L36.2653 57.9132L34.9195 56.9349L33.5736 57.9132L34.0876 56.3297L32.7418 55.3542H34.4054L34.9195 53.7707Z" fill="#62CF3A"/>
<path d="M43.652 54.4644H56.3641" stroke="#263238" stroke-width="0.159792" stroke-miterlimit="10"/>
<path d="M43.652 57.5014H56.3641" stroke="#263238" stroke-width="0.159792" stroke-miterlimit="10"/>
<path d="M98.2475 61.6743C100.857 61.6743 102.973 59.5586 102.973 56.9487C102.973 54.3389 100.857 52.2231 98.2475 52.2231C95.6377 52.2231 93.522 54.3389 93.522 56.9487C93.522 59.5586 95.6377 61.6743 98.2475 61.6743Z" stroke="#62CF3A" stroke-width="0.159792" stroke-miterlimit="10"/>
<path d="M98.9317 60.0868C100.661 59.7082 101.756 57.9992 101.378 56.2697C100.999 54.5403 99.2899 53.4452 97.5604 53.8239C95.831 54.2026 94.7359 55.9115 95.1146 57.641C95.4933 59.3704 97.2022 60.4655 98.9317 60.0868Z" fill="#62CF3A"/>
<path d="M113.809 110.118C113.809 110.118 112.841 108.46 112.358 107.562C112.02 106.912 111.72 106.243 111.46 105.558C111.46 105.558 112.634 106.249 112.98 106.526C113.325 106.802 114.776 108.529 114.776 108.529L115.19 108.046L114.707 106.457L116.296 108.253L117.056 105.006L118.23 108.115L120.441 105.351L120.579 108.115L123.274 105.973L122.306 109.358L121.27 110.809H113.878L113.809 110.118Z" fill="#62CF3A" stroke="#263238" stroke-width="0.159792" stroke-miterlimit="10"/>
<path d="M113.394 110.118C113.394 110.118 112.772 109.842 111.736 108.598C111.074 107.792 110.474 106.938 109.94 106.042C109.94 106.042 112.289 107.355 113.118 107.977C113.825 108.581 114.473 109.252 115.052 109.98C115.052 109.98 114.361 108.253 114.292 107.424C114.223 106.595 114.154 104.799 114.154 104.799C114.154 104.799 116.158 106.802 116.296 107.355C116.434 107.907 117.194 109.773 117.194 109.773C117.423 108.931 117.608 108.078 117.747 107.217C117.885 106.18 118.99 104.522 118.99 104.522C118.99 104.522 119.128 105.697 119.198 106.871C119.267 108.046 118.576 110.256 118.576 110.256C118.576 110.256 119.474 108.115 120.372 107.078C121.077 106.308 121.839 105.592 122.652 104.937C122.652 104.937 121.961 107.078 121.685 108.046C121.426 108.799 121.079 109.518 120.648 110.187C121.297 109.368 121.989 108.584 122.721 107.838C123.395 107.299 124.111 106.814 124.863 106.388C124.863 106.388 124.103 107.838 123.55 108.667C123.034 109.387 122.481 110.079 121.892 110.74H113.394V110.118Z" fill="#62CF3A" stroke="#263238" stroke-width="0.159792" stroke-miterlimit="10"/>
<path d="M123.122 109.98L122.644 114.194L121.823 121.402H113.165L112.344 114.194L111.866 109.98H123.122Z" fill="white" stroke="#263238" stroke-width="0.159792" stroke-miterlimit="10"/>
<path d="M122.644 114.194L121.823 121.402H113.165L112.344 114.194H122.644Z" fill="#62CF3A" stroke="#263238" stroke-width="0.159792" stroke-miterlimit="10"/>
<path d="M113.947 116.198C114.176 116.198 114.361 116.012 114.361 115.783C114.361 115.554 114.176 115.369 113.947 115.369C113.718 115.369 113.532 115.554 113.532 115.783C113.532 116.012 113.718 116.198 113.947 116.198Z" fill="#263238"/>
<path d="M116.987 116.198C117.216 116.198 117.401 116.012 117.401 115.783C117.401 115.554 117.216 115.369 116.987 115.369C116.758 115.369 116.572 115.554 116.572 115.783C116.572 116.012 116.758 116.198 116.987 116.198Z" fill="#263238"/>
<path d="M115.121 118.34C115.35 118.34 115.536 118.154 115.536 117.925C115.536 117.696 115.35 117.511 115.121 117.511C114.892 117.511 114.707 117.696 114.707 117.925C114.707 118.154 114.892 118.34 115.121 118.34Z" fill="#263238"/>
<path d="M118.783 118.34C119.012 118.34 119.198 118.154 119.198 117.925C119.198 117.696 119.012 117.511 118.783 117.511C118.554 117.511 118.368 117.696 118.368 117.925C118.368 118.154 118.554 118.34 118.783 118.34Z" fill="#263238"/>
<path d="M121.201 118.34C121.43 118.34 121.616 118.154 121.616 117.925C121.616 117.696 121.43 117.511 121.201 117.511C120.972 117.511 120.786 117.696 120.786 117.925C120.786 118.154 120.972 118.34 121.201 118.34Z" fill="#263238"/>
<path d="M120.027 116.198C120.255 116.198 120.441 116.012 120.441 115.783C120.441 115.554 120.255 115.369 120.027 115.369C119.798 115.369 119.612 115.554 119.612 115.783C119.612 116.012 119.798 116.198 120.027 116.198Z" fill="#263238"/>
<path d="M113.947 120.067C114.176 120.067 114.361 119.881 114.361 119.652C114.361 119.423 114.176 119.238 113.947 119.238C113.718 119.238 113.532 119.423 113.532 119.652C113.532 119.881 113.718 120.067 113.947 120.067Z" fill="#263238"/>
<path d="M116.987 120.067C117.216 120.067 117.401 119.881 117.401 119.652C117.401 119.423 117.216 119.238 116.987 119.238C116.758 119.238 116.572 119.423 116.572 119.652C116.572 119.881 116.758 120.067 116.987 120.067Z" fill="#263238"/>
<path d="M120.027 120.067C120.255 120.067 120.441 119.881 120.441 119.652C120.441 119.423 120.255 119.238 120.027 119.238C119.798 119.238 119.612 119.423 119.612 119.652C119.612 119.881 119.798 120.067 120.027 120.067Z" fill="#263238"/>
<path d="M71.8534 74.7074C71.8585 72.6012 70.7455 70.891 69.3673 70.8877C67.9891 70.8843 66.8677 72.589 66.8625 74.6952C66.8574 76.8014 67.9704 78.5115 69.3486 78.5149C70.7268 78.5182 71.8482 76.8136 71.8534 74.7074Z" fill="white" stroke="#263238" stroke-width="0.159792" stroke-linecap="round" stroke-linejoin="round"/>
<path d="M72.4918 65.1535C72.4918 65.1535 71.146 65.9245 69.8638 65.09C68.5815 64.2554 69.4796 63.874 69.7366 63.36C69.9936 62.846 69.3525 62.7189 69.2226 62.0142C69.0927 61.3095 69.5432 60.7319 69.8002 60.6684C70.0572 60.6048 69.9936 59.8974 69.9936 59.1927C69.9936 58.488 70.8227 57.8469 71.2096 57.8469C71.5965 57.8469 71.8507 57.3356 72.1077 56.6945C72.3647 56.0533 72.8787 55.4758 73.7658 55.8654C74.6529 56.2551 75.1116 56.2496 75.5621 55.6084C76.0125 54.9673 77.0986 54.8402 77.4965 55.1607C77.8945 55.4813 78.0713 56.1224 78.8423 55.4813C79.6133 54.8402 80.5723 54.9701 81.02 55.4177C81.4676 55.8654 81.4041 56.3794 82.1254 56.1224C82.8466 55.8654 83.9824 56.2496 84.2394 57.0206C84.4964 57.7916 85.8975 58.6234 86.4198 58.4299C86.9421 58.2365 87.8292 58.4299 87.3787 59.3916C86.9283 60.3533 87.4451 60.9945 87.8292 60.9945C88.2133 60.9945 89.0479 61.2515 88.5974 62.0833C88.147 62.9151 87.8292 63.559 88.3404 63.8132C88.8517 64.0675 89.6863 64.1338 89.0479 65.2254C88.4095 66.3169 87.8928 66.2506 88.0862 66.8835C88.2796 67.5163 88.661 67.7125 88.0862 68.1657C87.5114 68.6189 86.8039 68.8068 86.8039 69.191C86.8039 69.5751 87.5722 69.7658 86.6741 70.0863C86.1561 70.2754 85.6184 70.4052 85.0712 70.4732C85.0712 70.4732 83.7917 67.0106 80.1356 65.8582C76.4795 64.7058 74.3682 64.8302 73.5337 65.2806C72.6991 65.7311 72.4918 65.1535 72.4918 65.1535Z" fill="#263238" stroke="#263238" stroke-width="0.159792" stroke-linecap="round" stroke-linejoin="round"/>
<path d="M73.7824 88.6542L69.0844 90.8208C69.0844 90.8208 66.6553 104.268 66.8294 107.999C67.0035 111.729 69.0844 121.012 69.0844 121.012H80.3705C80.3705 121.012 78.635 109.646 79.5028 105.57C80.3705 101.493 82.4542 90.3013 82.4542 90.3013C82.4542 90.3013 78.9832 89.3478 77.9414 89.1737C76.8996 88.9996 73.7824 88.6542 73.7824 88.6542Z" fill="white" stroke="#263238" stroke-width="0.159792" stroke-miterlimit="10"/>
<path d="M68.3936 94.9356L81.3819 96.0576C81.2769 96.6103 81.1719 97.163 81.0641 97.7157L68.131 96.6103C68.2112 96.0244 68.3079 95.4634 68.3936 94.9356ZM79.5083 105.558C79.6078 105.089 79.7239 104.525 79.851 103.9L67.2329 102.812C67.161 103.392 67.0975 103.953 67.0394 104.486L79.5083 105.567V105.558ZM80.6137 99.9707L67.7662 98.8653C67.6833 99.418 67.6004 99.9707 67.5231 100.54L80.2876 101.645C80.4064 101.109 80.5142 100.551 80.6248 99.9817L80.6137 99.9707ZM66.8377 106.946C66.8211 107.344 66.8184 107.695 66.8377 107.988C66.8377 108.189 66.8626 108.408 66.8819 108.637L79.2651 109.427C79.2651 108.836 79.2651 108.267 79.2651 107.736L66.8377 106.946ZM69.1646 90.7738L69.0872 90.8097C69.0872 90.8097 68.9767 91.4287 68.8108 92.4374L81.8434 93.5649C81.9595 92.9376 82.0673 92.3739 82.1557 91.9068L69.1646 90.7738ZM79.6658 115.485L67.9348 115.361C68.0454 115.946 68.1587 116.513 68.2664 117.052L79.8731 117.184C79.8178 116.654 79.746 116.085 79.6852 115.507L79.6658 115.485ZM67.4319 112.699L79.4724 113.407C79.4245 112.841 79.383 112.275 79.348 111.707L67.1583 110.991C67.2578 111.552 67.3517 112.127 67.4512 112.71L67.4319 112.699Z" fill="#263238"/>
<path d="M73.0887 86.214C73.0887 86.214 72.1353 89.8563 72.0497 91.7659C71.964 93.6755 73.9565 95.2341 76.8194 94.9743C79.6824 94.7145 80.2019 91.5918 80.2019 90.8097C80.2019 90.0277 80.3705 83.4506 80.3705 83.4506C79.4107 84.2718 78.395 85.0253 77.3307 85.7056C75.6919 86.7446 73.0887 86.214 73.0887 86.214Z" fill="#B5B5B5" stroke="#263238" stroke-width="0.159792" stroke-miterlimit="10"/>
<path d="M75.692 89.3478C78.4029 88.049 79.7543 85.4983 80.365 83.8789C80.365 83.6026 80.365 83.4478 80.365 83.4478C79.4052 84.269 78.3895 85.0225 77.3252 85.7028C75.6671 86.7446 73.0749 86.2251 73.0749 86.2251C73.0749 86.2251 72.4808 88.5022 72.1879 90.398C73.4061 90.245 74.5904 89.8901 75.692 89.3478Z" fill="#263238" stroke="#263238" stroke-width="0.159792" stroke-miterlimit="10"/>
<path d="M84.9828 72.2971C84.9828 72.2971 84.8722 68.4503 83.4435 66.2506C82.0148 64.0509 79.0026 62.705 75.6394 63.2771C71.4666 63.9956 69.5929 67.1239 68.9324 69.763C68.272 72.4021 69.043 76.2489 69.043 78.8825C69.043 81.5161 72.1215 86.2472 73.0003 87.0182C73.8791 87.7892 75.2359 88.0435 76.7863 87.2586C78.2095 86.5346 80.5501 84.0723 81.9789 82.6436C83.4076 81.2149 84.2587 76.9647 84.4798 75.9753C84.7009 74.986 84.9828 72.2971 84.9828 72.2971Z" fill="#B5B5B5" stroke="#263238" stroke-width="0.159792" stroke-linecap="round" stroke-linejoin="round"/>
<path d="M73.3264 79.7696C73.3264 79.7696 73.1965 80.5986 75.1199 80.4743" stroke="#263238" stroke-width="0.159792" stroke-linecap="round" stroke-linejoin="round"/>
<path d="M72.7488 81.9472C72.7488 81.9472 74.9928 83.4865 77.2367 82.0136" stroke="#263238" stroke-width="0.159792" stroke-linecap="round" stroke-linejoin="round"/>
<path d="M77.2368 76.8182C77.2368 76.8182 77.8116 75.8565 79.4807 76.6883" stroke="#263238" stroke-width="0.319583" stroke-linecap="round" stroke-linejoin="round"/>
<path d="M72.7489 76.2434C72.7489 76.7049 72.5333 77.0724 72.268 77.0724C72.0027 77.0724 71.7872 76.6994 71.7872 76.2434C71.7872 75.7874 72.0027 75.4143 72.268 75.4143C72.5333 75.4143 72.7489 75.7846 72.7489 76.2434Z" fill="#263238"/>
<path d="M70.6983 73.6153C70.6983 73.6153 71.2759 72.3331 73.1854 72.9742" stroke="#263238" stroke-width="0.159792" stroke-linecap="round" stroke-linejoin="round"/>
<path d="M76.4022 73.502C76.4022 73.502 78.1984 72.5403 80.1854 74.0133" stroke="#263238" stroke-width="0.159792" stroke-linecap="round" stroke-linejoin="round"/>
<path d="M75.6394 63.2771C71.4666 63.9956 69.5929 67.1239 68.9324 69.763C68.7944 70.3489 68.713 70.9467 68.6893 71.5482C68.9048 70.8767 70.024 67.9308 73.1965 67.1267C76.7891 66.2313 79.9284 67.3837 81.0172 68.9229C82.106 70.4622 81.8462 72.4491 82.2359 73.4108C82.4791 74.0188 83.7005 74.9363 84.5655 75.5277C84.7645 74.3476 84.9828 72.2833 84.9828 72.2833C84.9828 72.2833 84.8723 68.4365 83.4435 66.2368C82.0148 64.0371 79.0026 62.7051 75.6394 63.2771Z" fill="#263238" stroke="#263238" stroke-width="0.159792" stroke-linecap="round" stroke-linejoin="round"/>
<path d="M83.9023 72.9742C83.9023 72.9742 84.2229 69.5779 83.2612 67.3339C82.2995 65.09 81.1471 64.1283 81.1471 64.1283C81.1471 64.1283 83.8387 65.5404 84.8004 66.8918C85.7621 68.2431 85.8892 71.5068 85.6295 73.7507L83.6425 73.4302L83.9023 72.9742Z" fill="#62CF3A" stroke="#263238" stroke-width="0.159792" stroke-miterlimit="10"/>
<path d="M86.4861 76.3069C86.0992 78.3768 84.6871 79.8497 83.3302 79.5983C81.9733 79.3468 81.1913 77.4593 81.5782 75.3895C81.9651 73.3196 83.3772 71.8467 84.7313 72.0981C86.0854 72.3496 86.873 74.2371 86.4861 76.3069Z" fill="white" stroke="#263238" stroke-width="0.159792" stroke-linecap="round" stroke-linejoin="round"/>
<path d="M86.2411 76.5727C86.5345 75.0019 85.9392 73.5729 84.9115 73.381C83.8838 73.189 82.8129 74.3068 82.5195 75.8776C82.2261 77.4484 82.8213 78.8774 83.849 79.0693C84.8767 79.2613 85.9477 78.1435 86.2411 76.5727Z" fill="#62CF3A" stroke="#263238" stroke-width="0.159792" stroke-miterlimit="10"/>
<path d="M70.574 112.556C71.2206 117.143 72.0165 121.258 72.0165 121.258H67.2771C67.2771 121.258 66.064 115.01 64.5883 111.541C63.7592 109.568 63.5575 108.778 63.5437 108.455C62.8998 109.988 58.8872 119.464 58.1687 119.785C57.3866 120.13 54.5236 119.509 53.4707 119.177C52.4179 118.845 52.346 117.356 52.5201 116.748C52.6942 116.14 59.9815 98.5282 60.6724 97.4034C61.3201 96.2574 61.8161 95.0322 62.1481 93.7584C62.2338 93.2388 62.0597 92.0229 62.8417 91.5918C63.3143 91.3293 66.636 90.561 69.1978 89.9918C70.8724 89.6187 72.2182 89.334 72.2182 89.334C72.2182 89.334 70.1456 97.0525 69.7919 102.519C69.6399 104.942 70.0682 108.9 70.574 112.553C70.5767 112.553 70.5767 112.553 70.574 112.556Z" fill="#62CF3A" stroke="#263238" stroke-width="0.159792" stroke-miterlimit="10"/>
<path d="M70.5739 112.553C69.977 111.572 67.5562 107.36 67.2329 102.975C66.9427 99.0394 68.5124 92.5811 69.2033 89.9862C70.8779 89.6131 72.2237 89.3285 72.2237 89.3285C72.2237 89.3285 70.1456 97.0525 69.7919 102.519C69.6399 104.942 70.0572 108.9 70.5739 112.553Z" fill="#62CF3A" stroke="#263238" stroke-width="0.159792" stroke-miterlimit="10"/>
<path d="M64.2124 99.3627C64.428 98.4259 64.5882 97.9202 64.5882 97.9202" stroke="#263238" stroke-width="0.159792" stroke-miterlimit="10"/>
<path d="M63.6349 108.245C63.6349 108.245 63.1126 106.421 63.5464 103.127C63.6625 102.256 63.7869 101.482 63.9112 100.816" stroke="#263238" stroke-width="0.159792" stroke-miterlimit="10"/>
<path d="M101.804 109.005C99.8089 108.916 89.8327 102.701 89.8327 102.701C89.8327 102.701 86.7072 108.825 86.6215 110.068C86.5358 111.312 89.0506 121.258 89.0506 121.258H78.3808C78.3808 121.258 78.0575 117.768 77.9911 113.94C77.9607 112.174 77.9911 110.348 78.121 108.736C78.5549 103.677 80.2876 89.3921 80.2876 89.3921L82.0258 89.5689C82.0258 89.5689 82.5177 89.7347 83.2887 90.0028C85.342 90.7158 89.3684 92.1749 91.1343 93.2084C93.5606 94.6289 96.9376 96.9391 98.5957 98.0059C100.254 99.0726 104.148 101.468 104.927 104.666C105.706 107.863 103.799 109.093 101.804 109.005Z" fill="#62CF3A" stroke="#263238" stroke-width="0.159792" stroke-miterlimit="10"/>
<path d="M83.2887 89.9917C83.0538 93.5456 82.363 102.01 80.8735 106.106C79.4475 110.022 78.4222 112.782 77.9911 113.94C77.9607 112.174 77.9911 110.348 78.121 108.736C78.5549 103.677 80.2876 89.3921 80.2876 89.3921L82.0258 89.5689C82.0258 89.5689 82.5177 89.7237 83.2887 89.9917Z" stroke="#263238" stroke-width="0.159792" stroke-miterlimit="10"/>
<path d="M89.8327 102.698L85.8422 101.457" stroke="#263238" stroke-width="0.159792" stroke-miterlimit="10"/>
<path d="M84.1565 98.7686C84.2726 100.081 84.6346 101.532 85.5824 102.345" stroke="#263238" stroke-width="0.159792" stroke-miterlimit="10"/>
<path d="M84.1924 96.041C84.1366 96.5383 84.108 97.0384 84.1068 97.5388" stroke="#263238" stroke-width="0.159792" stroke-miterlimit="10"/>
<path d="M83.6867 100.656C83.6867 100.656 84.6401 102.433 85.7676 103.055" stroke="#263238" stroke-width="0.159792" stroke-miterlimit="10"/>
<path d="M89.6642 87.9385C89.5037 87.2872 89.4202 86.6194 89.4155 85.9488C89.4155 84.8793 89.6642 84.2768 89.2745 84.3128C88.8849 84.3487 88.205 84.8461 87.9923 85.6945C87.7795 86.5429 88.241 87.3305 88.3128 87.6151C88.3564 87.7897 88.3805 87.9686 88.3847 88.1485C88.3847 88.1485 85.2896 88.2535 84.7203 88.2535C84.151 88.2535 83.5817 88.5741 83.5817 89.1074C83.5817 89.6408 84.1869 89.9365 84.1869 89.9365L84.4633 90.0802C84.4633 90.0802 84.1068 90.7545 84.3555 91.111C84.4929 91.3141 84.6618 91.4941 84.8557 91.6443C84.781 91.7522 84.7352 91.8774 84.7226 92.008C84.71 92.1386 84.7311 92.2703 84.7838 92.3904C84.8758 92.6326 85.0362 92.8429 85.2454 92.9957C85.2454 92.9957 84.7838 93.424 85.389 93.9933C85.9943 94.5625 87.3097 94.5985 88.2327 94.5985C89.1557 94.5985 89.9405 94.6316 89.9405 94.6316L90.3329 94.6676L93.6049 99.5424L96.7 96.0908C96.7 96.0908 92.1458 91.6692 91.5406 90.8982C90.9354 90.1272 89.6642 87.9385 89.6642 87.9385Z" fill="#B5B5B5" stroke="#263238" stroke-width="0.159792" stroke-miterlimit="10"/>
<path d="M96.5977 95.679L92.3475 99.6695C92.3475 99.6695 96.2523 104.876 98.3332 107.493C100.414 110.11 104.233 110.533 105.88 109.226C107.527 107.918 107.704 104.975 106.228 103.146C104.753 101.317 96.5977 95.679 96.5977 95.679Z" fill="#62CF3A" stroke="#263238" stroke-width="0.159792" stroke-miterlimit="10"/>
<path d="M68.1559 116.64C68.1559 116.64 74.3959 117.718 74.979 117.718C75.5621 117.718 81.7191 116.137 82.1337 116.469C82.5482 116.8 85.2951 119.133 85.9611 119.799C86.3568 120.192 86.6929 120.64 86.9587 121.131H81.2189L79.4724 120.713C79.4724 120.713 77.9912 121.399 77.1594 121.399C76.3276 121.399 73.542 121.239 73.542 121.239L68.6395 121.158C68.6395 121.158 66.9897 118.387 68.1559 116.64Z" fill="#B5B5B5" stroke="#263238" stroke-width="0.159792" stroke-miterlimit="10"/>
<path d="M82.9654 121.133C82.9654 121.133 81.5505 119.553 80.9702 119.135C80.6185 118.881 80.2298 118.683 79.8178 118.547" stroke="#263238" stroke-width="0.159792" stroke-miterlimit="10"/>
<path d="M84.8805 121.216C84.8805 121.216 82.1336 118.221 81.802 117.969C81.435 117.756 81.0434 117.589 80.6358 117.472" stroke="#263238" stroke-width="0.159792" stroke-miterlimit="10"/>
<path d="M54.5098 113.81C54.5098 113.81 52.0227 115.808 51.5971 117.126C51.1715 118.445 51.7629 120.039 53.0949 120.539C54.4269 121.04 69.2834 121.31 69.2834 121.31C69.0402 121.424 67.9514 120.404 68.5704 119.042C68.9905 118.119 70.1511 116.795 70.1511 116.795L57.7541 113.633" fill="#62CF3A"/>
<path d="M54.5098 113.81C54.5098 113.81 52.0227 115.808 51.5971 117.126C51.1715 118.445 51.7629 120.039 53.0949 120.539C54.4269 121.04 69.2834 121.31 69.2834 121.31C69.0402 121.424 67.9514 120.404 68.5704 119.042C68.9905 118.119 70.1511 116.795 70.1511 116.795L57.7541 113.633" stroke="#263238" stroke-width="0.159792" stroke-miterlimit="10"/>
<path d="M75.4681 120.747H24.4818V121.402H75.4681V120.747Z" fill="#263238" stroke="#263238" stroke-width="0.159792" stroke-miterlimit="10"/>
<path d="M56.9721 121.402H25.1727L22.2323 99.2881H54.0318L56.9721 121.402Z" fill="white" stroke="#263238" stroke-width="0.159792" stroke-miterlimit="10"/>
<path d="M56.3254 121.402H24.5287L21.5884 99.2881H53.3851L56.3254 121.402Z" fill="white" stroke="#263238" stroke-width="0.159792" stroke-miterlimit="10"/>
<path d="M26.9855 121.402H56.2287L54.0179 104.71C50.1048 107.197 45.3378 110.417 40.1424 114.382C36.1824 117.445 31.7345 119.818 26.9855 121.402Z" fill="#263238" stroke="#263238" stroke-width="0.159792" stroke-miterlimit="10"/>
<path d="M37.9455 112.066C39.0993 112.066 40.0347 111.203 40.0347 110.138C40.0347 109.072 39.0993 108.209 37.9455 108.209C36.7916 108.209 35.8563 109.072 35.8563 110.138C35.8563 111.203 36.7916 112.066 37.9455 112.066Z" fill="white" stroke="#263238" stroke-width="0.159792" stroke-miterlimit="10"/>
<path d="M0 121.402H127.626" stroke="#263238" stroke-width="0.159792" stroke-miterlimit="10"/>
</svg>
