<svg width="16" height="16" viewBox="0 0 16 16" fill="none" xmlns="http://www.w3.org/2000/svg">
<path d="M3.16667 2.00002C2.68044 2.00002 2.21413 2.19317 1.87031 2.53699C1.5265 2.8808 1.33334 3.34712 1.33334 3.83335V7.33335C1.86377 6.6261 2.65343 6.15854 3.5286 6.03352C4.40377 5.90849 5.29276 6.13625 6.00001 6.66668C6.70725 7.19711 7.17482 7.98677 7.29984 8.86194C7.42486 9.73711 7.19711 10.6261 6.66667 11.3333V12H12.8333C13.3196 12 13.7859 11.8069 14.1297 11.463C14.4735 11.1192 14.6667 10.6529 14.6667 10.1667V3.83335C14.6667 3.34712 14.4735 2.8808 14.1297 2.53699C13.7859 2.19317 13.3196 2.00002 12.8333 2.00002H3.16667ZM4.50001 4.66668H11.5C11.6326 4.66668 11.7598 4.71936 11.8536 4.81313C11.9473 4.9069 12 5.03407 12 5.16668C12 5.29929 11.9473 5.42647 11.8536 5.52024C11.7598 5.614 11.6326 5.66668 11.5 5.66668H4.50001C4.3674 5.66668 4.24022 5.614 4.14645 5.52024C4.05269 5.42647 4.00001 5.29929 4.00001 5.16668C4.00001 5.03407 4.05269 4.9069 4.14645 4.81313C4.24022 4.71936 4.3674 4.66668 4.50001 4.66668ZM8.00001 8.50002C8.00001 8.36741 8.05269 8.24023 8.14645 8.14646C8.24022 8.05269 8.3674 8.00002 8.50001 8.00002H11.5C11.6326 8.00002 11.7598 8.05269 11.8536 8.14646C11.9473 8.24023 12 8.36741 12 8.50002C12 8.63262 11.9473 8.7598 11.8536 8.85357C11.7598 8.94734 11.6326 9.00002 11.5 9.00002H8.50001C8.3674 9.00002 8.24022 8.94734 8.14645 8.85357C8.05269 8.7598 8.00001 8.63262 8.00001 8.50002ZM4.00001 6.66668C3.29268 6.66668 2.61431 6.94767 2.11415 7.44783C1.61399 7.94799 1.33301 8.62635 1.33301 9.33368C1.33301 10.041 1.61399 10.7194 2.11415 11.2195C2.61431 11.7197 3.29268 12.0007 4.00001 12.0007C4.70734 12.0007 5.3857 11.7197 5.88586 11.2195C6.38602 10.7194 6.66701 10.041 6.66701 9.33368C6.66701 8.62635 6.38602 7.94799 5.88586 7.44783C5.3857 6.94767 4.70734 6.66668 4.00001 6.66668ZM6.00001 12.0007C5.44334 12.4193 4.75067 12.6673 4.00001 12.6673C3.27875 12.6688 2.57666 12.4352 2.00001 12.002V14.166C2.00001 14.546 2.40334 14.7793 2.72667 14.612L2.78667 14.5753L4.00001 13.728L5.21334 14.576C5.28341 14.6249 5.36486 14.6551 5.4499 14.6636C5.53493 14.6721 5.62073 14.6586 5.6991 14.6245C5.77746 14.5904 5.84578 14.5368 5.89752 14.4688C5.94927 14.4008 5.98272 14.3206 5.99467 14.236L6.00001 14.166V12.0007Z" fill="#676767"/>
</svg>
