<svg width="16" height="16" viewBox="0 0 16 16" fill="none" xmlns="http://www.w3.org/2000/svg">
<path d="M8.687 1.26199C8.50133 1.08645 8.25551 0.988647 8 0.988647C7.74449 0.988647 7.49867 1.08645 7.313 1.26199L2.469 5.83999C2.32068 5.98034 2.20258 6.1495 2.12194 6.3371C2.04129 6.5247 1.9998 6.72679 2 6.93099V12.501C2.00027 12.8986 2.15842 13.2799 2.43969 13.561C2.72097 13.8421 3.10235 14 3.5 14H5C5.39783 14 5.77936 13.842 6.06066 13.5607C6.34197 13.2793 6.5 12.8978 6.5 12.5V9.99999C6.5 9.86738 6.55268 9.7402 6.64645 9.64644C6.74022 9.55267 6.86739 9.49999 7 9.49999H9C9.13261 9.49999 9.25979 9.55267 9.35355 9.64644C9.44732 9.7402 9.5 9.86738 9.5 9.99999V12.5C9.5 12.8978 9.65804 13.2793 9.93934 13.5607C10.2206 13.842 10.6022 14 11 14H12.5C12.8978 14 13.2794 13.842 13.5607 13.5607C13.842 13.2793 14 12.8978 14 12.5V6.92999C13.9999 6.72589 13.9582 6.52394 13.8774 6.33652C13.7966 6.1491 13.6784 5.98014 13.53 5.83999L8.687 1.26199Z" fill="#101010"/>
</svg>
