<svg width="14" height="15" viewBox="0 0 14 15" fill="none" xmlns="http://www.w3.org/2000/svg">
<g clip-path="url(#clip0_249_1076)">
<path fill-rule="evenodd" clip-rule="evenodd" d="M1.53198 0.503998C1.13416 0.503998 0.752627 0.662033 0.471322 0.943338C0.190018 1.22464 0.0319824 1.60617 0.0319824 2.004V10.004C0.0319824 10.4018 0.190018 10.7834 0.471322 11.0647C0.752627 11.346 1.13416 11.504 1.53198 11.504H5.46198C5.36845 11.1944 5.3455 10.8678 5.39482 10.5481C5.44414 10.2285 5.56448 9.924 5.74698 9.657H2.87098C2.79248 9.657 2.71719 9.62581 2.66168 9.5703C2.60617 9.51479 2.57498 9.4395 2.57498 9.361C2.57428 8.69915 2.79571 8.05622 3.20381 7.53516C3.6119 7.01411 4.18306 6.64509 4.8258 6.4872C5.46854 6.32931 6.14567 6.39169 6.74874 6.66434C7.35182 6.937 7.84595 7.40416 8.15198 7.991C8.18598 7.913 8.21198 7.831 8.23198 7.745L8.25398 7.641C8.55998 6.244 9.94798 5.74 11.032 6.134V2.004C11.032 1.60617 10.8739 1.22464 10.5926 0.943338C10.3113 0.662033 9.92981 0.503998 9.53198 0.503998H1.53198ZM5.53198 5.523C5.76495 5.523 5.99563 5.47711 6.21086 5.38796C6.42609 5.29881 6.62166 5.16814 6.78639 5.00341C6.95112 4.83867 7.08179 4.64311 7.17094 4.42788C7.2601 4.21265 7.30598 3.98196 7.30598 3.749C7.30598 3.51603 7.2601 3.28535 7.17094 3.07012C7.08179 2.85489 6.95112 2.65932 6.78639 2.49459C6.62166 2.32986 6.42609 2.19919 6.21086 2.11004C5.99563 2.02088 5.76495 1.975 5.53198 1.975C5.06149 1.975 4.61026 2.1619 4.27758 2.49459C3.94489 2.82728 3.75798 3.2785 3.75798 3.749C3.75798 4.21949 3.94489 4.67072 4.27758 5.00341C4.61026 5.33609 5.06149 5.523 5.53198 5.523ZM9.47498 7.908C9.66498 7.04 10.902 7.034 11.1 7.901L11.11 7.945L11.13 8.031C11.2508 8.54486 11.5199 9.01189 11.9039 9.37405C12.2879 9.73621 12.7699 9.97753 13.29 10.068C14.195 10.225 14.195 11.525 13.29 11.682C12.7669 11.7728 12.2824 12.0163 11.8974 12.3818C11.5124 12.7472 11.244 13.2184 11.126 13.736L11.1 13.849C10.902 14.716 9.66598 14.71 9.47498 13.842L9.45498 13.745C9.34126 13.2257 9.07545 12.7521 8.69147 12.3845C8.30748 12.0169 7.82271 11.772 7.29898 11.681C6.39498 11.523 6.39498 10.227 7.29898 10.07C7.82085 9.97917 8.30402 9.73549 8.6873 9.36984C9.07057 9.00419 9.3367 8.53302 9.45198 8.016L9.46798 7.945L9.47498 7.908Z" fill="#676767"/>
</g>
<defs>
<clipPath id="clip0_249_1076">
<rect width="14" height="14" fill="white" transform="translate(0 0.5)"/>
</clipPath>
</defs>
</svg>
