<svg width="130" height="115" viewBox="0 0 130 115" fill="none" xmlns="http://www.w3.org/2000/svg">
<path d="M109.495 76.4201L86.7091 67.8043C86.3347 67.6628 85.992 67.4488 85.7004 67.1747C85.4088 66.9006 85.1741 66.5717 85.0097 66.2068C84.8453 65.8419 84.7544 65.4482 84.7423 65.0482C84.7301 64.6482 84.7969 64.2497 84.9389 63.8755L96.8631 32.3388C97.149 31.5827 97.7236 30.9712 98.4603 30.6387C99.1971 30.3061 100.036 30.2798 100.792 30.5655L115.244 36.0295L122.068 51.7884L113.424 74.6593C113.136 75.4131 112.56 76.0217 111.824 76.3518C111.087 76.6819 110.25 76.7064 109.495 76.4201Z" fill="#F5F5F5"/>
<path d="M115.244 36.0295L111.886 44.9053C111.754 45.2535 111.692 45.6244 111.703 45.9966C111.715 46.3689 111.799 46.7352 111.952 47.0747C112.105 47.4143 112.324 47.7203 112.595 47.9754C112.867 48.2305 113.185 48.4297 113.534 48.5615L122.068 51.7885L115.244 36.0295Z" fill="#EBEBEB"/>
<path d="M111.707 45.7292C111.707 45.7292 110.783 47.8409 112.96 49.4888C113.043 49.5502 113.128 49.6067 113.217 49.658C114.258 50.2846 121.1 54.3575 121.163 54.1914L122.065 51.8041L113.531 48.5771C113.531 48.5771 111.432 47.6842 111.707 45.7292Z" fill="#E0E0E0"/>
<path d="M110.113 43.8212C110.069 43.9371 107.675 43.1351 104.765 42.0354C101.854 40.9357 99.5293 39.9488 99.5732 39.8423C99.617 39.7358 102.011 40.5284 104.921 41.6281C107.832 42.7278 110.156 43.699 110.113 43.8212Z" fill="#E0E0E0"/>
<path d="M115.022 51.4156C114.978 51.5284 111.062 50.1624 106.271 48.3421C101.481 46.5219 97.6307 44.9679 97.6746 44.852C97.7184 44.7361 101.635 46.1052 106.428 47.9286C111.222 49.752 115.056 51.2997 115.022 51.4156Z" fill="#E0E0E0"/>
<path d="M115 56.1966C114.956 56.3094 110.689 54.8024 105.466 52.8255C100.244 50.8485 96.0454 49.1567 96.0893 49.0439C96.1331 48.9311 100.4 50.4381 105.623 52.415C110.846 54.392 115.056 56.0806 115 56.1966Z" fill="#E0E0E0"/>
<path d="M113.506 60.1504C113.462 60.2632 109.195 58.7562 103.972 56.7793C98.7492 54.8024 94.551 53.098 94.5948 52.9978C94.6387 52.8975 98.9058 54.392 104.129 56.3657C109.351 58.3395 113.549 60.0345 113.506 60.1504Z" fill="#E0E0E0"/>
<path d="M112.011 64.1042C111.967 64.217 107.697 62.7101 102.477 60.7331C97.2579 58.7562 93.0565 57.0644 93.0972 56.9516C93.138 56.8388 97.4083 58.3458 102.634 60.3196C107.86 62.2934 112.052 63.9883 112.011 64.1042Z" fill="#E0E0E0"/>
<path d="M110.514 68.0581C110.473 68.1709 106.203 66.6608 100.983 64.687C95.7634 62.7132 91.5589 61.0182 91.6028 60.9054C91.6467 60.7927 95.9138 62.2996 101.137 64.2734C106.359 66.2472 110.557 67.9422 110.514 68.0581Z" fill="#E0E0E0"/>
<path d="M33.5253 43.6793L3.48592 54.199C2.44729 54.5627 1.90017 55.6995 2.26389 56.7382L17.3356 99.7762C17.6993 100.815 18.8362 101.362 19.8748 100.998L49.9142 90.4786C50.9528 90.1149 51.4999 88.978 51.1362 87.9394L36.0645 44.9014C35.7008 43.8627 34.5639 43.3156 33.5253 43.6793Z" fill="#EBEBEB"/>
<path d="M33.9105 46.3545L4.85277 56.5303L19.7909 99.1869L48.8486 89.0111L33.9105 46.3545Z" fill="#E0E0E0"/>
<path d="M33.3904 46.1538L4.33275 56.3296L18.9861 98.1731L48.0438 87.9972L33.3904 46.1538Z" fill="#FAFAFA"/>
<path d="M48.0385 87.9965L33.3479 46.1679L33.4011 46.1929L4.34886 56.372L4.37706 56.3156C9.85354 72.0307 14.9509 86.5459 19.0207 98.1599L18.9737 98.138L48.0416 87.9965L18.9956 98.2132H18.9612V98.1787C14.8883 86.5647 9.80654 72.0495 4.29874 56.3376V56.2937H4.33947L33.3949 46.124H33.4356V46.1616L48.0385 87.9965Z" fill="#E0E0E0"/>
<path d="M37.7341 91.6057C37.7341 91.6057 44.2037 86.148 45.3253 80.4648C44.6761 81.3656 43.8512 82.1257 42.9003 82.6992C41.9494 83.2726 40.8922 83.6476 39.7925 83.8014C39.7925 83.8014 39.664 89.7541 37.7341 91.6057Z" fill="#E0E0E0"/>
<path d="M14.2631 65.6534L12.7343 66.1887C12.1758 66.3843 11.8816 66.9956 12.0772 67.5541L12.6125 69.0828C12.8081 69.6414 13.4194 69.9356 13.978 69.74L15.5067 69.2046C16.0652 69.009 16.3594 68.3977 16.1638 67.8392L15.6285 66.3105C15.4329 65.752 14.8216 65.4578 14.2631 65.6534Z" fill="#EBEBEB"/>
<path d="M14.0768 68.2868C14.0662 68.2923 14.0543 68.2952 14.0423 68.2952C14.0304 68.2952 14.0185 68.2923 14.0079 68.2868L13.3061 67.8795C13.2891 67.8665 13.2774 67.8478 13.2733 67.8268C13.2691 67.8058 13.2728 67.784 13.2836 67.7656C13.2943 67.7471 13.3115 67.7332 13.3318 67.7265C13.3521 67.7198 13.3742 67.7207 13.3938 67.7291L14.0204 68.0863L14.7598 66.5198C14.7706 66.4989 14.7888 66.4828 14.8108 66.4747C14.8328 66.4666 14.8571 66.467 14.8789 66.4759C14.8895 66.4809 14.899 66.488 14.9068 66.4968C14.9146 66.5055 14.9206 66.5157 14.9244 66.5268C14.9282 66.5379 14.9297 66.5497 14.9289 66.5614C14.9281 66.5731 14.9249 66.5845 14.9196 66.595L14.1395 68.2617C14.1314 68.2701 14.1217 68.2767 14.1109 68.281C14.1001 68.2854 14.0884 68.2873 14.0768 68.2868Z" fill="white"/>
<path d="M34.1405 59.176C34.1405 59.2011 30.3809 60.5451 25.7159 62.1774C21.0509 63.8097 17.2568 65.1131 17.2568 65.0911C17.2568 65.0692 21.0164 63.722 25.6846 62.0897C30.3527 60.4574 34.1343 59.1541 34.1405 59.176Z" fill="#E0E0E0"/>
<path d="M25.2804 65.1977C25.2804 65.1977 25.1833 65.2415 25.0078 65.3105L24.2497 65.5924C23.6231 65.8243 22.7208 66.1407 21.7433 66.4853C20.7658 66.83 19.8635 67.137 19.2369 67.3532L18.4693 67.6069C18.3764 67.641 18.2811 67.6683 18.1842 67.6884C18.2718 67.6425 18.3629 67.6038 18.4567 67.5725L19.2149 67.2936C19.8415 67.0587 20.7438 66.7422 21.7213 66.3976C22.6988 66.053 23.6011 65.7491 24.2277 65.5298L24.9953 65.276C25.0879 65.2417 25.1833 65.2155 25.2804 65.1977Z" fill="#E0E0E0"/>
<path d="M34.5384 60.329C34.5384 60.3509 30.7788 61.695 26.1107 63.3272C21.4425 64.9595 17.6516 66.266 17.6516 66.2409C17.6516 66.2159 21.4112 64.8749 26.0825 63.2427C30.7538 61.6104 34.5384 60.3039 34.5384 60.329Z" fill="#E0E0E0"/>
<path d="M16.4453 71.8874L14.9166 72.4227C14.3581 72.6183 14.0639 73.2296 14.2595 73.7881L14.7948 75.3168C14.9904 75.8754 15.6017 76.1696 16.1603 75.974L17.689 75.4386C18.2475 75.243 18.5417 74.6317 18.3461 74.0732L17.8108 72.5445C17.6152 71.986 17.0039 71.6918 16.4453 71.8874Z" fill="#EBEBEB"/>
<path d="M16.2605 74.5215C16.2493 74.527 16.237 74.5299 16.2245 74.5299C16.212 74.5299 16.1997 74.527 16.1884 74.5215L15.4898 74.1142C15.4797 74.1087 15.4708 74.1011 15.4637 74.0921C15.4565 74.083 15.4514 74.0726 15.4484 74.0614C15.4455 74.0503 15.4449 74.0386 15.4466 74.0272C15.4483 74.0158 15.4524 74.0049 15.4585 73.9951C15.464 73.985 15.4715 73.9761 15.4806 73.969C15.4896 73.9619 15.5001 73.9567 15.5112 73.9538C15.5224 73.9508 15.534 73.9502 15.5454 73.9519C15.5568 73.9536 15.5677 73.9577 15.5775 73.9638L16.2041 74.3209L16.9435 72.7388C16.9537 72.7182 16.9713 72.7022 16.9928 72.694C17.0143 72.6859 17.0381 72.6862 17.0594 72.6949C17.0806 72.7045 17.0971 72.7221 17.1053 72.7438C17.1136 72.7656 17.1128 72.7897 17.1033 72.8109L16.3232 74.4807C16.3162 74.4916 16.307 74.5008 16.2962 74.5078C16.2854 74.5149 16.2732 74.5195 16.2605 74.5215Z" fill="white"/>
<path d="M36.3242 65.4107C36.3242 65.4358 32.5646 66.7767 27.8965 68.4121C23.2283 70.0475 19.4374 71.3477 19.4374 71.3258C19.4374 71.3039 23.197 69.9567 27.8651 68.3244C32.5333 66.6921 36.318 65.3888 36.3242 65.4107Z" fill="#E0E0E0"/>
<path d="M27.4641 71.4323C27.4641 71.4323 27.367 71.4762 27.1884 71.5451L26.4334 71.8271C25.8068 72.0589 24.9045 72.3754 23.927 72.72C22.9495 73.0646 22.0472 73.3716 21.4206 73.5878L20.653 73.8416C20.5601 73.8757 20.4648 73.9029 20.3679 73.9231C20.4551 73.8764 20.5463 73.8376 20.6404 73.8071L21.3986 73.5283C22.0252 73.2933 22.9275 72.9769 23.905 72.6323C24.8825 72.2876 25.7848 71.9837 26.4114 71.7644L27.179 71.5107C27.2716 71.4764 27.367 71.4502 27.4641 71.4323Z" fill="#E0E0E0"/>
<path d="M36.7315 66.5699C36.7315 66.5918 32.9719 67.9359 28.3038 69.5682C23.6356 71.2005 19.8447 72.5069 19.8447 72.4819C19.8447 72.4568 23.6043 71.1159 28.2724 69.4836C32.9406 67.8513 36.7315 66.5386 36.7315 66.5699Z" fill="#E0E0E0"/>
<path d="M18.6308 78.1214L17.102 78.6568C16.5435 78.8523 16.2493 79.4636 16.4449 80.0222L16.9803 81.5509C17.1759 82.1094 17.7872 82.4036 18.3457 82.208L19.8744 81.6727C20.4329 81.4771 20.7271 80.8658 20.5315 80.3073L19.9962 78.7785C19.8006 78.22 19.1893 77.9258 18.6308 78.1214Z" fill="#EBEBEB"/>
<path d="M18.4442 80.7561C18.433 80.7616 18.4207 80.7645 18.4082 80.7645C18.3957 80.7645 18.3834 80.7616 18.3722 80.7561L17.6704 80.3551C17.6589 80.3502 17.6487 80.3429 17.6402 80.3338C17.6318 80.3246 17.6255 80.3138 17.6216 80.302C17.6177 80.2902 17.6163 80.2777 17.6176 80.2653C17.6189 80.2529 17.6228 80.241 17.6291 80.2302C17.6353 80.2195 17.6438 80.2102 17.654 80.203C17.6641 80.1958 17.6756 80.1908 17.6878 80.1884C17.7 80.186 17.7126 80.1862 17.7247 80.189C17.7368 80.1918 17.7482 80.1972 17.7581 80.2047L18.3847 80.5619L19.1241 78.9797C19.1285 78.9687 19.135 78.9587 19.1434 78.9503C19.1518 78.9419 19.1617 78.9353 19.1727 78.9309C19.1837 78.9265 19.1955 78.9243 19.2073 78.9245C19.2191 78.9248 19.2308 78.9274 19.2416 78.9323C19.2524 78.9371 19.2621 78.9441 19.2701 78.9529C19.2781 78.9616 19.2843 78.9718 19.2882 78.983C19.2922 78.9942 19.2938 79.006 19.2931 79.0178C19.2923 79.0296 19.2892 79.0412 19.2839 79.0518L18.5037 80.7217C18.4884 80.7396 18.4674 80.7518 18.4442 80.7561Z" fill="white"/>
<path d="M38.5079 71.6454C38.5079 71.6704 34.7483 73.0114 30.0802 74.6468C25.412 76.2822 21.6211 77.5824 21.6211 77.5573C21.6211 77.5323 25.3807 76.1913 30.052 74.5591C34.7233 72.9268 38.4985 71.6234 38.5079 71.6454Z" fill="#E0E0E0"/>
<path d="M29.6478 77.6638C29.5589 77.7092 29.4667 77.748 29.3721 77.7798L28.6139 78.0617C27.9873 78.2936 27.0881 78.61 26.1075 78.9546C25.1269 79.2993 24.2277 79.6032 23.6011 79.8225L22.8335 80.0763C22.7405 80.1099 22.6452 80.1371 22.5484 80.1577C22.6357 80.1111 22.7269 80.0723 22.821 80.0418L23.5792 79.7598C24.2058 79.528 25.1081 79.2115 26.0856 78.8669C27.0631 78.5223 27.9654 78.2184 28.592 77.9991L29.3564 77.7453C29.4519 77.7127 29.5492 77.6855 29.6478 77.6638Z" fill="#E0E0E0"/>
<path d="M38.9246 72.7983C38.9246 72.8202 35.165 74.1643 30.4969 75.7966C25.8287 77.4289 22.0378 78.7353 22.0378 78.7103C22.0378 78.6852 25.7974 77.3443 30.4655 75.7089C35.1337 74.0734 38.9027 72.7733 38.9246 72.7983Z" fill="#E0E0E0"/>
<path d="M20.8131 84.3554L19.2843 84.8908C18.7258 85.0863 18.4316 85.6977 18.6272 86.2562L19.1626 87.7849C19.3582 88.3434 19.9695 88.6376 20.528 88.442L22.0567 87.9067C22.6152 87.7111 22.9094 87.0998 22.7138 86.5413L22.1785 85.0125C21.9829 84.454 21.3716 84.1598 20.8131 84.3554Z" fill="#EBEBEB"/>
<path d="M20.6248 86.9908C20.6139 86.9954 20.6022 86.9978 20.5903 86.9978C20.5785 86.9978 20.5668 86.9954 20.5559 86.9908L19.8541 86.5835C19.8341 86.5714 19.8198 86.552 19.8142 86.5293C19.8086 86.5067 19.8123 86.4828 19.8243 86.4629C19.8364 86.4429 19.8558 86.4286 19.8784 86.423C19.9011 86.4174 19.925 86.4211 19.9449 86.4331L20.5715 86.7903L21.3109 85.2238C21.3205 85.2026 21.3381 85.1861 21.3598 85.1779C21.3815 85.1696 21.4056 85.1704 21.4268 85.1799C21.4475 85.1901 21.4635 85.2077 21.4716 85.2292C21.4797 85.2507 21.4794 85.2745 21.4707 85.2958L20.6874 86.9657C20.6706 86.9818 20.6481 86.9908 20.6248 86.9908Z" fill="white"/>
<path d="M40.6916 77.88C40.6916 77.9051 36.932 79.246 32.2639 80.8783C27.5957 82.5106 23.8048 83.8171 23.8048 83.792C23.8048 83.7669 27.5644 82.426 32.2325 80.7937C36.9007 79.1614 40.6822 77.8487 40.6916 77.88Z" fill="#E0E0E0"/>
<path d="M31.8284 83.8985C31.7411 83.9452 31.6499 83.984 31.5558 84.0144L30.7976 84.2964C30.171 84.5282 29.2687 84.8447 28.2912 85.1893C27.3137 85.5339 26.4114 85.8378 25.7848 86.0572L25.0172 86.3109C24.8355 86.3673 24.7321 86.3955 24.7321 86.3924C24.8194 86.3457 24.9106 86.3069 25.0047 86.2765L25.7629 85.9945C26.3895 85.7626 27.2918 85.4462 28.2693 85.1016C29.2468 84.757 30.1491 84.4531 30.7757 84.2337L31.5433 83.98C31.6363 83.9464 31.7316 83.9191 31.8284 83.8985Z" fill="#E0E0E0"/>
<path d="M41.0958 79.033C41.0958 79.0549 37.3362 80.399 32.668 82.0313C27.9998 83.6636 24.2089 84.9669 24.2089 84.9449C24.2089 84.923 27.9685 83.579 32.6367 81.9435C37.3048 80.3081 41.0864 79.0079 41.0958 79.033Z" fill="#E0E0E0"/>
<path d="M7.62285 52.2521L8.3873 54.4452C8.6011 55.0558 9.04855 55.5564 9.63132 55.8372C10.2141 56.1181 10.8845 56.156 11.4952 55.9428L27.5675 50.3034C27.8697 50.1979 28.1481 50.0339 28.3868 49.8206C28.6254 49.6074 28.8198 49.3493 28.9586 49.0609C29.0974 48.7725 29.1779 48.4596 29.1957 48.14C29.2134 47.8205 29.168 47.5006 29.0619 47.1986L28.2975 45.0055L7.62285 52.2521Z" fill="#E0E0E0"/>
<path d="M18.1748 49.2821C17.7478 49.4323 17.2859 49.4524 16.8475 49.34C16.409 49.2275 16.0139 48.9875 15.7119 48.6504C15.41 48.3132 15.2149 47.894 15.1513 47.4459C15.0877 46.9977 15.1585 46.5408 15.3548 46.133C15.551 45.7251 15.8639 45.3847 16.2537 45.1547C16.6435 44.9247 17.0929 44.8156 17.5447 44.8412C17.9966 44.8667 18.4308 45.0258 18.7922 45.2982C19.1537 45.5706 19.4262 45.9441 19.5752 46.3715C19.7746 46.9432 19.7391 47.5707 19.4766 48.1163C19.2141 48.6619 18.7459 49.0811 18.1748 49.2821ZM16.9529 45.795C16.6896 45.887 16.4594 46.0549 16.2916 46.2777C16.1238 46.5005 16.0258 46.768 16.01 47.0465C15.9943 47.325 16.0615 47.6018 16.2031 47.8421C16.3448 48.0824 16.5545 48.2752 16.8058 48.3963C17.0571 48.5173 17.3386 48.5611 17.6148 48.5221C17.891 48.4831 18.1494 48.363 18.3573 48.1771C18.5652 47.9912 18.7134 47.7478 18.7829 47.4777C18.8525 47.2076 18.8404 46.923 18.7481 46.6597C18.6245 46.3072 18.366 46.018 18.0294 45.8559C17.6928 45.6938 17.3056 45.6719 16.9529 45.795Z" fill="#E0E0E0"/>
<path d="M31.0201 54.9778C31.0201 55.0185 26.7968 56.5443 21.5553 58.3771C16.3138 60.2099 12.0529 61.6668 12.0372 61.626C12.0216 61.5853 16.2605 60.0595 21.502 58.2267C26.7435 56.3939 31.0044 54.9246 31.0201 54.9778Z" fill="#E0E0E0"/>
<path d="M25.5906 55.7454C25.5906 55.7861 23.7421 56.4785 21.4268 57.29C19.1115 58.1014 17.2223 58.7374 17.2067 58.681C17.191 58.6246 19.0583 57.9479 21.3736 57.1364C23.6888 56.325 25.578 55.7047 25.5906 55.7454Z" fill="#E0E0E0"/>
<path d="M106.51 114.254C107.199 115.235 108.537 114.912 109.157 114.311C109.777 113.709 110.037 112.841 110.275 112.014C110.821 110.119 111.372 108.132 110.968 106.202C110.867 105.622 110.611 105.081 110.225 104.636C110.029 104.415 109.778 104.25 109.498 104.156C109.217 104.063 108.917 104.044 108.628 104.103C107.951 104.282 107.534 104.943 107.23 105.569C106.337 107.427 105.869 109.461 105.861 111.522C105.861 112.481 105.971 113.483 106.51 114.276" fill="#62CF3A"/>
<path d="M104.62 115.664C104.974 115.202 105.21 114.661 105.307 114.087C105.405 113.513 105.36 112.924 105.178 112.371C104.799 111.27 104.125 110.295 103.229 109.551C102.211 108.645 101.025 107.946 99.7392 107.493C99.2424 107.292 98.708 107.201 98.1727 107.227C97.9051 107.242 97.6452 107.322 97.4158 107.461C97.1864 107.6 96.9945 107.793 96.8568 108.023C96.4871 108.724 96.8568 109.573 97.2203 110.266C97.8909 111.488 98.6578 112.655 99.5136 113.756C100.2 114.643 100.986 115.517 102.036 115.918C103.085 116.319 104.169 116.269 104.724 115.545" fill="#62CF3A"/>
<path d="M106.547 128.14C106.557 128.071 106.557 128.001 106.547 127.933V127.35C106.547 126.836 106.547 126.097 106.572 125.157C106.619 123.318 106.776 121.341 107.083 118.553C107.371 115.93 107.76 112.879 108.17 110.896C108.258 110.444 108.346 110.037 108.43 109.683C108.515 109.329 108.577 109.019 108.643 108.771C108.709 108.524 108.743 108.345 108.781 108.195C108.798 108.127 108.811 108.058 108.819 107.988C108.787 108.05 108.763 108.115 108.747 108.182C108.7 108.333 108.643 108.521 108.574 108.753C108.505 108.984 108.418 109.304 108.33 109.658C108.242 110.012 108.139 110.416 108.042 110.867C107.539 113.216 107.162 115.59 106.911 117.979C106.597 120.774 106.466 123.305 106.456 125.16C106.456 126.081 106.456 126.827 106.488 127.353C106.488 127.594 106.513 127.792 106.522 127.945C106.525 128.011 106.533 128.076 106.547 128.14Z" fill="#263238"/>
<path d="M106.56 123.233C106.577 123.025 106.577 122.815 106.56 122.607C106.524 122.045 106.46 121.486 106.369 120.931C106.234 120.106 106.052 119.29 105.823 118.487C105.558 117.498 105.217 116.531 104.802 115.595C104.093 113.87 103.077 112.287 101.804 110.924C101.582 110.691 101.345 110.472 101.096 110.269C100.989 110.175 100.892 110.084 100.782 110.012L100.51 109.824C100.346 109.698 100.171 109.587 99.9867 109.492C100.588 109.962 101.159 110.471 101.694 111.015C102.929 112.387 103.919 113.962 104.62 115.67C105.027 116.601 105.37 117.557 105.648 118.534C105.884 119.329 106.077 120.137 106.228 120.952C106.356 121.651 106.431 122.206 106.475 122.613C106.488 122.822 106.516 123.029 106.56 123.233Z" fill="#263238"/>
<path d="M32.6586 108.712C32.7439 107.876 32.6749 107.032 32.455 106.221C32.1918 105.422 31.5777 104.692 30.7569 104.52C29.817 104.326 28.8583 104.918 28.3319 105.72C27.8056 106.522 27.627 107.493 27.4704 108.436C26.4015 114.952 26.0078 121.561 26.2955 128.158L30.1303 128.697C31.8002 121.814 32.3453 115.796 32.6586 108.712Z" fill="#455A64"/>
<path d="M30.2086 104.479L30.1898 104.542L30.1271 104.714L29.8702 105.378C29.817 105.522 29.7449 105.692 29.6885 105.858L29.5037 106.437L29.2875 107.105L29.0901 107.866C28.7682 109.123 28.5203 110.399 28.3476 111.685C28.1408 113.126 28.0061 114.724 27.8965 116.403C27.7022 119.765 27.6709 122.817 27.5832 125.022C27.5424 126.128 27.5048 127.021 27.4641 127.635C27.4422 127.948 27.4265 128.171 27.414 128.346C27.414 128.418 27.414 128.481 27.414 128.528C27.414 128.575 27.414 128.591 27.414 128.591C27.414 128.591 27.414 128.572 27.414 128.528C27.414 128.484 27.414 128.418 27.414 128.343C27.414 128.171 27.414 127.933 27.4359 127.632C27.461 127.005 27.4829 126.125 27.5111 125.019C27.5738 122.826 27.5894 119.762 27.7868 116.397C27.8933 114.715 28.0343 113.114 28.2473 111.666C28.427 110.384 28.6855 109.114 29.0212 107.863L29.228 107.101C29.3094 106.868 29.3846 106.645 29.4536 106.434L29.6541 105.855C29.7136 105.679 29.7888 105.522 29.8452 105.378L30.1271 104.727C30.1564 104.658 30.1815 104.601 30.2023 104.557C30.2001 104.531 30.2022 104.505 30.2086 104.479Z" fill="#263238"/>
<path d="M30.5626 104.495C30.7625 104.731 30.9214 104.999 31.0326 105.287C31.3258 106.08 31.4444 106.926 31.3804 107.769C31.2801 109.89 31.089 112.81 30.8383 116.037C30.5877 119.264 30.3026 122.177 30.077 124.286C29.9611 125.339 29.864 126.191 29.7919 126.792C29.7543 127.077 29.7261 127.303 29.7042 127.469L29.6791 127.645C29.6806 127.664 29.6806 127.684 29.6791 127.704C29.6791 127.704 29.6791 127.685 29.6791 127.645C29.6791 127.604 29.6791 127.538 29.6791 127.466C29.6791 127.3 29.7136 127.074 29.7387 126.786C29.7982 126.185 29.8796 125.336 29.9799 124.28C30.1804 122.168 30.4467 119.267 30.7005 116.027C30.9543 112.788 31.1579 109.884 31.2832 107.769C31.3514 106.936 31.2447 106.098 30.9699 105.309C30.8585 105.026 30.7222 104.754 30.5626 104.495Z" fill="#263238"/>
<path d="M33.2225 114.423C32.9709 114.405 32.7246 114.341 32.4957 114.235C32.2523 114.172 32.0221 114.066 31.8158 113.922C32.0678 113.938 32.3144 114.002 32.5427 114.11C32.7863 114.173 33.0166 114.279 33.2225 114.423Z" fill="#263238"/>
<path d="M33.6862 110.513C33.4785 110.679 33.2445 110.81 32.9938 110.899C32.761 111.028 32.5077 111.116 32.2451 111.159C32.6844 110.862 33.172 110.643 33.6862 110.513Z" fill="#263238"/>
<path d="M33.445 107.321C33.0663 107.389 32.6765 107.362 32.3109 107.242C32.4962 107.189 32.6914 107.18 32.8811 107.214C33.0747 107.206 33.2678 107.242 33.445 107.321Z" fill="#263238"/>
<path d="M29.4849 105.278C29.4536 105.297 29.2844 105.087 29.1121 104.811C28.9866 104.652 28.8979 104.467 28.852 104.269C28.8834 104.25 29.0525 104.457 29.228 104.736C29.4034 105.015 29.5256 105.256 29.4849 105.278Z" fill="#263238"/>
<path d="M28.1784 107.208C28.004 107.271 27.8169 107.29 27.6333 107.264C27.4487 107.282 27.2625 107.254 27.0913 107.183C27.2657 107.12 27.4528 107.101 27.6364 107.127C27.821 107.109 28.0072 107.137 28.1784 107.208Z" fill="#263238"/>
<path d="M27.2385 111.058C27.038 111.05 26.8419 110.997 26.6652 110.902C26.4718 110.847 26.293 110.749 26.142 110.617C26.3425 110.625 26.5386 110.678 26.7153 110.773C26.9087 110.828 27.0875 110.926 27.2385 111.058Z" fill="#263238"/>
<path d="M27.1383 114.314C27.1383 114.351 26.9284 114.43 26.6495 114.486C26.3707 114.542 26.142 114.564 26.1326 114.527C26.1232 114.489 26.3456 114.411 26.6213 114.354C26.7876 114.298 26.9652 114.284 27.1383 114.314Z" fill="#263238"/>
<path d="M29.8107 113.747C29.8389 113.772 29.6823 113.994 29.4598 114.238C29.2374 114.483 29.0369 114.668 29.0087 114.643C28.9805 114.618 29.1371 114.395 29.3564 114.148C29.5757 113.9 29.7825 113.721 29.8107 113.747Z" fill="#263238"/>
<path d="M30.077 111.058C30.0488 111.087 29.8326 110.914 29.5883 110.676C29.3439 110.438 29.1716 110.222 29.1966 110.194C29.2217 110.166 29.441 110.338 29.6854 110.579C29.9298 110.82 30.1021 111.03 30.077 111.058Z" fill="#263238"/>
<path d="M30.6034 107.418C30.5619 107.616 30.4774 107.802 30.3559 107.963C30.1898 108.245 30.0269 108.458 29.9956 108.439C29.9642 108.42 30.0708 108.176 30.2399 107.894C30.4091 107.612 30.5689 107.399 30.6034 107.418Z" fill="#263238"/>
<path d="M31.5903 104.047C31.6247 104.066 31.5276 104.31 31.3741 104.592C31.2206 104.874 31.0608 105.09 31.0357 105.074C31.0655 104.879 31.1395 104.692 31.2519 104.529C31.4054 104.244 31.5558 104.031 31.5903 104.047Z" fill="#263238"/>
<path d="M32.7119 105.579C32.7275 105.613 32.574 105.72 32.3672 105.82C32.1605 105.92 31.9819 105.97 31.9662 105.936C31.9506 105.902 32.1041 105.795 32.3108 105.695C32.5176 105.595 32.6962 105.544 32.7119 105.579Z" fill="#263238"/>
<path d="M18.3596 112.152C18.2113 111.421 17.8219 110.761 17.2537 110.278C16.6856 109.796 15.9717 109.517 15.2266 109.489C13.9014 109.721 13.3876 111.024 13.2309 112.359C13.0743 113.693 13.4878 115.022 13.8982 116.303C15.2099 120.414 16.5237 124.525 17.8395 128.638L21.5678 128.23C20.4023 122.723 19.7256 117.616 18.3596 112.152Z" fill="#455A64"/>
<path d="M15.2955 109.382C15.1294 109.572 14.9786 109.774 14.8444 109.987C14.5013 110.583 14.3067 111.252 14.2773 111.939C14.2617 112.957 14.4174 113.971 14.7379 114.937C15.0512 116.046 15.424 117.265 15.8031 118.54C16.5456 121.097 17.2161 123.409 17.7079 125.097L18.2719 127.09C18.3345 127.316 18.3815 127.494 18.4191 127.632C18.4396 127.694 18.4533 127.758 18.4599 127.823C18.4311 127.765 18.4081 127.704 18.3909 127.641C18.3502 127.504 18.2907 127.328 18.2218 127.103C18.0745 126.623 17.8677 125.95 17.6171 125.126L15.6715 118.578C15.2955 117.296 14.9415 116.071 14.6157 114.968C14.2965 113.988 14.1492 112.96 14.1802 111.929C14.2206 111.229 14.436 110.551 14.8068 109.956C14.9369 109.739 15.1021 109.545 15.2955 109.382Z" fill="#263238"/>
<path d="M20.7689 127.833C20.7374 127.775 20.7091 127.715 20.6843 127.654C20.6373 127.532 20.559 127.359 20.4744 127.128C20.2958 126.67 20.0671 125.997 19.8478 125.151C19.6285 124.305 19.3778 123.271 19.1523 122.143C18.9267 121.015 18.7011 119.753 18.4505 118.437C18.1998 117.121 17.9053 115.883 17.5701 114.777C17.2793 113.794 16.9159 112.834 16.483 111.904C16.1886 111.279 15.8526 110.674 15.4773 110.094C15.3488 109.887 15.2329 109.733 15.164 109.627C15.1247 109.573 15.0901 109.517 15.0606 109.458C15.1065 109.504 15.1485 109.554 15.1859 109.608C15.2642 109.714 15.3864 109.859 15.5211 110.065C15.9174 110.636 16.2683 111.238 16.5707 111.864C17.0201 112.791 17.3941 113.753 17.6892 114.74C18.043 115.948 18.3337 117.173 18.5601 118.412C18.8076 119.724 19.0395 120.978 19.2525 122.121C19.4656 123.265 19.6911 124.277 19.9167 125.126C20.1423 125.975 20.3522 126.648 20.5151 127.109C20.5903 127.344 20.6624 127.519 20.7031 127.641C20.7321 127.702 20.7542 127.767 20.7689 127.833Z" fill="#263238"/>
<path d="M13.5849 113.145C13.3813 113.202 13.1696 113.226 12.9583 113.214C12.7499 113.243 12.538 113.237 12.3317 113.195C12.5268 113.102 12.7427 113.061 12.9583 113.076C13.1697 113.045 13.3853 113.069 13.5849 113.145Z" fill="#263238"/>
<path d="M14.0048 110.82C13.9797 110.852 13.776 110.72 13.5536 110.529C13.3312 110.338 13.1651 110.159 13.1902 110.131C13.2152 110.103 13.4157 110.231 13.6413 110.422C13.8669 110.614 14.0298 110.792 14.0048 110.82Z" fill="#263238"/>
<path d="M15.142 108.671C15.1796 108.671 15.1671 108.862 15.164 109.078C15.1608 109.295 15.164 109.479 15.117 109.486C15.07 109.492 15.0198 109.31 15.0261 109.075C15.0324 108.84 15.1138 108.662 15.142 108.671Z" fill="#263238"/>
<path d="M17.4636 109.683C17.4949 109.705 17.4041 109.89 17.2599 110.094C17.1158 110.297 16.9748 110.448 16.9466 110.426C16.9184 110.404 17.0062 110.222 17.1472 110.015C17.2881 109.808 17.4323 109.661 17.4636 109.683Z" fill="#263238"/>
<path d="M18.9705 112.312C18.9705 112.349 18.792 112.459 18.5413 112.562C18.2907 112.666 18.0714 112.719 18.0588 112.684C18.0463 112.65 18.2374 112.537 18.4881 112.437C18.7387 112.337 18.958 112.268 18.9705 112.312Z" fill="#263238"/>
<path d="M19.8854 114.997C19.7196 115.14 19.5144 115.231 19.2964 115.257C19.0876 115.324 18.8639 115.332 18.651 115.279C18.852 115.199 19.0627 115.146 19.2776 115.122C19.4743 115.056 19.6784 115.014 19.8854 114.997Z" fill="#263238"/>
<path d="M15.6872 114.232C15.6527 114.232 15.6872 114.035 15.7467 113.815C15.8062 113.596 15.9002 113.43 15.9347 113.443C15.9691 113.455 15.9347 113.64 15.8751 113.859C15.8156 114.079 15.7404 114.245 15.6872 114.232Z" fill="#263238"/>
<path d="M89.4442 103.614H43.1949V140.496H89.4442V103.614Z" fill="#E0E0E0"/>
<g opacity="0.3">
<path d="M46.5628 103.69C52.008 105.632 58.0139 106.049 63.857 106.158C65.0694 106.18 66.2944 106.177 67.4662 106.472C68.6379 106.766 69.7689 107.434 70.3705 108.483C71.0253 109.627 70.9563 111.058 70.5835 112.321C70.2107 113.584 69.5684 114.752 69.1047 115.984C68.2838 118.162 68.0325 120.514 68.3748 122.817C68.4802 123.798 68.8104 124.741 69.3397 125.574C69.6079 125.987 69.9692 126.332 70.3946 126.582C70.82 126.831 71.2977 126.977 71.7897 127.009C73.5473 127.034 74.7504 125.307 75.6214 123.778C79.1961 117.512 83.0622 110.401 85.3493 103.561L46.5628 103.69Z" fill="black"/>
</g>
<path d="M58.9538 140.299C58.9068 140.299 58.8724 132.125 58.8724 122.043C58.8724 111.961 58.9068 103.784 58.9538 103.784C59.0008 103.784 59.0353 111.958 59.0353 122.043C59.0353 132.128 58.9977 140.299 58.9538 140.299Z" fill="#455A64"/>
<path d="M77.9053 76.3574C77.7675 75.4363 75.0167 72.3973 75.0167 72.3973C75.0167 72.3973 73.6445 66.8801 73.2309 65.254C73.0932 64.784 72.8919 64.3349 72.6325 63.9194C71.6598 62.299 70.2764 60.9642 68.6223 60.0501L64.8157 57.9103L63.9071 55.8864L54.765 51.1869L52.2868 55.5731C52.2868 55.5731 46.2683 57.4842 45.4726 58.8408C44.6768 60.1974 45.8673 78.516 45.8673 78.516C45.8673 78.516 43.3609 89.0805 42.8189 91.2673C42.2769 93.4541 42.9881 96.0608 42.9881 96.0608L47.4714 90.4371C48.8656 88.6889 51.9234 87.8837 54.1196 87.915L72.8894 87.9996L72.1344 82.7424L87.32 85.6812C87.32 85.6812 89.9298 80.5869 90.1397 80.4867C90.3496 80.3864 77.9053 76.3574 77.9053 76.3574Z" fill="#62CF3A"/>
<path d="M54.3765 57.2806C54.2449 57.1459 55.4355 61.1718 56.933 65.2728C57.7387 67.489 58.1491 69.8293 58.1455 72.1874V87.0378L67.1435 86.4268L65.7994 76.6456C65.7994 76.6456 64.7029 70.3358 64.3958 67.9359C64.1139 65.7428 63.1427 59.7901 63.1427 59.7901C63.1427 59.7901 58.1455 61.1185 54.3765 57.2806Z" fill="white"/>
<path d="M74.3462 80.0418C74.3322 79.9662 74.3322 79.8887 74.3462 79.8131C74.3669 79.6082 74.4068 79.4058 74.4653 79.2084C74.6555 78.5495 75.0089 77.9492 75.4929 77.4633C75.9795 76.9789 76.5793 76.6235 77.238 76.4294C77.4354 76.3709 77.6378 76.331 77.8427 76.3104C77.9172 76.2962 77.9937 76.2962 78.0682 76.3104C78.0682 76.3386 77.7549 76.373 77.2725 76.5391C76.6463 76.7539 76.0776 77.1093 75.61 77.578C75.1424 78.0466 74.7883 78.6162 74.575 79.2429C74.4089 79.7285 74.3744 80.0418 74.3462 80.0418Z" fill="#263238"/>
<path d="M74.8099 76.4827C75.228 76.2373 75.7008 76.1005 76.1853 76.0848C76.6651 76.0184 77.1539 76.0767 77.6046 76.254C77.6046 76.3041 76.978 76.1819 76.1979 76.254C75.4177 76.3261 74.8287 76.5297 74.8099 76.4827Z" fill="#263238"/>
<g opacity="0.3">
<path d="M44.9619 84.5878L44.1786 85.4713C44.9953 86.4794 46.1022 87.2122 47.3492 87.5704C48.6061 87.8371 49.8903 87.9528 51.1746 87.915C51.6949 87.9402 52.2161 87.8906 52.7223 87.7678C53.233 87.6205 53.7061 87.3323 54.2356 87.3009C54.5907 87.3026 54.9438 87.3532 55.2851 87.4513C55.6286 87.5487 55.9916 87.5541 56.3378 87.467C56.5092 87.4207 56.6611 87.3204 56.7712 87.181C56.8812 87.0417 56.9434 86.8706 56.9487 86.6931C53.0429 85.5516 49.0229 84.8455 44.9619 84.5878Z" fill="black"/>
</g>
<path d="M70.6524 85.7219L68.4593 83.3784L63.9008 82.2349C63.9008 82.2349 59.7402 83.4881 59.64 83.4881C59.5397 83.4881 56.0182 82.5231 56.0182 82.5231L54.787 87.0409L61.1313 87.4764L68.3748 87.185C68.3748 87.185 68.7539 86.8341 68.5283 86.5929C68.3027 86.3516 69.7407 87.0002 69.9099 87.0064C70.0791 87.0127 70.4049 87.1443 70.6305 86.8748C70.784 86.6743 70.9908 86.0822 70.6524 85.7219Z" fill="#FFBE9D"/>
<path d="M68.5283 86.5772C68.2822 86.5308 68.041 86.4615 67.8077 86.3704C67.3691 86.2326 66.7581 86.0571 66.0783 85.8692C65.3984 85.6812 64.7718 85.5559 64.3175 85.4775C64.069 85.4451 63.8244 85.3873 63.5875 85.3052C63.8385 85.2943 64.0898 85.3132 64.3363 85.3616C64.9356 85.4453 65.5297 85.5624 66.1159 85.7125C66.7029 85.8615 67.2804 86.0456 67.8453 86.2639C68.0854 86.3388 68.3149 86.4441 68.5283 86.5772Z" fill="#62CF3A"/>
<path d="M70.6524 85.7219C70.3108 85.6355 69.9741 85.531 69.6436 85.4086C69.017 85.2018 68.1617 84.9449 67.1999 84.6786C66.2381 84.4123 65.3859 84.1084 64.7374 84.0708C64.388 84.0529 64.0378 84.0665 63.6909 84.1116C63.7758 84.065 63.868 84.0332 63.9635 84.0176C64.2196 83.9622 64.482 83.9412 64.7436 83.9549C65.4141 83.9549 66.3101 84.24 67.25 84.522C68.1899 84.8039 69.0734 85.064 69.6875 85.3021C70.0008 85.418 70.2358 85.5245 70.4049 85.5997C70.493 85.6281 70.5764 85.6692 70.6524 85.7219Z" fill="#62CF3A"/>
<path d="M45.4726 58.8408C45.4726 58.8408 42.1986 61.1185 41.3997 64.3956C40.6007 67.6727 37.1513 81.0663 37.8594 83.0683C38.5674 85.0702 52.3338 87.0378 52.3338 87.0378L53.9661 80.1452L46.9733 78.2309C46.9733 78.2309 47.0641 71.8553 47.1518 69.2141C47.2396 66.573 45.4726 58.8408 45.4726 58.8408Z" fill="#62CF3A"/>
<path d="M53.8784 81.1822L56.131 81.7367L54.7744 86.9312L52.5625 86.5772L53.8784 81.1822Z" fill="white"/>
<path d="M37.8093 82.3602C37.8093 82.3602 37.8093 82.4761 37.8437 82.6735C37.9199 82.9765 38.0872 83.2488 38.3231 83.4536C38.9215 84.0113 40.065 84.475 41.5125 84.735C42.1735 84.9543 42.9286 85.1266 43.7338 85.3084C44.5389 85.4901 45.4099 85.6749 46.3247 85.8598C48.1575 86.2357 50.1846 86.6305 52.3338 87.0315L52.2398 87.091C52.3934 86.4644 52.5531 85.7783 52.7254 85.0922C53.1108 83.5257 53.4868 81.9842 53.8408 80.5337L53.8972 80.6277L47.697 78.87C46.8409 78.5096 45.9146 78.3468 44.9869 78.3938C44.2819 78.4331 43.5894 78.5965 42.9411 78.8763C42.5291 79.0546 42.1356 79.2728 41.7662 79.528L41.4811 79.7347C41.45 79.7599 41.4164 79.782 41.3809 79.8005C41.3809 79.8005 41.4091 79.7692 41.4686 79.7191C41.5281 79.669 41.619 79.5906 41.7443 79.4966C42.1082 79.2268 42.5 78.9968 42.9129 78.8105C43.5653 78.5148 44.2659 78.3397 44.9807 78.2936C45.9246 78.2334 46.8698 78.3898 47.744 78.751L53.963 80.4929L54.0382 80.5117L54.0194 80.5869C53.6653 82.0375 53.2925 83.5664 52.9103 85.1486C52.7411 85.8316 52.5782 86.5083 52.4215 87.1443L52.4028 87.2195H52.3276C50.1783 86.8153 48.1544 86.4143 46.3216 86.0321C45.4068 85.841 44.5389 85.6498 43.7306 85.4619C42.9223 85.2739 42.1641 85.0953 41.4999 84.8666C40.0337 84.5878 38.8901 84.1053 38.2855 83.5194C38.0457 83.3039 37.8811 83.0174 37.8155 82.7017C37.7929 82.5892 37.7908 82.4735 37.8093 82.3602Z" fill="#263238"/>
<path d="M47.3555 78.6977C47.3367 78.7197 47.1017 78.5035 46.6819 78.2246C45.5824 77.4884 44.2828 77.1088 42.9599 77.1375C42.4523 77.1375 42.1422 77.2064 42.1359 77.1782C42.3984 77.0832 42.6745 77.0314 42.9536 77.0247C44.313 76.9262 45.6625 77.3186 46.7571 78.1306C46.9865 78.2853 47.1887 78.477 47.3555 78.6977Z" fill="#263238"/>
<path d="M48.2735 67.4816C48.285 67.6213 48.285 67.7617 48.2735 67.9014C48.2735 68.174 48.2453 68.5625 48.2077 69.045C48.1293 70.0068 47.9884 71.332 47.7346 72.7858C47.5363 74.0294 47.2462 75.2568 46.8667 76.4576C46.7916 76.6863 46.7101 76.8931 46.6443 77.0842L46.4438 77.5354C46.3851 77.664 46.3126 77.7858 46.2276 77.8988C46.2669 77.7645 46.3194 77.6343 46.3843 77.5103C46.4375 77.3756 46.4939 77.2221 46.5597 77.0529C46.6255 76.8837 46.6882 76.6644 46.7571 76.4263C47.0995 75.2211 47.3725 73.9972 47.5748 72.7607C47.8254 71.3133 47.9852 69.9943 48.0917 69.0356C48.1387 68.5813 48.1795 68.2022 48.2108 67.9014C48.2149 67.7595 48.2359 67.6185 48.2735 67.4816Z" fill="#263238"/>
<path d="M56.2563 63.9319C56.2563 63.9319 56.225 63.8473 56.1498 63.7001C56.0384 63.4914 55.8756 63.3145 55.6767 63.1863C55.5296 63.0853 55.3615 63.0193 55.185 62.9933C55.0086 62.9672 54.8285 62.9818 54.6585 63.0359C54.443 63.1096 54.2505 63.2383 54.1 63.4092C53.9495 63.58 53.8461 63.7872 53.8001 64.0102L53.7562 64.2327L53.6591 64.0259C53.2926 63.2395 52.9735 62.4318 52.7035 61.6072C52.2248 60.2337 51.9853 58.7883 51.9955 57.3338C51.9955 57.055 52.0331 56.8043 52.0487 56.5819C52.0644 56.3595 52.1145 56.1746 52.149 56.0242C52.182 55.8661 52.2281 55.711 52.2868 55.5605C52.18 56.1459 52.1202 56.7389 52.1082 57.3338C52.134 58.7722 52.3867 60.1975 52.857 61.5571C53.1273 62.3753 53.441 63.1785 53.7969 63.9632L53.6559 63.982C53.71 63.7357 53.8279 63.5078 53.9978 63.3214C54.1677 63.135 54.3837 62.9965 54.624 62.92C54.8106 62.8637 55.0076 62.8516 55.1996 62.8848C55.3916 62.918 55.5732 62.9954 55.73 63.1111C55.9335 63.2541 56.0939 63.4503 56.1937 63.6781C56.221 63.7382 56.241 63.8013 56.2532 63.8661C56.2595 63.9068 56.2626 63.9319 56.2563 63.9319Z" fill="#263238"/>
<path d="M63.8946 64.6368C63.861 64.5146 63.8369 64.39 63.8225 64.264C63.754 63.9187 63.7319 63.5657 63.7567 63.2145C63.8272 62.6741 64.0964 62.1793 64.5118 61.8265C64.7687 61.6152 65.0908 61.4989 65.4235 61.4976C65.6048 61.4955 65.7844 61.5328 65.95 61.6069C66.1155 61.681 66.2629 61.7902 66.3822 61.9268L66.2443 62.0083L65.9467 61.2595C65.3608 59.7838 64.8407 58.4398 64.471 57.4717L64.0418 56.3156C63.9822 56.1776 63.937 56.0337 63.9071 55.8864C63.9842 56.0159 64.0492 56.1522 64.1013 56.2937C64.2267 56.607 64.3865 56.9735 64.5807 57.431C64.9786 58.3928 65.5206 59.7243 66.1002 61.1905L66.3947 61.9425L66.5858 62.425L66.2725 62.0208C66.169 61.9008 66.0405 61.8049 65.896 61.74C65.7515 61.675 65.5944 61.6426 65.436 61.6448C65.1378 61.6429 64.848 61.7436 64.6152 61.9299C64.2236 62.2573 63.9624 62.7141 63.8789 63.2176C63.8452 63.5607 63.8515 63.9067 63.8977 64.2484C63.9126 64.3775 63.9115 64.508 63.8946 64.6368Z" fill="#263238"/>
<path d="M69.7063 65.4138C69.7501 65.4138 70.4582 70.1697 71.2884 76.0503C72.1187 81.931 72.7515 86.7025 72.7077 86.7025C72.6638 86.7025 71.9558 81.9466 71.1255 76.0503C70.2953 70.154 69.6624 65.4201 69.7063 65.4138Z" fill="#263238"/>
<g opacity="0.3">
<path d="M52.7975 61.6573C52.8356 62.8756 53.1002 64.0762 53.5776 65.1976C53.9191 64.7747 54.2982 64.3298 54.8308 64.2045C55.4762 64.051 56.131 64.4488 56.5978 64.9376C56.517 64.4489 56.3239 63.9857 56.0339 63.5841C55.8891 63.3868 55.7006 63.2256 55.4833 63.1131C55.2659 63.0006 55.0254 62.9398 54.7807 62.9356C54.5368 62.9413 54.3017 63.0283 54.1128 63.1826C53.9238 63.337 53.7917 63.5499 53.7374 63.7878L52.8382 61.6793" fill="black"/>
</g>
<path d="M47.5059 65.1005C47.4777 65.1005 47.4871 64.7716 47.3931 64.2609C47.2643 63.5955 47.0056 62.962 46.6318 62.3967C46.4212 62.0907 46.1809 61.8063 45.9143 61.5477C45.6934 61.3385 45.4532 61.1508 45.1968 60.9869C44.7551 60.7081 44.4449 60.6015 44.4575 60.5733C44.5343 60.5789 44.6096 60.598 44.6799 60.6297C44.7676 60.6533 44.8526 60.6859 44.9337 60.7269C45.042 60.7734 45.1467 60.8278 45.247 60.8898C45.5195 61.0438 45.7747 61.2265 46.0083 61.4349C46.2893 61.6967 46.5404 61.9888 46.7571 62.3059C47.1454 62.8878 47.3981 63.5495 47.4965 64.2421C47.5277 64.4494 47.5382 64.6593 47.5278 64.8687C47.5278 65.0191 47.5184 65.1005 47.5059 65.1005Z" fill="#263238"/>
<path d="M65.6929 42.7591C65.514 41.0815 64.71 39.5327 63.4409 38.421C62.1719 37.3093 60.5308 36.7161 58.8442 36.7595H58.4964C54.7525 37.0728 52.9291 40.4282 53.3489 44.1596L54.3765 57.2868L54.812 57.8195C55.7897 59.0205 57.1372 59.8645 58.6446 60.2198C60.152 60.5751 61.7346 60.4218 63.1458 59.7838L62.8576 55.5606C62.8576 55.5606 66.448 54.9089 66.3978 51.306C66.3759 49.5577 66.0376 45.9799 65.6929 42.7591Z" fill="#FFBE9D"/>
<path d="M62.8858 55.5511C61.2141 55.5977 59.5644 55.1626 58.133 54.2979C58.133 54.2979 59.3079 56.8639 62.8951 56.4472L62.8858 55.5511Z" fill="#62CF3A"/>
<path d="M64.5525 45.7229C64.5561 45.8567 64.5079 45.9868 64.4181 46.086C64.3282 46.1852 64.2035 46.2459 64.07 46.2555C64.0047 46.262 63.9388 46.2554 63.8761 46.2362C63.8133 46.2169 63.755 46.1854 63.7046 46.1434C63.6542 46.1014 63.6126 46.0498 63.5823 45.9916C63.552 45.9334 63.5335 45.8698 63.528 45.8044C63.5237 45.6704 63.5715 45.5399 63.6616 45.4405C63.7516 45.3412 63.8767 45.2807 64.0105 45.2718C64.0759 45.2649 64.142 45.2712 64.2049 45.2903C64.2678 45.3093 64.3262 45.3408 64.3768 45.3829C64.4273 45.425 64.4689 45.4767 64.4991 45.5351C64.5293 45.5935 64.5474 45.6574 64.5525 45.7229Z" fill="#263238"/>
<path d="M64.7812 43.7648C64.7405 43.8275 64.3332 43.8714 63.8413 44.1345C63.3494 44.3977 63.0612 44.7267 62.9954 44.7204C62.9296 44.7141 62.9954 44.6295 63.1176 44.4823C63.305 44.2745 63.5277 44.1016 63.7755 43.9716C64.012 43.8395 64.2714 43.7533 64.54 43.7178C64.7248 43.699 64.8031 43.7335 64.7812 43.7648Z" fill="#263238"/>
<path d="M59.3517 45.9955C59.3577 46.13 59.3104 46.2613 59.22 46.3611C59.1297 46.4608 59.0036 46.5208 58.8693 46.5281C58.8039 46.535 58.7378 46.5287 58.6749 46.5097C58.6119 46.4906 58.5535 46.4591 58.503 46.417C58.4524 46.375 58.4109 46.3232 58.3807 46.2648C58.3505 46.2064 58.3323 46.1425 58.3272 46.077C58.3229 45.943 58.3708 45.8125 58.4608 45.7131C58.5508 45.6137 58.6759 45.5532 58.8097 45.5444C58.8751 45.5375 58.9412 45.5438 59.0041 45.5628C59.067 45.5819 59.1255 45.6134 59.176 45.6555C59.2265 45.6975 59.2681 45.7493 59.2983 45.8077C59.3285 45.8661 59.3466 45.93 59.3517 45.9955Z" fill="#263238"/>
<path d="M59.2891 44.5199C59.217 44.5199 58.8818 44.3099 58.3492 44.1784C57.8166 44.0468 57.3748 44.075 57.3278 44.0311C57.2808 43.9872 57.3842 43.9684 57.5753 43.9528C57.8545 43.9351 58.1346 43.9615 58.4056 44.0311C58.6678 44.0934 58.9178 44.1993 59.1449 44.3444C59.2703 44.4447 59.3079 44.5136 59.2891 44.5199Z" fill="#263238"/>
<path d="M61.4446 48.8215C61.7349 48.7246 62.0357 48.6625 62.3406 48.6366C62.4816 48.6366 62.6132 48.5865 62.6351 48.4894C62.6439 48.3442 62.6079 48.1998 62.5317 48.0758L62.0837 47.0075C61.4571 45.4911 61.0122 44.241 61.0749 44.2191C61.1375 44.1972 61.7015 45.4034 62.3062 46.9197C62.4565 47.2957 62.6007 47.6529 62.7354 47.9944C62.8279 48.1624 62.8589 48.3574 62.8231 48.5458C62.8036 48.5963 62.7729 48.6417 62.7333 48.6786C62.6937 48.7155 62.6462 48.743 62.5944 48.7588C62.5172 48.783 62.4371 48.7967 62.3563 48.7995C62.0546 48.846 61.7482 48.8533 61.4446 48.8215Z" fill="#263238"/>
<path d="M59.2891 42.3832C59.2264 42.5304 58.6781 42.4333 58.0359 42.4772C57.3936 42.521 56.8485 42.6777 56.7827 42.5367C56.7451 42.4709 56.8453 42.3331 57.0615 42.1983C57.3523 42.0328 57.6771 41.936 58.0111 41.9154C58.3451 41.8948 58.6793 41.9508 58.9883 42.0793C59.1951 42.1889 59.3079 42.3111 59.2891 42.3832Z" fill="#263238"/>
<path d="M64.7687 42.5054C64.6465 42.6338 64.1703 42.5054 63.6001 42.5054C63.0299 42.5054 62.5443 42.6025 62.4315 42.4709C62.3813 42.4082 62.4565 42.2798 62.6664 42.1576C62.9559 42.0058 63.2797 41.9314 63.6063 41.9414C63.9356 41.9391 64.2598 42.0234 64.5462 42.1858C64.753 42.3142 64.8219 42.4458 64.7687 42.5054Z" fill="#263238"/>
<path d="M66.7425 39.5572C66.7107 39.3928 66.62 39.2456 66.4872 39.1434C66.3545 39.0413 66.189 38.9912 66.0219 39.0027C66.2019 38.9513 66.3701 38.8651 66.5169 38.7489C66.5899 38.69 66.6448 38.6118 66.6753 38.5231C66.7057 38.4344 66.7106 38.3389 66.6892 38.2476C66.5952 37.9688 66.2381 37.9093 65.9561 37.8309C65.586 37.7234 65.2578 37.5046 65.0162 37.2043C64.6747 36.772 64.5431 36.208 64.2455 35.7412C64.0532 35.4399 63.7959 35.1854 63.4923 34.9967C63.1888 34.8079 62.8467 34.6897 62.4914 34.6506C62.1361 34.6115 61.7766 34.6526 61.4392 34.7709C61.1019 34.8891 60.7954 35.0815 60.5423 35.3339C60.2658 35.0498 59.9256 34.8357 59.5498 34.7095C59.1739 34.5833 58.7734 34.5487 58.3815 34.6084C57.9896 34.6682 57.6176 34.8206 57.2965 35.053C56.9754 35.2855 56.7144 35.5912 56.5352 35.9449C56.0546 35.7444 55.5289 35.6769 55.0132 35.7493C54.4976 35.8218 54.0109 36.0315 53.6041 36.3566C53.1973 36.6818 52.8854 37.1102 52.7011 37.5973C52.5167 38.0843 52.4667 38.6119 52.5563 39.1249L54.7995 40.5002C54.8177 40.3296 54.8719 40.1648 54.9585 40.0167C55.0451 39.8686 55.1622 39.7406 55.302 39.6411C55.4417 39.5416 55.601 39.4729 55.7693 39.4395C55.9376 39.4062 56.1111 39.4089 56.2783 39.4476C56.955 39.6449 57.3873 40.4282 58.0891 40.4814C58.6374 40.5222 59.1042 40.0992 59.6337 39.9582C60.276 39.7859 60.9558 40.0428 61.5354 40.3687C62.115 40.6945 62.6696 41.1018 63.315 41.2647C64.0859 41.4192 64.886 41.3237 65.5989 40.9921C65.9155 40.8811 66.2041 40.7025 66.4448 40.4689C66.5635 40.3517 66.6525 40.2078 66.7042 40.0492C66.756 39.8906 66.7691 39.7219 66.7425 39.5572Z" fill="#263238"/>
<path d="M55.1786 39.4413L65.4548 39.3849C65.084 38.6943 64.5453 38.1081 63.8883 37.6806C62.5237 36.6834 60.8789 36.1428 59.1888 36.136C57.5127 36.136 54.1604 38.2884 52.9792 39.4758C52.0393 40.4157 52.0644 41.2271 52.0644 41.2271C51.9453 42.5618 52.7317 44.0468 53.0669 45.3533C53.2361 46.0237 53.5902 48.0539 53.5902 48.0539C54.1541 48.0382 54.3515 47.5808 54.2512 47.0231L54.0852 44.8301C54.6397 44.3674 55.0281 43.7366 55.1915 43.0332C55.3549 42.3298 55.2844 41.5923 54.9906 40.9326C54.8496 40.7384 54.5113 39.8329 55.1786 39.4413Z" fill="#263238"/>
<path d="M53.9379 44.6859C53.4147 42.8688 52.9322 40.9263 53.4899 39.1092H53.1766L53.0513 39.2C52.7616 39.1027 52.4484 39.1002 52.1572 39.1928C51.8659 39.2855 51.6118 39.4686 51.4316 39.7154C51.2515 39.9623 51.1546 40.2601 51.1552 40.5657C51.1557 40.8714 51.2536 41.1689 51.4346 41.4151C51.1291 41.4124 50.8332 41.5214 50.6024 41.7216C50.3716 41.9218 50.2219 42.1994 50.1814 42.5022C50.1825 42.9242 50.2984 43.3379 50.5167 43.699C50.7355 44.0612 50.8694 44.4682 50.9083 44.8896C50.9215 45.0994 50.8602 45.3071 50.7353 45.4762C50.6103 45.6452 50.4297 45.7648 50.2253 45.8138C50.3243 46.0275 50.494 46.2006 50.7057 46.3039C50.9174 46.4072 51.1582 46.4344 51.3876 46.3809C51.2413 46.738 50.9969 47.0465 50.6827 47.2706C51.3532 47.7281 52.2712 47.5839 52.998 47.2174C53.4489 47.036 53.8171 46.6946 54.0319 46.2587C54.2324 45.7543 54.082 45.1997 53.9379 44.6859Z" fill="#263238"/>
<path d="M53.7687 46.807C53.7061 46.7819 51.2623 46.1396 51.4158 48.599C51.5694 51.0584 54.0006 50.4099 54.0006 50.3378C54.0006 50.2658 53.7687 46.807 53.7687 46.807Z" fill="#FFBE9D"/>
<path d="M53.4116 49.4449C53.4116 49.4449 53.3708 49.4763 53.2988 49.5139C53.2014 49.5621 53.0893 49.5711 52.9855 49.5389C52.7192 49.4575 52.4779 49.0596 52.4403 48.6147C52.4214 48.4021 52.4503 48.188 52.5249 47.9881C52.5449 47.909 52.5839 47.836 52.6385 47.7754C52.6931 47.7148 52.7617 47.6684 52.8382 47.6403C52.8869 47.6252 52.9392 47.6272 52.9865 47.646C53.0339 47.6648 53.0733 47.6993 53.0983 47.7437C53.1359 47.8095 53.1202 47.8596 53.1359 47.8659C53.1515 47.8722 53.186 47.8189 53.1609 47.7187C53.1408 47.6601 53.1037 47.6089 53.0544 47.5714C53.0197 47.5472 52.9804 47.5302 52.9389 47.5216C52.8975 47.513 52.8547 47.5129 52.8132 47.5213C52.7134 47.5474 52.622 47.5986 52.5475 47.6698C52.4729 47.7411 52.4177 47.8301 52.3871 47.9286C52.2967 48.1487 52.2591 48.3869 52.2774 48.6241C52.3244 49.1191 52.5907 49.564 52.9667 49.6517C53.0334 49.6664 53.1026 49.6661 53.1692 49.651C53.2358 49.6358 53.2982 49.6061 53.352 49.564C53.4116 49.5045 53.421 49.4481 53.4116 49.4449Z" fill="#62CF3A"/>
<path d="M51.2153 44.7674C51.2153 44.7674 51.1464 44.6734 51.1683 44.4791C51.1946 44.3474 51.2494 44.2229 51.329 44.1147C51.4086 44.0064 51.5109 43.9169 51.6289 43.8525C51.9819 43.6845 52.366 43.5916 52.7568 43.58C52.9754 43.58 53.191 43.5284 53.3859 43.4293C53.5808 43.3302 53.7496 43.1864 53.8784 43.0098C54.083 42.6113 54.1513 42.1568 54.0726 41.7158C54.0131 41.3023 53.9034 40.9295 53.8502 40.6068C53.751 40.261 53.7564 39.8936 53.8659 39.5509C53.868 39.8966 53.9069 40.2411 53.9818 40.5786C54.0507 40.8919 54.1729 41.2584 54.2481 41.6939C54.3427 42.1757 54.2697 42.6754 54.0413 43.11C53.9054 43.3347 53.6996 43.5086 53.4554 43.605C53.2368 43.6862 53.008 43.7368 52.7756 43.7554C52.4051 43.7576 52.0383 43.8299 51.6947 43.9685C51.5871 44.0238 51.4915 44.0999 51.4136 44.1924C51.3356 44.2849 51.2767 44.3919 51.2404 44.5073C51.2263 44.5934 51.218 44.6802 51.2153 44.7674Z" fill="#455A64"/>
<path d="M50.6201 43.699C50.6201 43.699 50.5668 43.6301 50.5449 43.4766C50.5196 43.2601 50.5623 43.0411 50.6671 42.85C50.739 42.7142 50.8382 42.5947 50.9584 42.4991C51.099 42.3936 51.2602 42.3189 51.4315 42.2798C51.5977 42.2442 51.7559 42.1783 51.8983 42.0855C51.9613 42.0293 52.0106 41.9594 52.0427 41.8812C52.0747 41.8031 52.0885 41.7187 52.0832 41.6344C52.0832 41.4495 52.0612 41.2522 52.0675 41.0548C52.0701 40.8663 52.0911 40.6784 52.1302 40.494C52.1934 40.1823 52.3134 39.885 52.4842 39.6167C52.5385 39.5183 52.6166 39.435 52.7112 39.3743C52.8058 39.3135 52.9141 39.2774 53.0262 39.269C53.1891 39.269 53.258 39.3442 53.2518 39.3504C53.2455 39.3567 53.1703 39.3222 53.0325 39.3504C52.9383 39.3705 52.85 39.4121 52.7745 39.4719C52.6989 39.5316 52.6382 39.608 52.597 39.6951C52.4556 39.9579 52.3562 40.2412 52.3025 40.5347C52.2722 40.7085 52.2564 40.8846 52.2555 41.0611C52.2555 41.2428 52.2837 41.437 52.2743 41.6501C52.2789 41.7616 52.2578 41.8727 52.2127 41.9748C52.1676 42.0769 52.0997 42.1673 52.0142 42.2391C51.8525 42.3473 51.6701 42.4209 51.4785 42.4552C51.3358 42.4796 51.2 42.5342 51.0801 42.6152C50.9601 42.6962 50.8589 42.8019 50.783 42.9252C50.6543 43.1617 50.5976 43.4307 50.6201 43.699Z" fill="#455A64"/>
<path d="M65.0193 37.2043C65.035 37.2043 64.8345 37.3391 64.5118 37.1887C64.3301 37.0901 64.1711 36.9546 64.045 36.7908C63.8897 36.587 63.696 36.4156 63.4748 36.2864C63.1871 36.1246 62.8586 36.0501 62.5292 36.0718C62.1999 36.0935 61.884 36.2105 61.62 36.4086C61.3067 36.6279 61.0467 36.938 60.6801 37.1949C60.4938 37.3332 60.2802 37.4304 60.0535 37.48C59.819 37.5211 59.5777 37.4984 59.3549 37.4142C58.91 37.2545 58.5591 36.9819 58.1769 36.844C57.808 36.7024 57.4159 36.6312 57.0208 36.6341C56.3402 36.6333 55.6788 36.8593 55.141 37.2764C54.7818 37.557 54.4833 37.9077 54.2638 38.3071C54.1102 38.5922 54.0538 38.7677 54.0382 38.7614C54.0225 38.7552 54.0382 38.7144 54.0632 38.6299C54.0987 38.5079 54.1427 38.3885 54.1948 38.2727C54.3972 37.846 54.6914 37.4695 55.0564 37.1699C55.6063 36.7204 56.2919 36.4698 57.002 36.4587C57.4201 36.4478 57.8363 36.5191 58.227 36.6686C58.6405 36.819 58.9977 37.0915 59.4019 37.2325C59.5933 37.3063 59.8012 37.3268 60.0034 37.2921C60.1995 37.2471 60.3841 37.1617 60.5454 37.0414C60.8744 36.8064 61.1501 36.4963 61.4853 36.2644C61.7952 36.0323 62.1727 35.9079 62.5599 35.9104C62.8902 35.9128 63.2142 36.0014 63.4998 36.1673C63.7286 36.3132 63.9274 36.5014 64.0857 36.7219C64.1955 36.8828 64.3373 37.0194 64.5024 37.1229C64.6579 37.2154 64.8429 37.2445 65.0193 37.2043Z" fill="#455A64"/>
<path d="M60.0786 49.4669C60.1569 49.4669 60.2446 49.9744 60.7585 50.2721C61.2723 50.5697 61.8205 50.4193 61.8393 50.4914C61.8581 50.5634 61.7297 50.6167 61.4947 50.6606C61.1876 50.7176 60.8703 50.6643 60.5987 50.5102C60.3385 50.3596 60.1457 50.1153 60.0598 49.8272C60.0034 49.611 60.041 49.47 60.0786 49.4669Z" fill="#263238"/>
<path d="M92.4988 98.4199C91.545 97.6005 90.3072 97.1886 89.0525 97.2733L86.9346 104C88.4855 104.069 90.0332 104.868 91.5307 104.457C92.1288 104.273 92.6616 103.921 93.0663 103.444C93.471 102.966 93.7307 102.383 93.8147 101.763C93.8799 101.141 93.7943 100.512 93.5653 99.9306C93.3362 99.3487 92.9704 98.8306 92.4988 98.4199Z" fill="#62CF3A"/>
<path d="M89.0776 97.1197C89.0776 97.0665 89.3063 97.0226 89.7042 97.0257C90.2962 97.0366 90.882 97.1478 91.4367 97.3547C92.2844 97.685 93.0179 98.2542 93.5484 98.9933C93.8725 99.4316 94.1116 99.9268 94.2533 100.453C94.4067 101.029 94.4238 101.633 94.3034 102.217C94.1868 102.809 93.9228 103.362 93.5359 103.824C93.1653 104.246 92.6959 104.569 92.1699 104.764C91.3151 105.066 90.3934 105.126 89.5068 104.937C88.9363 104.825 88.3795 104.651 87.8463 104.42C87.4735 104.26 87.2761 104.141 87.2949 104.088C87.3137 104.034 87.5393 104.05 87.9215 104.116C88.3038 104.182 88.8834 104.304 89.5726 104.366C90.3543 104.453 91.1453 104.345 91.8754 104.053C92.2757 103.884 92.6301 103.622 92.9093 103.289C93.202 102.924 93.402 102.494 93.492 102.035C93.578 101.581 93.5716 101.113 93.4731 100.661C93.3746 100.209 93.186 99.7814 92.9187 99.4037C92.4869 98.7498 91.8933 98.2188 91.1955 97.8623C90.701 97.6289 90.1833 97.4483 89.6509 97.3234C89.2906 97.2419 89.0713 97.1761 89.0776 97.1197Z" fill="#F5F5F5"/>
<path d="M53.9316 87.8931C51.5004 87.9495 49.1945 88.291 47.5184 90.0548C45.2971 92.3952 42.5526 95.7256 42.3959 98.0346C42.1641 101.481 44.2475 102.515 45.7671 103.361C46.4392 103.724 47.1966 103.901 47.9601 103.871L76.0569 103.658L76.9372 98.8993L58.7659 94.4191L59.5209 87.5798L53.9316 87.8931Z" fill="#263238"/>
<path d="M59.5366 87.5766L68.3748 87.1693C68.3748 87.1693 83.645 88.0184 86.9002 91.0041C90.1553 93.9899 89.7512 97.3829 88.664 100.638C87.5769 103.893 78.0119 124.725 78.0119 124.725C78.0119 124.725 78.7888 126.05 78.3534 127.372C78.1771 127.951 77.8534 128.474 77.4141 128.891C76.9747 129.307 76.4347 129.602 75.847 129.747L67.3503 126.614C67.3503 126.614 66.1973 126.206 67.0119 125.119C67.8265 124.032 68.3685 123.832 68.3685 123.832V121.66C68.3685 121.66 71.3542 116.231 71.6237 115.485C71.8931 114.74 74.7567 103.693 74.7567 103.693L76.6584 100.425C76.6584 100.425 72.0623 98.2633 68.0771 96.6968L58.7721 94.4034L59.5366 87.5766Z" fill="#263238"/>
<path d="M81.22 97.455C81.22 97.48 80.9067 97.549 80.4149 97.7119C79.1268 98.1369 77.9599 98.8655 77.0124 99.8361C76.8275 100.049 76.632 100.253 76.4266 100.447C76.559 100.194 76.7279 99.9617 76.9278 99.7577C77.3836 99.243 77.9112 98.7966 78.4943 98.4325C79.0771 98.0656 79.7104 97.7859 80.3741 97.6022C80.647 97.5107 80.9322 97.461 81.22 97.455Z" fill="#455A64"/>
<path d="M72.5416 112.205C72.5453 112.142 72.5569 112.08 72.5761 112.02L72.7077 111.503L73.2152 109.608L74.9541 103.37C75.3081 102.151 75.6088 100.992 75.9503 99.9394C76.3109 99.0247 76.8559 98.1939 77.5513 97.4988C78.0104 97.028 78.5188 96.6078 79.0677 96.2456C79.2651 96.1203 79.4186 96.0263 79.5282 95.9699C79.5808 95.9366 79.6364 95.9083 79.6943 95.8853C79.6943 95.8853 79.4812 96.0295 79.1053 96.2958C78.5745 96.6747 78.0814 97.1038 77.6328 97.5772C76.9619 98.2694 76.4376 99.0899 76.0913 99.9896C75.778 101.027 75.4647 102.201 75.1107 103.414L73.328 109.636C73.0962 110.416 72.9051 111.052 72.7672 111.516C72.7014 111.723 72.6513 111.892 72.6074 112.023C72.5938 112.087 72.5717 112.148 72.5416 112.205Z" fill="#455A64"/>
<path d="M64.7248 96.2926C64.6778 96.2926 64.493 94.6447 64.3081 92.602C64.1233 90.5593 63.9948 88.8988 64.0575 88.8956C64.1201 88.8925 64.2862 90.5436 64.471 92.5863C64.6559 94.629 64.7687 96.2895 64.7248 96.2926Z" fill="#455A64"/>
<path d="M50.0123 100.72C49.9872 100.72 49.8525 100.466 49.5736 100.074C49.2137 99.5648 48.7821 99.11 48.2922 98.7238C47.7986 98.3426 47.2532 98.0335 46.6725 97.8059C46.2245 97.6304 45.9331 97.5646 45.9394 97.5364C46.2031 97.5488 46.4632 97.6027 46.7101 97.6962C47.9353 98.1002 48.9819 98.9176 49.6708 100.008C49.8229 100.225 49.9382 100.465 50.0123 100.72Z" fill="#455A64"/>
<path d="M55.4261 94.7042C55.4261 94.7293 55.0376 94.4912 54.3891 94.1935C52.6875 93.4206 50.8001 93.151 48.9502 93.4166C48.2453 93.5168 47.816 93.6421 47.8098 93.6139C47.9009 93.5624 47.9991 93.5244 48.1011 93.5011C48.3734 93.4169 48.6507 93.35 48.9314 93.3006C50.8025 92.9723 52.7296 93.2488 54.4329 94.0901C54.6883 94.2162 54.9352 94.3585 55.1723 94.5162C55.2652 94.5668 55.3506 94.6301 55.4261 94.7042Z" fill="#455A64"/>
<path d="M76.5926 98.8899C76.5172 98.8861 76.4426 98.8735 76.3702 98.8523L75.7436 98.7176L73.4565 98.2132C71.5234 97.7808 68.8478 97.1981 65.8809 96.6122C62.9139 96.0263 60.2196 95.5407 58.2677 95.2055L55.9524 94.8076L55.3258 94.6979C55.2518 94.6892 55.1792 94.6713 55.1096 94.6447C55.1841 94.6467 55.2584 94.653 55.3321 94.6635L55.9587 94.7449C56.507 94.8201 57.2996 94.9392 58.2802 95.0927C60.2384 95.406 62.939 95.8634 65.9091 96.4524C68.8792 97.0414 71.5485 97.6398 73.4784 98.1004C74.4402 98.3322 75.2204 98.5265 75.7561 98.6674L76.3827 98.8304C76.4543 98.8438 76.5246 98.8638 76.5926 98.8899Z" fill="#455A64"/>
<path d="M58.7815 95.2212C58.7502 95.2212 58.6844 94.8515 58.393 94.3251C58.2225 94.0214 58.0118 93.7421 57.7664 93.4949C57.457 93.1901 57.1284 92.9055 56.7827 92.6427C56.1456 92.172 55.4719 91.753 54.7682 91.3895C54.4704 91.2479 54.1835 91.0845 53.9097 90.9008C54.225 91.0004 54.5302 91.1295 54.8214 91.2861C55.5485 91.6232 56.2392 92.0337 56.8829 92.5111C57.2334 92.7785 57.5642 93.0706 57.873 93.3852C58.1246 93.6458 58.3358 93.9425 58.4996 94.2656C58.6121 94.4841 58.6974 94.7156 58.7533 94.9549C58.7791 95.0411 58.7887 95.1314 58.7815 95.2212Z" fill="#455A64"/>
<path d="M90.077 99.4664C90.1115 99.504 89.6415 99.977 89.275 100.701C88.9084 101.424 88.7894 102.076 88.7424 102.067C88.7413 101.56 88.8754 101.063 89.1309 100.626C89.3386 100.163 89.665 99.7626 90.077 99.4664Z" fill="#263238"/>
<g opacity="0.3">
<path d="M69.9663 67.3657L71.9777 81.5331L72.078 81.7587C72.5497 76.8608 71.825 71.9217 69.9663 67.3657Z" fill="black"/>
</g>
<path d="M80.7971 75.5052L74.2585 86.9344L58.1455 87.2853L58.1048 88.0153L73.7071 87.8993L74.2021 87.8805L90.6754 87.915L94.0058 82.1722L98.2604 76.0754C98.322 75.9849 98.3577 75.8794 98.3637 75.7701C98.3697 75.6609 98.3458 75.552 98.2946 75.4554C98.2433 75.3587 98.1667 75.2778 98.0729 75.2214C97.9791 75.1651 97.8717 75.1354 97.7623 75.1355L81.3172 75.1982C81.2111 75.199 81.1071 75.2278 81.0158 75.2817C80.9245 75.3356 80.849 75.4127 80.7971 75.5052Z" fill="#E0E0E0"/>
<path d="M94.0058 82.1816C94.0058 82.1816 94.8517 82.9586 94.7201 83.6165C94.5885 84.2745 94.6293 84.7663 94.0058 84.8102C94.0174 85.0509 93.9361 85.2869 93.7787 85.4694C93.6213 85.652 93.3997 85.767 93.1599 85.7908C93.1599 85.7908 93.351 86.8247 92.1479 87.0033C92.1479 87.0033 91.7782 88.1092 91.0201 87.8398C90.5831 87.6912 90.163 87.497 89.7669 87.2602L89.5444 86.8592C89.5444 86.8592 88.4259 86.4394 88.7016 85.8096C88.8708 85.4274 89.4473 85.3271 89.4473 85.3271C89.3809 85.1702 89.3529 84.9997 89.3654 84.8297C89.3779 84.6597 89.4307 84.4952 89.5194 84.3496C89.7857 83.9894 90.6566 84.287 90.6566 84.287C90.6386 83.9784 90.737 83.6743 90.9323 83.4348C91.2456 83.0808 92.6179 84.0363 92.6179 84.0363L93.3729 83.134L94.0058 82.1816Z" fill="#FFBE9D"/>
<path d="M92.1479 87.0033C91.6594 86.7953 91.1934 86.5381 90.7569 86.2357C90.292 85.9791 89.8552 85.6746 89.4536 85.3271C89.9417 85.5372 90.4077 85.7953 90.8446 86.0979C91.3084 86.3551 91.7451 86.6584 92.1479 87.0033Z" fill="#62CF3A"/>
<path d="M93.1599 85.7908C92.7054 85.6122 92.2725 85.3831 91.8691 85.1078C91.438 84.8795 91.0335 84.6042 90.6629 84.287C91.1181 84.4641 91.5512 84.6933 91.9537 84.97C92.3848 85.1984 92.7893 85.4737 93.1599 85.7908Z" fill="#62CF3A"/>
<path d="M91.7814 83.5225C91.8064 83.4755 92.3234 83.7481 92.9249 84.1303C93.2978 84.3456 93.6567 84.5842 93.9995 84.8447C93.9776 84.8979 93.4387 84.6536 92.8372 84.2682C92.46 84.0575 92.1061 83.8076 91.7814 83.5225Z" fill="#62CF3A"/>
<path d="M98.2604 75.5741C98.2345 75.5783 98.208 75.5783 98.1821 75.5741H97.9503H97.0605L93.7896 75.5992L82.9965 75.6243H82.2101C82.0942 75.6132 81.9775 75.6336 81.8722 75.6832C81.7669 75.7328 81.6769 75.8099 81.6117 75.9062C81.361 76.3532 81.1167 76.7939 80.8786 77.2284L79.4875 79.7348L77.1284 83.9737C76.4579 85.1705 75.9096 86.1417 75.5243 86.8279C75.3394 87.1412 75.189 87.4106 75.0825 87.5986L74.9635 87.796L74.9196 87.8617C74.9196 87.8617 74.9196 87.8335 74.9478 87.7866L75.0543 87.5798L75.471 86.7965L77.0375 83.9173L79.3685 79.6596C79.8071 78.8606 80.2708 78.021 80.747 77.1532L81.4832 75.8216C81.5635 75.7024 81.6739 75.6066 81.8032 75.5439C81.9326 75.4812 82.0762 75.4538 82.2195 75.4645H83.0059L93.799 75.4864L97.0699 75.5146L97.9597 75.5303H98.1915C98.2167 75.541 98.24 75.5558 98.2604 75.5741Z" fill="#263238"/>
<path d="M86.6683 81.3232C86.5923 81.4333 86.5496 81.5629 86.5454 81.6967C86.5412 81.8304 86.5757 81.9625 86.6447 82.0771C86.7137 82.1918 86.8143 82.2841 86.9344 82.343C87.0545 82.4019 87.1891 82.4249 87.322 82.4092C87.4549 82.3935 87.5804 82.3399 87.6836 82.2547C87.7867 82.1695 87.8631 82.0563 87.9036 81.9288C87.944 81.8013 87.9468 81.6648 87.9117 81.5357C87.8765 81.4066 87.8049 81.2904 87.7053 81.201C87.5512 81.0807 87.3559 81.0261 87.1617 81.049C86.9676 81.0719 86.7903 81.1704 86.6683 81.3232Z" fill="white"/>
<g opacity="0.3">
<path d="M40.9266 76.9088C40.7887 76.9652 40.629 77.0592 40.629 77.2221C40.6339 77.2826 40.6592 77.3397 40.7008 77.3841C40.7423 77.4285 40.7976 77.4575 40.8577 77.4665C41.0875 77.4339 41.3126 77.3739 41.5281 77.2879C43.2231 76.9151 44.6173 77.2722 46.2276 77.9145L46.2809 77.8612C45.6417 76.4733 42.75 76.1663 40.9266 76.9088Z" fill="black"/>
</g>
<path d="M32.1636 40.6318C32.2168 40.6851 42.6215 37.1103 42.6215 37.1103L38.6113 27.9307L29.3596 31.4803L34.4538 34.4066L32.1636 40.6318Z" fill="#455A64"/>
<path d="M37.0448 30.6939V18.1964C37.0448 18.1964 51.3971 15.571 61.7391 15.7276C72.0811 15.8843 82.7302 17.5792 82.7302 17.5792V29.5786C82.7302 29.5786 50.3162 26.6837 37.0448 30.6939Z" fill="#455A64"/>
<path d="M36.9696 30.7065L42.609 37.1636V29.5786C42.609 29.5786 37.8938 30.1426 36.9696 30.7065Z" fill="#263238"/>
<path d="M37.0448 18.1933C37.0918 18.1933 37.1106 21.013 37.0918 24.4593C37.073 27.9056 37.0166 30.7253 36.9727 30.7253C36.9289 30.7253 36.9069 27.9244 36.9257 24.4593C36.9445 20.9942 36.9978 18.1933 37.0448 18.1933Z" fill="#263238"/>
<path d="M87.5863 39.6731C87.533 39.7264 77.1284 36.1516 77.1284 36.1516L81.1292 26.9688L90.3903 30.5122L85.2929 33.4384L87.5863 39.6731Z" fill="#455A64"/>
<path d="M82.7865 29.7478L77.1472 36.2049V29.1682C79.0379 29.2329 80.9221 29.4266 82.7865 29.7478Z" fill="#263238"/>
<path d="M82.7239 17.5792C82.7677 17.5792 82.8179 20.3018 82.8335 23.6635C82.8492 27.0252 82.8335 29.7478 82.7803 29.7478C82.727 29.7478 82.6863 27.0252 82.6706 23.6635C82.655 20.3018 82.6769 17.5792 82.7239 17.5792Z" fill="#263238"/>
<path d="M45.1373 23.676C45.1077 23.3162 45.1849 22.9557 45.3591 22.6395C45.5334 22.3233 45.7969 22.0655 46.1169 21.8984C46.4369 21.7312 46.799 21.6621 47.1581 21.6996C47.5171 21.7372 47.8572 21.8798 48.1356 22.1095L47.697 22.6359C47.5789 22.5281 47.4385 22.4478 47.2858 22.4007C47.133 22.3536 46.9717 22.3408 46.8135 22.3633C46.5326 22.4024 46.2788 22.5514 46.1078 22.7776C45.9368 23.0038 45.8627 23.2887 45.9018 23.5695C45.9408 23.8504 46.0899 24.1042 46.3161 24.2752C46.5423 24.4462 46.8271 24.5203 47.108 24.4812C47.2673 24.4603 47.4198 24.4038 47.5543 24.3159C47.6888 24.2281 47.8018 24.1111 47.885 23.9737L48.4364 24.359C48.2321 24.6562 47.9447 24.8866 47.6101 25.0212C47.2755 25.1558 46.9086 25.1887 46.5554 25.1158C46.2022 25.0429 45.8784 24.8674 45.6245 24.6113C45.3705 24.3552 45.1978 24.0298 45.1279 23.676H45.1373Z" fill="white"/>
<path d="M48.5554 23.2061C48.4971 22.8444 48.5487 22.4735 48.7036 22.1414C48.8585 21.8094 49.1094 21.5315 49.4241 21.3437C49.7387 21.1559 50.1024 21.0669 50.4682 21.0882C50.8339 21.1096 51.1849 21.2402 51.4756 21.4632C51.7662 21.6863 51.9833 21.9914 52.0985 22.3392C52.2138 22.687 52.222 23.0614 52.1221 23.4139C52.0221 23.7664 51.8187 24.0807 51.538 24.3163C51.2574 24.5518 50.9125 24.6977 50.548 24.735C50.3159 24.772 50.0787 24.7613 49.8508 24.7036C49.623 24.6459 49.4093 24.5423 49.2228 24.3992C49.0363 24.2561 48.8809 24.0765 48.7662 23.8714C48.6515 23.6662 48.5797 23.4399 48.5554 23.2061ZM51.4096 22.9116C51.3841 22.7083 51.2994 22.517 51.1659 22.3616C51.0324 22.2062 50.8562 22.0935 50.6591 22.0376C50.462 21.9817 50.2528 21.985 50.0576 22.0472C49.8624 22.1094 49.6898 22.2278 49.5614 22.3874C49.433 22.547 49.3545 22.741 49.3355 22.9449C49.3166 23.1489 49.3582 23.354 49.4551 23.5345C49.5519 23.715 49.6998 23.8631 49.8802 23.9601C50.0607 24.0571 50.2657 24.0989 50.4697 24.0802C50.6104 24.0709 50.7476 24.0326 50.8727 23.9675C50.9977 23.9025 51.1079 23.8122 51.1963 23.7023C51.2846 23.5925 51.3492 23.4654 51.3859 23.3293C51.4227 23.1932 51.4307 23.051 51.4096 22.9116Z" fill="white"/>
<path d="M55.9399 24.2494L55.8052 22.2505L54.9311 23.9612L54.5864 23.9831L53.5056 22.4417L53.634 24.3966L52.9103 24.4436L52.7098 21.1133L53.3364 21.0725L54.7149 23.062L55.8083 20.9159L56.4349 20.8752L56.6605 24.2024L55.9399 24.2494Z" fill="white"/>
<path d="M60.254 21.9686C60.2728 22.7142 59.7277 23.1904 58.8379 23.2218L58.1643 23.2406L58.1925 24.1617L57.4187 24.1836L57.3247 20.8282L58.769 20.7874C59.6619 20.7749 60.229 21.2229 60.254 21.9686ZM59.4708 21.9905C59.4708 21.6239 59.217 21.4172 58.7439 21.4297L58.1173 21.4485L58.1518 22.6077L58.7784 22.5889C59.2483 22.5764 59.4802 22.3539 59.4708 21.9905Z" fill="white"/>
<path d="M60.8556 20.7561H61.6263V23.463H63.2993V24.0896H60.8556V20.7561Z" fill="white"/>
<path d="M66.2913 23.5601V24.1867L63.7066 24.1115L63.8037 20.7749L66.3101 20.8501L66.2913 21.4767L64.5368 21.4234L64.518 22.1503L66.0657 22.1941L66.047 22.7957L64.4993 22.7487L64.4773 23.5225L66.2913 23.5601Z" fill="white"/>
<path d="M67.72 21.5487L66.6547 21.4861L66.6923 20.8595L69.5935 21.0349L69.5559 21.6615L68.4907 21.5957L68.3278 24.2995L67.557 24.2525L67.72 21.5487Z" fill="white"/>
<path d="M72.4038 24.0175L72.3474 24.6441L69.7721 24.406L70.0854 21.0851L72.5918 21.3169L72.5354 21.9435L70.7872 21.768L70.7214 22.4918L72.2628 22.6328L72.2095 23.2312L70.665 23.0902L70.596 23.8578L72.4038 24.0175Z" fill="white"/>
<path d="M73.3688 21.3889L74.8695 21.5895C75.9503 21.7336 76.6051 22.4824 76.4736 23.4693C76.342 24.4561 75.5086 25.0358 74.4277 24.8791L72.927 24.6786L73.3688 21.3889ZM74.4747 24.2619C74.6111 24.2838 74.7504 24.2781 74.8846 24.2453C75.0187 24.2124 75.1449 24.153 75.2557 24.0705C75.3665 23.9881 75.4597 23.8843 75.5297 23.7652C75.5997 23.6462 75.6452 23.5143 75.6634 23.3774C75.6816 23.2405 75.6722 23.1013 75.6358 22.9681C75.5993 22.8349 75.5365 22.7104 75.4511 22.6018C75.3657 22.4933 75.2594 22.4029 75.1386 22.3361C75.0177 22.2693 74.8846 22.2274 74.7473 22.2129L74.0486 22.1189L73.776 24.1679L74.4747 24.2619Z" fill="white"/>
<path d="M89.1434 18.7165L89.9643 19.6783L92.2764 18.7165L91.5997 17.7045L89.1434 18.7165Z" fill="#455A64"/>
<path d="M88.0845 14.1392C88.0845 14.3771 88.0139 14.6097 87.8817 14.8076C87.7495 15.0054 87.5616 15.1596 87.3418 15.2507C87.1219 15.3417 86.8801 15.3656 86.6467 15.3192C86.4133 15.2727 86.1989 15.1581 86.0307 14.9899C85.8624 14.8216 85.7479 14.6073 85.7014 14.3739C85.655 14.1405 85.6788 13.8986 85.7699 13.6788C85.861 13.459 86.0152 13.2711 86.213 13.1389C86.4108 13.0067 86.6434 12.9361 86.8814 12.9361C87.2002 12.937 87.5057 13.064 87.7312 13.2894C87.9566 13.5149 88.0836 13.8204 88.0845 14.1392Z" fill="#62CF3A"/>
<path d="M61.1344 32.085C61.1338 32.2042 61.0977 32.3206 61.0308 32.4193C60.9639 32.518 60.8692 32.5946 60.7587 32.6393C60.6482 32.6841 60.5268 32.695 60.4101 32.6707C60.2934 32.6463 60.1865 32.5879 60.1031 32.5027C60.0197 32.4175 59.9635 32.3094 59.9416 32.1922C59.9197 32.075 59.9331 31.9539 59.9802 31.8444C60.0273 31.7348 60.1058 31.6417 60.2059 31.5769C60.306 31.5121 60.4231 31.4785 60.5423 31.4803C60.7007 31.4828 60.8518 31.5477 60.9627 31.6609C61.0735 31.7741 61.1353 31.9265 61.1344 32.085Z" fill="#62CF3A"/>
<path d="M33.1098 23.0432C33.1098 23.1339 33.0828 23.2226 33.0322 23.298C32.9817 23.3733 32.9099 23.4319 32.8259 23.4663C32.742 23.5008 32.6497 23.5095 32.5608 23.4913C32.4719 23.4731 32.3904 23.4289 32.3267 23.3643C32.263 23.2997 32.2199 23.2177 32.203 23.1285C32.186 23.0394 32.196 22.9472 32.2316 22.8638C32.2672 22.7803 32.3268 22.7093 32.4028 22.6598C32.4788 22.6103 32.5679 22.5845 32.6586 22.5858C32.7788 22.5874 32.8936 22.6363 32.978 22.7219C33.0624 22.8075 33.1098 22.9229 33.1098 23.0432Z" fill="#62CF3A"/>
<path d="M31.4117 18.0084L32.7589 18.0899L33.398 15.4394L32.1385 15.4927L31.4117 18.0084Z" fill="#455A64"/>
<path d="M73.5192 39.1656L73.9734 40.4376L76.6616 39.9864L76.1195 38.8492L73.5192 39.1656Z" fill="#62CF3A"/>
<path d="M46.331 31.825L45.5008 32.8902L47.321 34.9172L47.9915 33.8489L46.331 31.825Z" fill="#455A64"/>
<path d="M43.1134 6.80173L46.2934 10.0444L50.7705 8.35256L50.949 9.46477L49.0097 13.4343L50.7987 16.3981L50.6483 17.2847L46.3153 16.5547L43.7526 19.365L43.151 18.9108L42.6215 15.336L38.58 13.2306L38.4014 12.4129L42.4712 11.3007L43.1134 6.80173Z" fill="#62CF3A"/>
<g opacity="0.3">
<path d="M43.1134 6.80173L46.2934 10.0444L50.7705 8.35256L50.949 9.46477L49.0097 13.4343L50.7987 16.3981L50.6483 17.2847L46.3153 16.5547L43.7526 19.365L43.151 18.9108L42.6215 15.336L38.58 13.2306L38.4014 12.4129L42.4712 11.3007L43.1134 6.80173Z" fill="black"/>
</g>
<path d="M43.1134 5.89005L46.2934 9.13583L50.7705 8.35258L48.6682 12.3816L50.7987 16.3981L46.3153 15.6462L43.151 18.9108L42.4837 14.4149L38.4014 12.4129L42.4712 10.389L43.1134 5.89005Z" fill="#62CF3A"/>
<path d="M76.0882 6.80173L72.9051 10.0444L68.428 8.35256L68.2495 9.46477L70.1888 13.4343L68.3998 16.3981L68.5502 17.2847L72.8832 16.5547L75.4459 19.365L76.0475 18.9108L76.577 15.336L80.6185 13.2306L80.7971 12.4129L76.7273 11.3007L76.0882 6.80173Z" fill="#62CF3A"/>
<g opacity="0.3">
<path d="M76.0882 6.80173L72.9051 10.0444L68.428 8.35256L68.2495 9.46477L70.1888 13.4343L68.3998 16.3981L68.5502 17.2847L72.8832 16.5547L75.4459 19.365L76.0475 18.9108L76.577 15.336L80.6185 13.2306L80.7971 12.4129L76.7273 11.3007L76.0882 6.80173Z" fill="black"/>
</g>
<path d="M76.0882 5.89005L72.9051 9.13583L68.428 8.35258L70.5303 12.3816L68.3998 16.3981L72.8832 15.6462L76.0475 18.9108L76.7148 14.4149L80.7971 12.4129L76.7274 10.389L76.0882 5.89005Z" fill="#62CF3A"/>
<path d="M59.4959 1.10907L62.1433 6.28165L68.2495 5.92135L68.0427 7.34373L64.164 11.4511L65.2136 15.7464L64.6966 16.7709L59.687 14.2301L55.4919 16.6863L54.9311 15.8999L55.6454 11.3352L51.5161 7.22781L51.6101 6.16573L56.9989 6.35684L59.4959 1.10907Z" fill="#62CF3A"/>
<g opacity="0.3">
<path d="M59.4959 1.10907L62.1433 6.28165L68.2495 5.92135L68.0427 7.34373L64.164 11.4511L65.2136 15.7464L64.6966 16.7709L59.687 14.2301L55.4919 16.6863L54.9311 15.8999L55.6454 11.3352L51.5161 7.22781L51.6101 6.16573L56.9989 6.35684L59.4959 1.10907Z" fill="black"/>
</g>
<path d="M59.8405 0L62.4879 5.16944L68.2495 5.92136L64.1484 10.0381L65.2136 15.7464L60.0347 13.121L54.9311 15.9L55.8303 10.1603L51.6101 6.16574L57.3466 5.24464L59.8405 0Z" fill="#62CF3A"/>
<path d="M70.3893 46.4028L74.8131 46.8915C76.3066 44.7772 78.537 43.2978 81.0658 42.7443C83.5946 42.1907 86.239 42.603 88.4793 43.9C90.7196 45.1971 92.3938 47.2852 93.1728 49.7539C93.9518 52.2226 93.7793 54.8934 92.6893 57.2414C91.5992 59.5894 89.6704 61.4448 87.2819 62.4429C84.8934 63.4411 82.2179 63.5098 79.7813 62.6356C77.3446 61.7614 75.3231 60.0075 74.1139 57.7186C72.9047 55.4296 72.5953 52.7712 73.2466 50.2658L70.3893 46.4028Z" fill="#FAFAFA"/>
<path d="M70.3893 46.4028C70.5616 46.6347 71.4576 47.8189 73.2873 50.247H73.2215C73.2237 50.2418 73.2271 50.2373 73.2313 50.2336C73.2356 50.2299 73.2406 50.2272 73.246 50.2257C73.2514 50.2242 73.2571 50.2239 73.2626 50.2249C73.2681 50.2259 73.2733 50.2281 73.2779 50.2313C73.2853 50.2357 73.291 50.2423 73.2944 50.2502C73.2978 50.2581 73.2986 50.2668 73.2967 50.2752C72.8483 52.0328 72.872 53.8777 73.3656 55.6232C73.5105 56.147 73.7024 56.6566 73.939 57.1459C74.0643 57.3965 74.1833 57.6534 74.3181 57.9072L74.7849 58.6497C76.2756 60.8106 78.5306 62.3255 81.0947 62.8886C82.5141 63.2006 83.9837 63.207 85.4057 62.9074C86.9048 62.5812 88.3136 61.9287 89.5319 60.9963C90.8079 60.0273 91.8337 58.7673 92.5239 57.3213C93.2385 55.851 93.5908 54.231 93.5515 52.5967C93.5059 51.0333 93.1097 49.5001 92.3923 48.1103C91.7176 46.7928 90.7614 45.6397 89.5914 44.7329C87.484 43.104 84.8318 42.3459 82.1819 42.615C81.0622 42.7494 79.9691 43.0515 78.9392 43.5111C77.3007 44.2683 75.8889 45.4413 74.8444 46.9135C74.8412 46.9195 74.836 46.9243 74.8298 46.9271C74.8236 46.9299 74.8166 46.9307 74.8099 46.9292L70.3893 46.4028L74.8193 46.8508L74.7817 46.8696C75.823 45.3775 77.2414 44.1883 78.8922 43.4233C79.9272 42.9464 81.0293 42.6315 82.16 42.4897C84.8462 42.2053 87.5388 42.9659 89.6791 44.6139C90.8693 45.5314 91.8418 46.7008 92.527 48.0382C93.2596 49.4481 93.6634 51.0055 93.7082 52.5936C93.7494 54.2536 93.3928 55.8994 92.668 57.3934C91.9656 58.8617 90.9226 60.141 89.6259 61.1248C88.3876 62.07 86.9564 62.7311 85.4339 63.061C83.9867 63.3654 82.491 63.3558 81.0477 63.0328C78.4563 62.4615 76.1792 60.9259 74.6784 58.7374L74.2084 57.9855C74.0737 57.7286 73.9546 57.4654 73.8262 57.2117C73.5905 56.7159 73.3997 56.2 73.256 55.6702C72.7646 53.9061 72.7516 52.0429 73.2184 50.2721L73.2936 50.3003C73.2878 50.3094 73.2788 50.316 73.2684 50.3189C73.258 50.3218 73.2469 50.3207 73.2372 50.3159L70.3893 46.4028Z" fill="#263238"/>
<path d="M79.4656 49.163C79.4691 49.211 79.4691 49.2591 79.4656 49.3071C79.4656 49.4105 79.4656 49.5421 79.4656 49.7081C79.4656 50.0716 79.4656 50.576 79.4844 51.2151C79.4844 52.5153 79.5063 54.3481 79.522 56.5412L79.4499 56.4691H86.8218C86.8406 56.4503 86.6683 56.6226 86.7404 56.5475V55.5449C86.7404 55.2159 86.7404 54.887 86.7404 54.5611V52.6531C86.7404 51.4187 86.7404 50.2501 86.7404 49.1755L86.8093 49.2476L81.4832 49.21L79.9762 49.1943H79.5752H79.4311H79.5596H79.9481L81.4362 49.1755L86.803 49.1411H86.8751V49.21C86.8751 50.2846 86.8751 51.4532 86.8751 52.6876V56.5443C86.9503 56.4723 86.778 56.6477 86.7937 56.6289H79.4217H79.3496V56.5443C79.3496 54.3324 79.3747 52.4871 79.3841 51.1775C79.3841 50.5509 79.3841 50.0434 79.4029 49.6862C79.4029 49.5264 79.4029 49.398 79.4029 49.2977C79.4177 49.2502 79.4387 49.2049 79.4656 49.163Z" fill="#263238"/>
<path d="M86.0417 50.3817C86.1483 50.4663 85.1582 51.8949 83.8267 53.5742C83.5635 53.9095 83.3035 54.229 83.0623 54.5141L82.9056 54.7052L82.7302 54.5455C81.5772 53.5084 80.7971 52.7127 80.866 52.6312C80.9349 52.5497 81.8404 53.2077 83.0341 54.1977L82.6988 54.229C82.9275 53.9157 83.1782 53.6024 83.4445 53.2703C84.7729 51.591 85.9384 50.3002 86.0417 50.3817Z" fill="#62CF3A"/>
</svg>
