<svg width="16" height="17" viewBox="0 0 16 17" fill="none" xmlns="http://www.w3.org/2000/svg">
<path d="M3 6C3 5.60218 3.15804 5.22064 3.43934 4.93934C3.72064 4.65804 4.10218 4.5 4.5 4.5H11.5C11.8978 4.5 12.2794 4.65804 12.5607 4.93934C12.842 5.22064 13 5.60218 13 6V10C13 10.3978 12.842 10.7794 12.5607 11.0607C12.2794 11.342 11.8978 11.5 11.5 11.5H4.5C4.10218 11.5 3.72064 11.342 3.43934 11.0607C3.15804 10.7794 3 10.3978 3 10V6ZM2.5 12.5C2.36739 12.5 2.24021 12.5527 2.14645 12.6464C2.05268 12.7402 2 12.8674 2 13C2 13.1326 2.05268 13.2598 2.14645 13.3536C2.24021 13.4473 2.36739 13.5 2.5 13.5H13.5C13.6326 13.5 13.7598 13.4473 13.8536 13.3536C13.9473 13.2598 14 13.1326 14 13C14 12.8674 13.9473 12.7402 13.8536 12.6464C13.7598 12.5527 13.6326 12.5 13.5 12.5H2.5Z" fill="#676767"/>
</svg>
