<svg width="131" height="110" viewBox="0 0 131 110" fill="none" xmlns="http://www.w3.org/2000/svg">
<path d="M17.6058 39.3881C23.167 39.3881 27.6752 34.8798 27.6752 29.3187C27.6752 23.7575 23.167 19.2493 17.6058 19.2493C12.0446 19.2493 7.53644 23.7575 7.53644 29.3187C7.53644 34.8798 12.0446 39.3881 17.6058 39.3881Z" fill="white" stroke="#2E353A" stroke-width="0.172629" stroke-linecap="round" stroke-linejoin="round"/>
<path d="M16.8564 38.3878C22.4175 38.3878 26.9257 33.8796 26.9257 28.3185C26.9257 22.7573 22.4175 18.2491 16.8564 18.2491C11.2952 18.2491 6.787 22.7573 6.787 28.3185C6.787 33.8796 11.2952 38.3878 16.8564 38.3878Z" fill="white" stroke="#2E353A" stroke-width="0.172629" stroke-linecap="round" stroke-linejoin="round"/>
<path d="M16.8564 37.3876C21.8651 37.3876 25.9255 33.3272 25.9255 28.3185C25.9255 23.3097 21.8651 19.2493 16.8564 19.2493C11.8476 19.2493 7.78723 23.3097 7.78723 28.3185C7.78723 33.3272 11.8476 37.3876 16.8564 37.3876Z" fill="#2E353A" stroke="#2E353A" stroke-width="0.172629" stroke-linecap="round" stroke-linejoin="round"/>
<path d="M15.792 21.5006C15.792 21.5006 14.7917 18.9985 13.0421 17.2489C11.2924 15.4992 4.15957 14.3706 4.15957 14.3706C5.31136 15.4816 6.35875 16.6959 7.28857 17.9983C8.91285 20.2495 14.2873 25.379 14.2873 25.379C14.2873 25.379 11.6627 23.1278 9.28319 22.877C6.90364 22.6262 0.902262 23.8772 0.534831 23.8772C0.167399 23.8772 2.78608 24.8774 4.66406 25.7523C6.54204 26.6271 13.7944 27.3795 13.7944 27.3795C13.7944 27.3795 10.6684 28.2543 8.54541 29.0067C6.42248 29.759 4.41036 35.2588 4.41036 35.2588C4.41036 35.2588 7.16317 32.7568 9.53981 32.1327C11.9165 31.5087 15.2933 30.3831 15.2933 30.3831C15.2933 30.3831 13.1675 32.7597 12.6688 34.3869C12.1702 36.0141 12.5434 39.7642 12.5434 39.7642C12.5434 39.7642 13.669 36.2649 15.0454 34.8856C16.4219 33.5062 17.9178 31.1471 17.9178 31.1471C18.6107 32.2764 19.2377 33.4448 19.7958 34.6464C20.796 36.7723 21.4201 39.8955 21.4201 39.8955C21.4201 39.8955 23.0473 36.3961 22.9219 34.6464C22.7965 32.8968 20.9214 29.7678 20.9214 29.7678C20.9214 29.7678 22.1724 28.8929 24.0475 29.6424C25.9226 30.3918 29.177 33.5208 29.177 33.5208C29.177 33.5208 28.4246 29.3916 27.1736 27.7673C25.9226 26.143 20.5453 25.6385 20.5453 25.6385C20.5453 25.6385 23.5489 23.8889 25.4239 23.5127C27.299 23.1365 29.7981 24.0143 29.7981 24.0143C29.7981 24.0143 26.9228 20.0104 24.6716 19.7596C22.4203 19.5088 19.0434 23.0024 19.0434 23.0024L20.0466 17.9983C20.2945 16.7473 19.7958 13.6241 19.7958 13.6241C19.7958 13.6241 18.4194 14.3736 16.7922 16.7502C16.316 17.4347 15.9821 18.2079 15.8103 19.0239C15.6384 19.8399 15.6322 20.6821 15.792 21.5006Z" fill="#62CF3A"/>
<path opacity="0.5" d="M15.792 21.5006C15.792 21.5006 14.7917 18.9985 13.0421 17.2489C11.2924 15.4992 4.15957 14.3706 4.15957 14.3706C5.31136 15.4816 6.35875 16.6959 7.28857 17.9983C8.91285 20.2495 14.2873 25.379 14.2873 25.379C14.2873 25.379 11.6627 23.1278 9.28319 22.877C6.90364 22.6262 0.902262 23.8772 0.534831 23.8772C0.167399 23.8772 2.78608 24.8774 4.66406 25.7523C6.54204 26.6271 13.7944 27.3795 13.7944 27.3795C13.7944 27.3795 10.6684 28.2543 8.54541 29.0067C6.42248 29.759 4.41036 35.2588 4.41036 35.2588C4.41036 35.2588 7.16317 32.7568 9.53981 32.1327C11.9165 31.5087 15.2933 30.3831 15.2933 30.3831C15.2933 30.3831 13.1675 32.7597 12.6688 34.3869C12.1702 36.0141 12.5434 39.7642 12.5434 39.7642C12.5434 39.7642 13.669 36.2649 15.0454 34.8856C16.4219 33.5062 17.9178 31.1471 17.9178 31.1471C18.6107 32.2764 19.2377 33.4448 19.7958 34.6464C20.796 36.7723 21.4201 39.8955 21.4201 39.8955C21.4201 39.8955 23.0473 36.3961 22.9219 34.6464C22.7965 32.8968 20.9214 29.7678 20.9214 29.7678C20.9214 29.7678 22.1724 28.8929 24.0475 29.6424C25.9226 30.3918 29.177 33.5208 29.177 33.5208C29.177 33.5208 28.4246 29.3916 27.1736 27.7673C25.9226 26.143 20.5453 25.6385 20.5453 25.6385C20.5453 25.6385 23.5489 23.8889 25.4239 23.5127C27.299 23.1365 29.7981 24.0143 29.7981 24.0143C29.7981 24.0143 26.9228 20.0104 24.6716 19.7596C22.4203 19.5088 19.0434 23.0024 19.0434 23.0024L20.0466 17.9983C20.2945 16.7473 19.7958 13.6241 19.7958 13.6241C19.7958 13.6241 18.4194 14.3736 16.7922 16.7502C16.316 17.4347 15.9821 18.2079 15.8103 19.0239C15.6384 19.8399 15.6322 20.6821 15.792 21.5006Z" fill="black"/>
<path d="M18.2561 17.6921C18.3436 17.3334 18.4398 16.9747 18.5477 16.6219" stroke="#2E353A" stroke-width="0.0863146" stroke-linecap="round" stroke-linejoin="round"/>
<path d="M9.90141 17.6921C11.0679 18.5465 12.5259 19.7334 13.2899 20.7511C14.6664 22.6262 17.4192 26.63 17.4192 26.63C17.3403 23.9408 17.5535 21.251 18.0549 18.6077" stroke="#2E353A" stroke-width="0.0863146" stroke-linecap="round" stroke-linejoin="round"/>
<path d="M8.16341 16.4965C8.16341 16.4965 8.52792 16.7298 9.07324 17.106" stroke="#2E353A" stroke-width="0.0863146" stroke-linecap="round" stroke-linejoin="round"/>
<path d="M17.4192 26.63C17.4192 26.63 22.1724 21.8767 24.1729 21.5006C26.1734 21.1244 27.9259 22.6262 27.9259 22.6262" stroke="#2E353A" stroke-width="0.0863146" stroke-linecap="round" stroke-linejoin="round"/>
<path d="M8.9245 30.6047C7.75805 31.3395 7.66182 31.7711 7.66182 31.7711" stroke="#2E353A" stroke-width="0.0863146" stroke-linecap="round" stroke-linejoin="round"/>
<path d="M27.8006 31.0071C27.8006 31.0071 27.0511 29.1291 24.4237 28.2543C21.7963 27.3795 17.6729 27.2541 17.6729 27.2541C17.6729 27.2541 11.8844 29.1495 9.76726 30.1381" stroke="#2E353A" stroke-width="0.0863146" stroke-linecap="round" stroke-linejoin="round"/>
<path d="M15.1417 26.5396C16.5414 26.9479 17.67 27.2541 17.67 27.2541" stroke="#2E353A" stroke-width="0.0863146" stroke-linecap="round" stroke-linejoin="round"/>
<path d="M6.33209 24.3175C7.691 24.3992 9.44068 24.5858 10.4147 25.0028C11.2078 25.344 12.7709 25.8368 14.2464 26.2772" stroke="#2E353A" stroke-width="0.0863146" stroke-linecap="round" stroke-linejoin="round"/>
<path d="M4.41035 24.2534C4.41035 24.2534 4.86819 24.2534 5.54181 24.2796" stroke="#2E353A" stroke-width="0.0863146" stroke-linecap="round" stroke-linejoin="round"/>
<path d="M17.4192 28.0035C17.4192 28.0035 13.9198 33.2525 13.6661 34.5093C13.5158 35.2508 13.4319 36.0042 13.4153 36.7606" stroke="#2E353A" stroke-width="0.0863146" stroke-linecap="round" stroke-linejoin="round"/>
<path d="M18.9764 29.6569C19.65 30.5318 20.4578 31.6982 20.796 32.6314C21.1898 33.7699 21.4825 34.9408 21.6709 36.1307" stroke="#2E353A" stroke-width="0.0863146" stroke-linecap="round" stroke-linejoin="round"/>
<path d="M17.9178 28.3797C17.9178 28.3797 18.2094 28.6888 18.5856 29.1641" stroke="#2E353A" stroke-width="0.0863146" stroke-linecap="round" stroke-linejoin="round"/>
<path d="M14.2027 22.5795C14.2027 22.5795 13.5582 19.955 13.9577 17.52C14.3572 15.0851 19.4984 10.0023 19.4984 10.0023C19.2126 11.5764 19.0711 13.1733 19.0755 14.7731C19.0755 17.5492 17.6904 24.8512 17.6904 24.8512C17.6904 24.8512 18.5098 21.4918 20.2945 19.8938C22.0791 18.2957 27.6868 15.8112 27.9901 15.5983C28.2934 15.3854 26.7449 17.7242 25.733 19.5322C24.7211 21.3402 19.2592 26.1897 19.2592 26.1897C19.2592 26.1897 22.3095 25.0757 24.4733 24.44C26.637 23.8043 31.472 27.1112 31.472 27.1112C31.472 27.1112 27.7772 26.6854 25.4822 27.5632C23.1873 28.4409 19.7871 29.4966 19.7871 29.4966C19.7871 29.4966 22.9015 30.1877 24.2546 31.2171C25.6076 32.2465 27.4973 35.5213 27.4973 35.5213C27.4973 35.5213 24.5403 33.3313 22.6186 33.0163C20.6969 32.7014 18.0928 31.6487 18.0928 31.6487C18.1916 32.9696 18.3649 34.284 18.6119 35.5854C19.0405 37.8979 20.3615 40.8024 20.3615 40.8024C20.3615 40.8024 16.9992 38.9069 16.0778 37.4109C15.1563 35.9149 14.8588 32.2815 14.8588 32.2815C14.8588 32.2815 13.3308 32.2989 12.2343 34.002C11.1378 35.705 10.3301 40.1433 10.3301 40.1433C10.3301 40.1433 8.53375 36.3524 8.60082 34.3111C8.66789 32.2698 12.7446 28.718 12.7446 28.718C12.7446 28.718 9.28611 29.0475 7.54227 29.8348C5.79843 30.6222 4.27621 32.7947 4.27621 32.7947C4.27621 32.7947 4.27621 27.8664 5.96173 26.3501C7.64725 24.8337 12.4326 25.7085 12.4326 25.7085L8.69997 22.2296C7.76681 21.3547 6.34958 18.5261 6.34958 18.5261C6.34958 18.5261 7.90679 18.3336 10.6129 19.3164C11.3995 19.5918 12.1227 20.0226 12.7394 20.5832C13.3561 21.1438 13.8537 21.8227 14.2027 22.5795Z" fill="#62CF3A"/>
<path d="M9.98016 20.9232C9.68854 20.6811 9.41443 20.4479 9.12282 20.2204" stroke="#2E353A" stroke-width="0.0863146" stroke-linecap="round" stroke-linejoin="round"/>
<path d="M16.766 16.0503C16.314 17.4267 15.8095 19.2376 15.7978 20.5091C15.7745 22.842 15.8736 27.6915 15.8736 27.6915C14.3685 25.4618 12.625 23.4025 10.6742 21.5501" stroke="#2E353A" stroke-width="0.0863146" stroke-linecap="round" stroke-linejoin="round"/>
<path d="M17.4833 14.0644C17.4833 14.0644 17.32 14.4668 17.0984 15.088" stroke="#2E353A" stroke-width="0.0863146" stroke-linecap="round" stroke-linejoin="round"/>
<path d="M15.8736 27.6915C15.8736 27.6915 9.23946 26.6038 7.39647 27.4669C5.55348 28.3301 5.00525 30.5639 5.00525 30.5639" stroke="#2E353A" stroke-width="0.0863146" stroke-linecap="round" stroke-linejoin="round"/>
<path d="M25.0944 25.9651C26.4621 25.8893 26.7887 26.1663 26.7887 26.1663" stroke="#2E353A" stroke-width="0.0863146" stroke-linecap="round" stroke-linejoin="round"/>
<path d="M9.99473 37.303C9.99473 37.303 9.51065 35.3405 11.132 33.098C12.7534 30.8555 16.0369 28.3476 16.0369 28.3476C16.0369 28.3476 21.8429 26.5075 24.1379 26.0789" stroke="#2E353A" stroke-width="0.0863146" stroke-linecap="round" stroke-linejoin="round"/>
<path d="M17.6729 26.2917C16.7747 27.4378 16.0398 28.3476 16.0398 28.3476" stroke="#2E353A" stroke-width="0.0863146" stroke-linecap="round" stroke-linejoin="round"/>
<path d="M23.5314 19.3484C22.4757 20.2233 21.1635 21.3897 20.6152 22.285C20.1691 23.0257 19.1863 24.3263 18.2444 25.554" stroke="#2E353A" stroke-width="0.0863146" stroke-linecap="round" stroke-linejoin="round"/>
<path d="M25.0536 18.1733C25.0536 18.1733 24.6832 18.4416 24.1496 18.8557" stroke="#2E353A" stroke-width="0.0863146" stroke-linecap="round" stroke-linejoin="round"/>
<path d="M16.6756 28.8142C16.6756 28.8142 22.5865 31.0363 23.5168 31.9082C24.0715 32.4227 24.579 32.9858 25.0332 33.5908" stroke="#2E353A" stroke-width="0.0863146" stroke-linecap="round" stroke-linejoin="round"/>
<path d="M16.3752 31.0596C16.3344 32.1619 16.3548 33.5762 16.6318 34.5385C16.9756 35.6947 17.4216 36.8179 17.9645 37.895" stroke="#2E353A" stroke-width="0.0863146" stroke-linecap="round" stroke-linejoin="round"/>
<path d="M16.4889 29.3974C16.4889 29.3974 16.4423 29.8115 16.4073 30.4239" stroke="#2E353A" stroke-width="0.0863146" stroke-linecap="round" stroke-linejoin="round"/>
<path d="M33.662 35.9383H99.7617C100.587 35.9383 101.378 36.2661 101.962 36.8496C102.545 37.4331 102.873 38.2245 102.873 39.0498V81.9167C102.873 82.3636 102.785 82.8062 102.614 83.2191C102.443 83.6319 102.192 84.0071 101.876 84.3231C101.56 84.6391 101.185 84.8898 100.772 85.0608C100.359 85.2318 99.917 85.3199 99.4701 85.3199H33.9536C33.5067 85.3199 33.0641 85.2318 32.6513 85.0608C32.2384 84.8898 31.8632 84.6391 31.5472 84.3231C31.2312 84.0071 30.9805 83.6319 30.8095 83.2191C30.6385 82.8062 30.5505 82.3636 30.5505 81.9167V39.0498C30.5505 38.2245 30.8783 37.4331 31.4618 36.8496C32.0453 36.2661 32.8367 35.9383 33.662 35.9383Z" fill="white" stroke="#2E353A" stroke-width="0.172629" stroke-linecap="round" stroke-linejoin="round"/>
<path d="M57.8541 40.7994H53.7832V43.4735H57.8541V40.7994Z" fill="#2E353A"/>
<path d="M44.6645 57.2959H40.8852V61.046H44.6645V57.2959Z" fill="#2E353A"/>
<path d="M61.3622 44.1151H57.5537V47.8652H61.3622V44.1151Z" fill="#2E353A"/>
<path d="M53.1387 40.7994H49.0678V43.4735H53.1387V40.7994Z" fill="#2E353A"/>
<path d="M65.8122 44.1151H62.0038V47.8652H65.8122V44.1151Z" fill="#2E353A"/>
<path d="M62.5665 40.7994H58.4956V43.4735H62.5665V40.7994Z" fill="#2E353A"/>
<path d="M42.3812 52.9013H35.2192V56.6515H42.3812V52.9013Z" fill="#2E353A"/>
<path d="M52.4593 44.1151H48.6508V47.8652H52.4593V44.1151Z" fill="#2E353A"/>
<path d="M40.2437 57.2959H35.2192V61.046H40.2437V57.2959Z" fill="#2E353A"/>
<path d="M67.2819 40.7994H63.211V43.4735H67.2819V40.7994Z" fill="#2E353A"/>
<path d="M43.5564 44.1151H39.7479V47.8652H43.5564V44.1151Z" fill="#2E353A"/>
<path d="M43.7109 40.7994H39.64V43.4735H43.7109V40.7994Z" fill="#2E353A"/>
<path d="M48.4263 40.7994H44.3554V43.4735H48.4263V40.7994Z" fill="#2E353A"/>
<path d="M48.0063 44.1151H44.1979V47.8652H48.0063V44.1151Z" fill="#2E353A"/>
<path d="M56.9093 44.1151H53.1008V47.8652H56.9093V44.1151Z" fill="#2E353A"/>
<path d="M86.1405 40.7994H82.0695V43.4735H86.1405V40.7994Z" fill="#2E353A"/>
<path d="M90.8529 40.7994H86.782V43.4735H90.8529V40.7994Z" fill="#2E353A"/>
<path d="M88.0709 44.1151H84.2625V47.8652H88.0709V44.1151Z" fill="#2E353A"/>
<path d="M92.5238 44.1151H88.7154V47.8652H92.5238V44.1151Z" fill="#2E353A"/>
<path d="M99.5663 57.2959H93.9586V61.046H99.5663V57.2959Z" fill="#2E353A"/>
<path d="M95.5683 40.7994H91.4974V43.4735H95.5683V40.7994Z" fill="#2E353A"/>
<path d="M39.1064 44.1151H35.2192V47.8652H39.1064V44.1151Z" fill="#2E353A"/>
<path d="M71.9973 40.7994H67.9264V43.4735H71.9973V40.7994Z" fill="#2E353A"/>
<path d="M76.7097 40.7994H72.6388V43.4735H76.7097V40.7994Z" fill="#2E353A"/>
<path d="M74.718 44.1151H70.9096V47.8652H74.718V44.1151Z" fill="#2E353A"/>
<path d="M83.621 44.1151H79.8125V47.8652H83.621V44.1151Z" fill="#2E353A"/>
<path d="M70.2651 44.1151H66.4567V47.8652H70.2651V44.1151Z" fill="#2E353A"/>
<path d="M79.168 44.1151H75.3596V47.8652H79.168V44.1151Z" fill="#2E353A"/>
<path d="M81.4251 40.7994H77.3542V43.4735H81.4251V40.7994Z" fill="#2E353A"/>
<path d="M75.6249 57.2959H71.8456V61.046H75.6249V57.2959Z" fill="#2E353A"/>
<path d="M95.4546 52.9013H91.6753V56.6515H95.4546V52.9013Z" fill="#2E353A"/>
<path d="M91.0308 52.9013H87.2515V56.6515H91.0308V52.9013Z" fill="#2E353A"/>
<path d="M93.3142 57.2959H89.5349V61.046H93.3142V57.2959Z" fill="#2E353A"/>
<path d="M88.8933 57.2959H85.114V61.046H88.8933V57.2959Z" fill="#2E353A"/>
<path d="M80.0458 57.2959H76.2665V61.046H80.0458V57.2959Z" fill="#2E353A"/>
<path d="M84.4695 57.2959H80.6902V61.046H84.4695V57.2959Z" fill="#2E353A"/>
<path d="M86.6071 52.9013H82.8278V56.6515H86.6071V52.9013Z" fill="#2E353A"/>
<path d="M82.1862 52.9013H78.4069V56.6515H82.1862V52.9013Z" fill="#2E353A"/>
<path d="M99.5692 40.7994H96.2128V43.4735H99.5692V40.7994Z" fill="#2E353A"/>
<path d="M38.9985 40.7994H35.2192V43.4735H38.9985V40.7994Z" fill="#2E353A"/>
<path d="M99.5692 61.6876H35.2192V65.5865H99.5692V61.6876Z" fill="#2E353A"/>
<path d="M99.5663 44.1151H93.1654V47.8652H99.5663V44.1151Z" fill="#2E353A"/>
<path d="M99.5663 52.9013H96.0961V56.6515H99.5663V52.9013Z" fill="#2E353A"/>
<path d="M95.0288 52.2306H94.3843V48.5096H90.6051V52.2306H89.9635V48.5096H86.1842V52.2306H85.5398V48.5096H81.7605V52.2306H81.116V48.5096H77.3367V52.2306H76.6952V48.5096H72.9159V52.2306H72.2714V48.5096H68.4921V52.2306H67.8476V48.5096H64.0684V52.2306H63.4268V48.5096H59.6475V52.2306H59.0031V48.5096H55.2238V52.2306H54.5793V48.5096H50.8V52.2306H50.1585V48.5096H46.3792V52.2306H45.7347V48.5096H41.9554V52.2306H41.311V48.5096H35.2192V52.2598H99.5663V48.5096H95.0288V52.2306Z" fill="#2E353A"/>
<path d="M64.4941 52.9013H60.7148V56.6515H64.4941V52.9013Z" fill="#2E353A"/>
<path d="M77.7624 52.9013H73.9832V56.6515H77.7624V52.9013Z" fill="#2E353A"/>
<path d="M55.6495 52.9013H51.8702V56.6515H55.6495V52.9013Z" fill="#2E353A"/>
<path d="M57.9328 57.2959H54.1535V61.046H57.9328V57.2959Z" fill="#2E353A"/>
<path d="M60.0703 52.9013H56.291V56.6515H60.0703V52.9013Z" fill="#2E353A"/>
<path d="M51.2258 52.9013H47.4465V56.6515H51.2258V52.9013Z" fill="#2E353A"/>
<path d="M49.0882 57.2959H45.309V61.046H49.0882V57.2959Z" fill="#2E353A"/>
<path d="M53.5091 57.2959H49.7298V61.046H53.5091V57.2959Z" fill="#2E353A"/>
<path d="M68.9179 52.9013H65.1386V56.6515H68.9179V52.9013Z" fill="#2E353A"/>
<path d="M71.2012 57.2959H67.4219V61.046H71.2012V57.2959Z" fill="#2E353A"/>
<path d="M73.3387 52.9013H69.5594V56.6515H73.3387V52.9013Z" fill="#2E353A"/>
<path d="M62.3566 57.2959H58.5773V61.046H62.3566V57.2959Z" fill="#2E353A"/>
<path d="M66.7774 57.2959H62.9981V61.046H66.7774V57.2959Z" fill="#2E353A"/>
<path d="M46.802 52.9013H43.0227V56.6515H46.802V52.9013Z" fill="#2E353A"/>
<path d="M107.002 9.10992H26.0334C25.6363 9.11024 25.2446 9.20186 24.8886 9.3777C24.5326 9.55355 24.2218 9.80891 23.9802 10.1241C23.7387 10.4392 23.5728 10.8057 23.4955 11.1951C23.4182 11.5846 23.4314 11.9866 23.5343 12.3701L29.454 34.4102C29.6015 34.9604 29.9263 35.4465 30.3781 35.7934C30.8299 36.1403 31.3835 36.3286 31.9531 36.329H40.2174V37.8541H93.2004V36.3377H101.074C101.644 36.3373 102.197 36.1491 102.649 35.8022C103.101 35.4553 103.426 34.9691 103.573 34.4189L109.493 12.3789C109.597 11.9955 109.612 11.5933 109.536 11.2034C109.459 10.8134 109.295 10.4462 109.054 10.1302C108.813 9.81414 108.503 9.55774 108.147 9.38082C107.791 9.20391 107.4 9.11122 107.002 9.10992Z" fill="#2E353A" stroke="#2E353A" stroke-width="0.172629" stroke-linecap="round" stroke-linejoin="round"/>
<path d="M97.8458 34.384H35.19L28.9233 11.8336H104.11L97.8458 34.384Z" fill="#62CF3A" stroke="#2E353A" stroke-width="0.172629" stroke-linecap="round" stroke-linejoin="round"/>
<path d="M39.3484 24.4867V24.7783H38.2432V24.4867H39.3484Z" fill="#2E353A"/>
<path d="M40.7248 24.4867V24.7783H39.6167V24.4867H40.7248Z" fill="#2E353A"/>
<path d="M42.1012 24.4867V24.7783H41.0018V24.4867H42.1012Z" fill="#2E353A"/>
<path d="M43.4747 24.4867V24.7783H42.3695V24.4867H43.4747Z" fill="#2E353A"/>
<path d="M44.8511 24.4867V24.7783H43.743V24.4867H44.8511Z" fill="#2E353A"/>
<path d="M46.2275 24.4867V24.7783H45.1194V24.4867H46.2275Z" fill="#2E353A"/>
<path d="M47.601 24.4867V24.7783H46.4958V24.4867H47.601Z" fill="#2E353A"/>
<path d="M48.9628 26.0235L47.7439 22.7749H48.0355L49.2544 26.0235H48.9628Z" fill="#2E353A"/>
<path d="M38.2344 19.7567V20.0483H37.1292V19.7567H38.2344Z" fill="#2E353A"/>
<path d="M39.6108 19.7567V20.0483H38.5056V19.7567H39.6108Z" fill="#2E353A"/>
<path d="M41.0018 19.7567V20.0483H39.8937V19.7567H41.0018Z" fill="#2E353A"/>
<path d="M42.3637 19.7567V20.0483H41.2555V19.7567H42.3637Z" fill="#2E353A"/>
<path d="M43.7372 19.7567V20.0483H42.632V19.7567H43.7372Z" fill="#2E353A"/>
<path d="M46.0642 19.7567V20.0483H44.9561V19.7567H46.0642Z" fill="#2E353A"/>
<path d="M47.4377 19.7567V20.0483H46.3325V19.7567H47.4377Z" fill="#2E353A"/>
<path d="M48.8141 19.7567V20.0483H47.7089V19.7567H48.8141Z" fill="#2E353A"/>
<path d="M50.1905 19.7567V20.0483H49.0824V19.7567H50.1905Z" fill="#2E353A"/>
<path d="M51.564 19.7567V20.0483H50.4588V19.7567H51.564Z" fill="#2E353A"/>
<path d="M52.9404 19.7567V20.0483H51.8352V19.7567H52.9404Z" fill="#2E353A"/>
<path d="M54.3168 19.7567V20.0483H53.2087V19.7567H54.3168Z" fill="#2E353A"/>
<path d="M56.641 19.7567V20.0483H55.5358V19.7567H56.641Z" fill="#2E353A"/>
<path d="M58.0174 19.7567V20.0483H56.9093V19.7567H58.0174Z" fill="#2E353A"/>
<path d="M59.3938 19.7567V20.0483H58.2857V19.7567H59.3938Z" fill="#2E353A"/>
<path d="M61.7063 19.7567V20.0483H60.6011V19.7567H61.7063Z" fill="#2E353A"/>
<path d="M63.0944 19.7567V20.0483H61.9979V19.7567H63.0944Z" fill="#2E353A"/>
<path d="M64.4708 19.7567V20.0483H63.3626V19.7567H64.4708Z" fill="#2E353A"/>
<path d="M69.644 19.7567V20.0483H68.5388V19.7567H69.644Z" fill="#2E353A"/>
<path d="M71.0204 19.7567V20.0483H69.9123V19.7567H71.0204Z" fill="#2E353A"/>
<path d="M72.3968 19.7567V20.0483H71.2887V19.7567H72.3968Z" fill="#2E353A"/>
<path d="M73.7703 19.7567V20.0483H72.6651V19.7567H73.7703Z" fill="#2E353A"/>
<path d="M75.1467 19.7567V20.0483H74.0386V19.7567H75.1467Z" fill="#2E353A"/>
<path d="M77.4708 19.7567V20.0483H76.3656V19.7567H77.4708Z" fill="#2E353A"/>
<path d="M78.8473 19.7567V20.0483H77.745V19.7567H78.8473Z" fill="#2E353A"/>
<path d="M80.2237 19.7567V20.0483H79.1155V19.7567H80.2237Z" fill="#2E353A"/>
<path d="M82.5478 19.7567V20.0483H81.4426V19.7567H82.5478Z" fill="#2E353A"/>
<path d="M84.8749 19.7567V20.0483H83.7668V19.7567H84.8749Z" fill="#2E353A"/>
<path d="M103.316 67.6832L100.196 79.7209L103.147 80.587L103.316 67.6832Z" fill="white" stroke="#2E353A" stroke-width="0.172629" stroke-linecap="round" stroke-linejoin="round"/>
<path d="M104.716 54.9601C104.364 54.4191 104.235 53.7627 104.357 53.1288C104.518 51.942 105.95 51.6708 105.95 51.6708C105.95 51.6708 106.262 51.4345 107.408 51.869C108.554 52.3035 117.416 53.505 123.079 54.2719C128.742 55.0389 130.576 54.5431 130.498 56.4882C130.419 58.4332 125.45 75.8891 125.374 76.4374C125.298 76.9856 104.716 54.9601 104.716 54.9601Z" fill="white" stroke="#2E353A" stroke-width="0.172629" stroke-miterlimit="10"/>
<path d="M128.536 58.1901L104.714 54.9607L100.864 83.3577L124.687 86.5871L128.536 58.1901Z" fill="white" stroke="#2E353A" stroke-width="0.172629" stroke-linecap="round" stroke-linejoin="round"/>
<path d="M124.108 63.8543L125.494 64.0439" stroke="#2E353A" stroke-width="0.0863146" stroke-linecap="round" stroke-linejoin="round"/>
<path d="M115.433 62.6791L123.012 63.7085" stroke="#2E353A" stroke-width="0.0863146" stroke-linecap="round" stroke-linejoin="round"/>
<path d="M106.247 61.4339L114.336 62.5304" stroke="#2E353A" stroke-width="0.0863146" stroke-linecap="round" stroke-linejoin="round"/>
<path d="M121.939 66.1318L125.152 66.5692" stroke="#2E353A" stroke-width="0.0863146" stroke-linecap="round" stroke-linejoin="round"/>
<path d="M105.906 63.9593L118.652 65.6856" stroke="#2E353A" stroke-width="0.0863146" stroke-linecap="round" stroke-linejoin="round"/>
<path d="M112.374 67.4061L124.811 69.0917" stroke="#2E353A" stroke-width="0.0863146" stroke-linecap="round" stroke-linejoin="round"/>
<path d="M105.562 66.4817L111.094 67.2341" stroke="#2E353A" stroke-width="0.0863146" stroke-linecap="round" stroke-linejoin="round"/>
<path d="M116.506 70.5381L124.467 71.617" stroke="#2E353A" stroke-width="0.0863146" stroke-linecap="round" stroke-linejoin="round"/>
<path d="M109.749 69.6195L115.593 70.4127" stroke="#2E353A" stroke-width="0.0863146" stroke-linecap="round" stroke-linejoin="round"/>
<path d="M105.221 69.0071L108.743 69.4853" stroke="#2E353A" stroke-width="0.0863146" stroke-linecap="round" stroke-linejoin="round"/>
<path d="M121.277 73.7545L124.126 74.1395" stroke="#2E353A" stroke-width="0.0863146" stroke-linecap="round" stroke-linejoin="round"/>
<path d="M104.879 71.5325L119.361 73.495" stroke="#2E353A" stroke-width="0.0863146" stroke-linecap="round" stroke-linejoin="round"/>
<path d="M115.73 75.5713L123.785 76.6648" stroke="#2E353A" stroke-width="0.0863146" stroke-linecap="round" stroke-linejoin="round"/>
<path d="M104.535 74.0549L114.36 75.3876" stroke="#2E353A" stroke-width="0.0863146" stroke-linecap="round" stroke-linejoin="round"/>
<path d="M118.218 78.4816L123.441 79.1873" stroke="#2E353A" stroke-width="0.0863146" stroke-linecap="round" stroke-linejoin="round"/>
<path d="M107.626 77.0439L116.941 78.3066" stroke="#2E353A" stroke-width="0.0863146" stroke-linecap="round" stroke-linejoin="round"/>
<path d="M104.194 76.5802L106.53 76.8952" stroke="#2E353A" stroke-width="0.0863146" stroke-linecap="round" stroke-linejoin="round"/>
<path d="M128.538 58.1912C128.538 58.1912 128.946 54.2311 130.404 55.8233" stroke="#2E353A" stroke-width="0.172629" stroke-linecap="round" stroke-linejoin="round"/>
<path d="M120.46 88.6967L120.434 91.2134L118.967 89.1429L113.08 69.3395L114.573 68.8934L120.46 88.6967Z" fill="white" stroke="#2E353A" stroke-width="0.172629" stroke-linecap="round" stroke-linejoin="round"/>
<path d="M113.988 69.7396L113.174 69.9772L118.959 89.8115L119.773 89.5739L113.988 69.7396Z" fill="#62CF3A" stroke="#2E353A" stroke-width="0.0863146" stroke-linecap="round" stroke-linejoin="round"/>
<path d="M120.46 88.7026L118.97 89.1458L120.434 91.2133L120.46 88.7026Z" stroke="#2E353A" stroke-width="0.172629" stroke-linecap="round" stroke-linejoin="round"/>
<path d="M119.702 90.1781L120.434 91.2134L120.449 89.9565L119.702 90.1781Z" fill="#2E353A" stroke="#2E353A" stroke-width="0.172629" stroke-linecap="round" stroke-linejoin="round"/>
<path d="M113.167 66.8987C112.97 66.9582 112.803 67.0933 112.705 67.2747C112.607 67.456 112.584 67.6689 112.642 67.8669L113.08 69.3395L114.573 68.8963L114.135 67.4236C114.076 67.2261 113.941 67.06 113.759 66.9617C113.578 66.8633 113.365 66.8407 113.167 66.8987Z" fill="white" stroke="#2E353A" stroke-width="0.172629" stroke-linecap="round" stroke-linejoin="round"/>
<path d="M113.167 66.8987C112.97 66.9582 112.803 67.0933 112.705 67.2747C112.607 67.456 112.584 67.6689 112.642 67.8669L112.852 68.5697L114.342 68.1264L114.135 67.4236C114.076 67.2261 113.941 67.06 113.759 66.9617C113.578 66.8633 113.365 66.8407 113.167 66.8987Z" fill="#2E353A" stroke="#2E353A" stroke-width="0.172629" stroke-linecap="round" stroke-linejoin="round"/>
<path d="M39.7333 55.2021C39.5467 55.4646 39.363 55.7387 39.1793 56.0274" stroke="white" stroke-width="0.172629" stroke-linecap="round" stroke-linejoin="round"/>
<path d="M42.7836 51.6911C41.9711 52.4443 41.2193 53.2604 40.5353 54.1319" stroke="white" stroke-width="0.172629" stroke-linecap="round" stroke-linejoin="round"/>
<path d="M39.4738 53.2396C38.6771 54.3571 37.9552 55.5261 37.313 56.7389" stroke="white" stroke-width="0.172629" stroke-linecap="round" stroke-linejoin="round"/>
<path d="M60.0412 59.6522C59.8575 59.9146 59.6708 60.1887 59.4871 60.4745" stroke="white" stroke-width="0.172629" stroke-linecap="round" stroke-linejoin="round"/>
<path d="M63.0915 56.1411C62.2804 56.8949 61.5296 57.711 60.846 58.5819" stroke="white" stroke-width="0.172629" stroke-linecap="round" stroke-linejoin="round"/>
<path d="M59.7846 57.6838C58.9883 58.8076 58.2665 59.9824 57.6237 61.2006" stroke="white" stroke-width="0.172629" stroke-linecap="round" stroke-linejoin="round"/>
<path d="M89.1499 52.4347C88.8845 52.2539 88.6046 52.0731 88.3159 51.8923" stroke="white" stroke-width="0.172629" stroke-linecap="round" stroke-linejoin="round"/>
<path d="M92.7076 55.4325C91.9407 54.6338 91.1129 53.8957 90.2318 53.225" stroke="white" stroke-width="0.172629" stroke-linecap="round" stroke-linejoin="round"/>
<path d="M91.1095 52.1431C89.9747 51.3639 88.7902 50.6596 87.5635 50.0348" stroke="white" stroke-width="0.172629" stroke-linecap="round" stroke-linejoin="round"/>
<path d="M59.1547 70.5147C59.003 71.6112 58.7756 73.1392 58.5481 74.0461" stroke="#2E353A" stroke-width="0.172629" stroke-linecap="round" stroke-linejoin="round"/>
<path d="M59.3238 69.182C59.3238 69.182 59.3005 69.3891 59.2568 69.7244" stroke="#2E353A" stroke-width="0.172629" stroke-linecap="round" stroke-linejoin="round"/>
<path d="M60.1024 72.2935C59.784 73.3558 59.3943 74.3953 58.936 75.405" stroke="#2E353A" stroke-width="0.172629" stroke-linecap="round" stroke-linejoin="round"/>
<path d="M74.683 73.8478C74.683 73.8478 74.8784 76.3761 76.2373 77.7379" stroke="#2E353A" stroke-width="0.172629" stroke-linecap="round" stroke-linejoin="round"/>
<path d="M74.4876 76.3761C74.4876 76.3761 75.0709 78.1258 76.2373 78.9044" stroke="#2E353A" stroke-width="0.172629" stroke-linecap="round" stroke-linejoin="round"/>
<g style="mix-blend-mode:multiply">
<path d="M34.878 89.8894C34.878 89.8894 36.1727 88.8484 36.1727 79.8988C36.1727 70.9492 37.6629 64.4113 39.5 61.5447C41.3372 58.6782 43.0548 57.5292 43.8596 57.5292C44.6645 57.5292 44.0871 58.5615 42.9411 60.0517C41.795 61.5418 40.7627 62.3467 40.302 64.1838C39.8412 66.021 39.8441 68.313 40.4186 68.0827C40.9931 67.8523 41.9088 63.2652 42.7107 61.5447C43.5126 59.8242 45.4664 57.643 46.6125 56.6107C47.7585 55.5783 50.2839 52.4814 51.4299 53.2834C52.5759 54.0853 51.8906 55.2342 51.2024 55.6921C50.5142 56.1499 47.7585 58.8998 46.4987 60.6262C45.239 62.3525 44.4341 66.7063 45.1223 66.82C45.8105 66.9337 47.8751 60.5124 49.0212 59.136C50.1672 57.7596 54.7572 53.9716 55.7895 53.8578C56.8218 53.7441 56.9384 55.348 56.0199 56.1528C55.1013 56.9577 52.0044 60.3958 50.9721 62.4604C49.9398 64.525 49.479 68.313 50.3888 67.3945C51.2987 66.4759 52.7976 62.6908 54.0602 61.4281C55.3229 60.1654 59.108 56.1528 60.0266 56.6107C60.9452 57.0685 60.7148 58.2174 59.9129 59.0194C59.111 59.8213 56.0111 64.1838 55.2092 66.4759C54.4073 68.768 53.4858 75.1951 53.9465 74.2794C54.4072 73.3638 55.8974 68.6572 56.6993 66.6975C57.5013 64.7379 59.108 63.831 59.3384 64.7466C59.5688 65.6623 59.108 66.123 58.5336 68.1906C57.9591 70.2581 57.9503 75.7725 56.2415 78.8577C54.5326 81.943 47.6739 88.5451 46.7583 90.8372C46.095 92.4159 45.303 93.9374 44.3904 95.3863" fill="#62CF3A"/>
</g>
<g style="mix-blend-mode:multiply">
<path d="M98.6098 90.6651C98.6098 90.6651 97.283 88.8484 97.283 79.8988C97.283 70.9492 95.7899 64.4113 93.9557 61.5447C92.1215 58.6782 90.398 57.5292 89.5961 57.5292C88.7942 57.5292 89.3657 58.5615 90.5147 60.0517C91.6636 61.5418 92.693 62.3467 93.1392 64.1838C93.5853 66.021 93.5999 68.313 93.0254 68.0827C92.451 67.8523 91.5353 63.2652 90.7305 61.5447C89.9256 59.8242 87.9776 57.643 86.8316 56.6107C85.6856 55.5783 83.1602 52.4814 82.0113 53.2834C80.8623 54.0853 81.5534 55.2342 82.2416 55.6921C82.9298 56.1499 85.6827 58.8998 86.9453 60.6262C88.208 62.3525 89.0099 66.7063 88.3217 66.82C87.6335 66.9337 85.5777 60.5124 84.4316 59.1418C83.2856 57.7713 78.6927 53.9774 77.6604 53.8637C76.6281 53.7499 76.5144 55.3538 77.433 56.1587C78.3515 56.9635 81.4484 60.4016 82.4808 62.4662C83.5131 64.5308 83.9709 68.3189 83.064 67.4003C82.1571 66.4817 80.6553 62.6966 79.3955 61.4339C78.1357 60.1712 74.3477 56.1587 73.4291 56.6165C72.5105 57.0743 72.7409 58.2233 73.5428 59.0252C74.3448 59.8271 77.4446 64.1897 78.2466 66.4817C79.0485 68.7738 79.9671 75.2009 79.5092 74.2853C79.0514 73.3696 77.5583 68.663 76.7564 66.7033C75.9545 64.7437 74.3477 63.8368 74.1173 64.7525C73.8869 65.6681 74.3477 66.1289 74.9193 68.1964C75.4908 70.2639 75.5025 75.7783 77.2142 78.8636C78.926 81.9488 85.5893 87.9706 86.5079 90.2656C87.4265 92.5606 89.0887 96.1766 89.0887 96.1766" fill="#62CF3A"/>
</g>
<path d="M34.4406 92.094C34.4406 92.094 36.1611 86.4746 36.1611 77.5134C36.1611 68.5521 37.6512 62.0258 39.4884 59.1593C41.3255 56.2927 43.0431 55.1438 43.848 55.1438C44.6528 55.1438 44.0754 56.1761 42.9294 57.6662C41.7834 59.1564 40.7511 59.9612 40.2903 61.7955C39.8296 63.6297 39.8325 65.9276 40.407 65.6972C40.9814 65.4669 41.8971 60.8798 42.699 59.1593C43.501 57.4388 45.4548 55.2575 46.6008 54.2252C47.7468 53.1929 50.2722 50.096 51.4182 50.8979C52.5643 51.6999 51.879 52.8488 51.1908 53.3066C50.5026 53.7645 47.7468 56.5144 46.4871 58.2407C45.2273 59.9671 44.4224 64.3208 45.1107 64.4346C45.7989 64.5483 47.8635 58.127 49.0095 56.7477C50.1555 55.3683 54.7455 51.5861 55.7778 51.4724C56.8101 51.3587 56.9268 52.9625 56.0082 53.7674C55.0896 54.5722 51.9927 58.0103 50.9604 60.075C49.9281 62.1396 49.4673 65.9276 50.3772 65.009C51.287 64.0905 52.7859 60.3053 54.0486 59.0427C55.3112 57.78 59.0964 53.7674 60.0149 54.2252C60.9335 54.6831 60.7031 55.832 59.9012 56.6339C59.0993 57.4359 55.9994 61.7955 55.1975 64.0905C54.3956 66.3854 53.4741 72.8097 53.9348 71.8911C54.3956 70.9725 55.8857 66.2717 56.6876 64.3092C57.4896 62.3466 59.0964 61.4397 59.3267 62.3583C59.5571 63.2769 59.0964 63.7347 58.5219 65.7993C57.9474 67.8639 57.9387 73.3812 56.2298 76.4694C54.521 79.5576 47.8547 87.9414 46.9361 90.2364C46.0176 92.5314 43.953 97.5792 43.953 97.5792" fill="white"/>
<path d="M34.4406 92.094C34.4406 92.094 36.1611 86.4746 36.1611 77.5134C36.1611 68.5521 37.6512 62.0258 39.4884 59.1593C41.3255 56.2927 43.0431 55.1438 43.848 55.1438C44.6528 55.1438 44.0754 56.1761 42.9294 57.6662C41.7834 59.1564 40.7511 59.9612 40.2903 61.7955C39.8296 63.6297 39.8325 65.9276 40.407 65.6972C40.9814 65.4669 41.8971 60.8798 42.699 59.1593C43.501 57.4388 45.4548 55.2575 46.6008 54.2252C47.7468 53.1929 50.2722 50.096 51.4182 50.8979C52.5643 51.6999 51.879 52.8488 51.1908 53.3066C50.5026 53.7645 47.7468 56.5144 46.4871 58.2407C45.2273 59.9671 44.4224 64.3208 45.1107 64.4346C45.7989 64.5483 47.8635 58.127 49.0095 56.7477C50.1555 55.3683 54.7455 51.5861 55.7778 51.4724C56.8101 51.3587 56.9268 52.9625 56.0082 53.7674C55.0896 54.5722 51.9927 58.0103 50.9604 60.075C49.9281 62.1396 49.4673 65.9276 50.3772 65.009C51.287 64.0905 52.7859 60.3053 54.0486 59.0427C55.3112 57.78 59.0964 53.7674 60.0149 54.2252C60.9335 54.6831 60.7031 55.832 59.9012 56.6339C59.0993 57.4359 55.9994 61.7955 55.1975 64.0905C54.3956 66.3854 53.4741 72.8097 53.9348 71.8911C54.3956 70.9725 55.8857 66.2717 56.6876 64.3092C57.4896 62.3466 59.0964 61.4397 59.3267 62.3583C59.5571 63.2769 59.0964 63.7347 58.5219 65.7993C57.9474 67.8639 57.9387 73.3812 56.2298 76.4694C54.521 79.5576 47.8547 87.9414 46.9361 90.2364C46.0176 92.5314 43.953 97.5792 43.953 97.5792" stroke="#2E353A" stroke-width="0.172629" stroke-linecap="round" stroke-linejoin="round"/>
<path d="M99.0006 92.094C99.0006 92.094 97.28 86.4746 97.28 77.5134C97.28 68.5521 95.787 62.0258 93.9528 59.1593C92.1185 56.2927 90.3951 55.1438 89.5932 55.1438C88.7912 55.1438 89.3628 56.1761 90.5117 57.6662C91.6607 59.1564 92.6901 59.9612 93.1362 61.7955C93.5824 63.6297 93.597 65.9276 93.0225 65.6972C92.448 65.4669 91.5324 60.8798 90.7275 59.1593C89.9227 57.4388 87.9747 55.2575 86.8287 54.2252C85.6826 53.1929 83.1573 50.096 82.0083 50.8979C80.8594 51.6999 81.5505 52.8488 82.2387 53.3066C82.9269 53.7645 85.6797 56.5144 86.9424 58.2407C88.2051 59.9671 89.007 64.3208 88.3188 64.4346C87.6306 64.5483 85.566 58.127 84.42 56.7477C83.2739 55.3683 78.681 51.5861 77.6487 51.4724C76.6164 51.3587 76.5027 52.9625 77.4213 53.7674C78.3398 54.5722 81.4368 58.0103 82.4691 60.075C83.5014 62.1396 83.9592 65.9276 83.0523 65.009C82.1454 64.0905 80.6436 60.3053 79.3838 59.0427C78.1241 57.78 74.336 53.7674 73.4174 54.2252C72.4989 54.6831 72.7292 55.832 73.5312 56.6339C74.3331 57.4359 77.4329 61.7955 78.2349 64.0905C79.0368 66.3854 79.9554 72.8097 79.4975 71.8911C79.0397 70.9725 77.5467 66.2717 76.7447 64.3092C75.9428 62.3466 74.336 61.4397 74.1056 62.3583C73.8753 63.2769 74.336 63.7347 74.9076 65.7993C75.4791 67.8639 75.4908 73.3812 77.2026 76.4694C78.9143 79.5576 85.5777 87.9414 86.4962 90.2364C87.4148 92.5314 89.4794 97.5792 89.4794 97.5792" fill="white"/>
<path d="M99.0006 92.094C99.0006 92.094 97.28 86.4746 97.28 77.5134C97.28 68.5521 95.787 62.0258 93.9528 59.1593C92.1185 56.2927 90.3951 55.1438 89.5932 55.1438C88.7912 55.1438 89.3628 56.1761 90.5117 57.6662C91.6607 59.1564 92.6901 59.9612 93.1362 61.7955C93.5824 63.6297 93.597 65.9276 93.0225 65.6972C92.448 65.4669 91.5324 60.8798 90.7275 59.1593C89.9227 57.4388 87.9747 55.2575 86.8287 54.2252C85.6826 53.1929 83.1573 50.096 82.0083 50.8979C80.8594 51.6999 81.5505 52.8488 82.2387 53.3066C82.9269 53.7645 85.6797 56.5144 86.9424 58.2407C88.2051 59.9671 89.007 64.3208 88.3188 64.4346C87.6306 64.5483 85.566 58.127 84.42 56.7477C83.2739 55.3683 78.681 51.5861 77.6487 51.4724C76.6164 51.3587 76.5027 52.9625 77.4213 53.7674C78.3398 54.5722 81.4368 58.0103 82.4691 60.075C83.5014 62.1396 83.9592 65.9276 83.0523 65.009C82.1454 64.0905 80.6436 60.3053 79.3838 59.0427C78.1241 57.78 74.336 53.7674 73.4174 54.2252C72.4989 54.6831 72.7292 55.832 73.5312 56.6339C74.3331 57.4359 77.4329 61.7955 78.2349 64.0905C79.0368 66.3854 79.9554 72.8097 79.4975 71.8911C79.0397 70.9725 77.5467 66.2717 76.7447 64.3092C75.9428 62.3466 74.336 61.4397 74.1056 62.3583C73.8753 63.2769 74.336 63.7347 74.9076 65.7993C75.4791 67.8639 75.4908 73.3812 77.2026 76.4694C78.9143 79.5576 85.5777 87.9414 86.4962 90.2364C87.4148 92.5314 89.4794 97.5792 89.4794 97.5792" stroke="#2E353A" stroke-width="0.172629" stroke-linecap="round" stroke-linejoin="round"/>
<path d="M27.1794 109.591H44.6761C44.9036 108.716 45.1894 107.736 45.551 106.675C46.9274 102.551 51.3832 97.3955 51.3832 97.3955C48.1897 94.5829 44.437 92.478 40.3719 91.2192C33.6649 89.1546 28.7541 89.7611 28.7541 89.7611C29.6581 93.4883 29.7575 97.3654 29.0457 101.134C28.1709 105.38 27.5877 108.066 27.1794 109.591Z" fill="#2E353A" stroke="#2E353A" stroke-width="0.172629" stroke-linecap="round" stroke-linejoin="round"/>
<path d="M88.6512 109.591H106.83C106.247 108.08 104.987 104.8 103.728 101.519C102.007 97.0514 102.695 91.0384 102.007 91.0384C101.319 91.0384 93.5882 90.5222 89.8089 91.7237C86.0296 92.9251 81.7313 96.3632 81.7313 96.3632C83.6771 98.6241 85.3498 101.106 86.7149 103.758C87.5924 105.618 88.2425 107.576 88.6512 109.591Z" fill="#2E353A" stroke="#2E353A" stroke-width="0.172629" stroke-linecap="round" stroke-linejoin="round"/>
<path d="M38.109 93.3188C37.9837 92.823 36.1173 93.5695 36.1173 93.5695C36.1173 93.5695 36.7414 91.2075 35.747 91.2075C34.7526 91.2075 34.6272 92.9572 34.6272 92.9572C34.6272 92.9572 32.7609 92.2136 32.7609 93.3304C32.7609 94.4473 34.0032 94.4269 34.0032 94.4269C34.0032 94.4269 32.5101 96.2932 33.6299 96.6636C34.7497 97.0339 35.4933 95.6692 35.4933 95.6692C35.4933 95.6692 36.2398 96.9143 37.243 96.4157C38.2461 95.917 37.4908 94.8002 37.4908 94.8002C37.4908 94.8002 38.2315 93.8174 38.109 93.3188ZM35.6216 95.1851C35.5277 95.1642 35.4417 95.1172 35.3733 95.0496C35.305 94.9819 35.2572 94.8963 35.2354 94.8027C35.2136 94.709 35.2187 94.6111 35.2501 94.5202C35.2815 94.4293 35.3379 94.3492 35.4129 94.289C35.4879 94.2288 35.5784 94.191 35.6739 94.18C35.7694 94.169 35.8661 94.1851 35.9529 94.2267C36.0396 94.2682 36.1128 94.3334 36.1641 94.4148C36.2154 94.4961 36.2426 94.5903 36.2427 94.6864C36.2217 94.8328 36.1459 94.9657 36.0305 95.0583C35.9152 95.1509 35.7691 95.1962 35.6216 95.1851ZM40.8444 107.258C40.719 106.762 38.8527 107.509 38.8527 107.509C38.8527 107.509 39.4767 105.147 38.4794 105.147C37.4821 105.147 37.3625 106.896 37.3625 106.896C37.3625 106.896 35.4962 106.15 35.4962 107.267C35.4962 108.383 36.7414 108.386 36.7414 108.386C36.7414 108.386 35.2483 110.253 36.3681 110.626C37.4879 110.999 38.2315 109.629 38.2315 109.629C38.2315 109.629 38.9781 110.874 39.9812 110.375C40.9843 109.876 40.2291 108.76 40.2291 108.76C40.2291 108.76 40.9669 107.742 40.8444 107.258ZM38.3569 109.124C38.2631 109.103 38.177 109.056 38.1087 108.989C38.0403 108.921 37.9925 108.835 37.9707 108.742C37.9489 108.648 37.954 108.55 37.9854 108.459C38.0168 108.368 38.0733 108.288 38.1483 108.228C38.2232 108.168 38.3137 108.13 38.4092 108.119C38.5048 108.108 38.6014 108.124 38.6882 108.166C38.7749 108.207 38.8481 108.272 38.8994 108.354C38.9507 108.435 38.978 108.529 38.9781 108.625C38.957 108.771 38.8806 108.902 38.7648 108.992C38.6491 109.083 38.5029 109.125 38.3569 109.11V109.124ZM29.9002 109.124C29.7748 108.625 27.9114 109.372 27.9114 109.372C27.9114 109.372 28.5325 107.01 27.5381 107.01C26.5437 107.01 26.4183 108.76 26.4183 108.76C26.4183 108.76 24.552 108.013 24.552 109.133C24.552 110.253 25.7972 110.253 25.7972 110.253C25.7972 110.253 24.3041 112.116 25.4239 112.489C26.5437 112.863 27.2873 111.495 27.2873 111.495C27.2873 111.495 28.0339 112.737 29.037 112.241C30.0401 111.746 29.2878 110.626 29.2878 110.626C29.2878 110.626 30.0256 109.605 29.9031 109.11L29.9002 109.124ZM27.4127 110.988C27.3187 110.967 27.2326 110.92 27.1642 110.852C27.0958 110.784 27.048 110.698 27.0263 110.604C27.0046 110.511 27.0099 110.413 27.0416 110.322C27.0732 110.231 27.1299 110.151 27.2052 110.091C27.2805 110.03 27.3712 109.993 27.4668 109.982C27.5625 109.972 27.6593 109.988 27.7459 110.03C27.8326 110.072 27.9056 110.138 27.9566 110.219C28.0075 110.301 28.0343 110.396 28.0339 110.492C28.0121 110.636 27.9359 110.766 27.8208 110.856C27.7058 110.945 27.5607 110.987 27.4156 110.973L27.4127 110.988ZM43.4514 99.4251H44.819C45.8134 99.4251 46.4346 100.545 46.4346 100.545C44.3233 101.151 43.4543 99.4105 43.4543 99.4105L43.4514 99.4251ZM42.0837 109.124H43.4514C44.4458 109.124 45.0669 110.244 45.0669 110.244C42.9556 110.85 42.0866 109.11 42.0866 109.11L42.0837 109.124ZM30.151 107.258H31.5186C32.513 107.258 33.1341 108.378 33.1341 108.378C31.02 108.984 30.151 107.258 30.151 107.258ZM36.7618 98.4832L37.5608 99.5943C38.144 100.405 37.5929 101.56 37.5929 101.56C35.8549 100.192 36.7618 98.4686 36.7618 98.4686V98.4832ZM29.9206 102.198L30.5446 100.982C31.0025 100.107 32.2797 100.055 32.2797 100.055C31.8511 102.219 29.9206 102.198 29.9206 102.198Z" fill="white"/>
<path d="M96.6677 95.6808C96.5423 95.1851 94.676 95.9316 94.676 95.9316C94.676 95.9316 95.3 93.5695 94.3056 93.5695C93.3112 93.5695 93.1858 95.3192 93.1858 95.3192C93.1858 95.3192 91.3195 94.5756 91.3195 95.6925C91.3195 96.8094 92.5647 96.8123 92.5647 96.8123C92.5647 96.8123 91.0716 98.6786 92.1914 99.0519C93.3112 99.4251 94.0548 98.0545 94.0548 98.0545C94.0548 98.0545 94.8014 99.2997 95.8045 98.8011C96.8076 98.3024 96.0524 97.1855 96.0524 97.1855C96.0524 97.1855 96.7902 96.1766 96.6677 95.6808ZM94.1802 97.5471C94.0864 97.5263 94.0003 97.4793 93.932 97.4116C93.8636 97.344 93.8158 97.2584 93.794 97.1647C93.7722 97.0711 93.7773 96.9732 93.8087 96.8823C93.8401 96.7914 93.8966 96.7112 93.9716 96.651C94.0465 96.5908 94.137 96.5531 94.2325 96.542C94.3281 96.531 94.4248 96.5472 94.5115 96.5887C94.5982 96.6303 94.6714 96.6955 94.7227 96.7768C94.774 96.8581 94.8013 96.9523 94.8014 97.0485C94.7838 97.1964 94.7088 97.3315 94.5927 97.4247C94.4765 97.518 94.3284 97.5619 94.1802 97.5471ZM102.509 105.38C102.386 104.881 100.52 105.628 100.52 105.628C100.52 105.628 101.141 103.266 100.147 103.266C99.1522 103.266 99.0297 105.015 99.0297 105.015C99.0297 105.015 97.1634 104.269 97.1634 105.389C97.1634 106.508 98.4057 106.508 98.4057 106.508C98.4057 106.508 96.9155 108.372 98.0353 108.745C99.1551 109.118 99.8987 107.751 99.8987 107.751C99.8987 107.751 100.645 108.993 101.648 108.497C102.652 108.001 101.896 106.882 101.896 106.882C101.896 106.882 102.634 105.876 102.509 105.38ZM100.024 107.258C99.9301 107.237 99.844 107.19 99.7756 107.122C99.7073 107.054 99.6595 106.969 99.6378 106.875C99.6161 106.781 99.6213 106.683 99.653 106.592C99.6846 106.501 99.7414 106.421 99.8166 106.361C99.8919 106.301 99.9826 106.263 100.078 106.253C100.174 106.242 100.271 106.258 100.357 106.3C100.444 106.342 100.517 106.408 100.568 106.49C100.619 106.571 100.646 106.666 100.645 106.762C100.627 106.909 100.552 107.044 100.436 107.136C100.32 107.229 100.172 107.273 100.024 107.258ZM96.2944 109.124C96.169 108.625 94.3056 109.372 94.3056 109.372C94.3056 109.372 94.9268 107.01 93.9324 107.01C92.938 107.01 92.8126 108.76 92.8126 108.76C92.8126 108.76 90.9462 108.013 90.9462 109.133C90.9462 110.253 92.1914 110.253 92.1914 110.253C92.1914 110.253 90.6984 112.116 91.8182 112.489C92.938 112.863 93.6816 111.495 93.6816 111.495C93.6816 111.495 94.4281 112.737 95.4312 112.241C96.4344 111.746 95.682 110.626 95.682 110.626C95.682 110.626 96.4081 109.605 96.2944 109.11V109.124ZM93.807 110.988C93.713 110.967 93.6268 110.92 93.5584 110.852C93.4901 110.784 93.4423 110.698 93.4206 110.604C93.3989 110.511 93.4042 110.413 93.4358 110.322C93.4675 110.231 93.5242 110.151 93.5994 110.091C93.6747 110.03 93.7654 109.993 93.8611 109.982C93.9568 109.972 94.0535 109.988 94.1402 110.03C94.2268 110.072 94.2999 110.138 94.3508 110.219C94.4018 110.301 94.4285 110.396 94.4281 110.492C94.4064 110.637 94.3297 110.767 94.214 110.857C94.0983 110.947 93.9525 110.988 93.807 110.973V110.988ZM102.013 101.787H103.381C104.375 101.787 104.996 102.907 104.996 102.907C102.882 103.514 102.013 101.773 102.013 101.773V101.787ZM87.3419 108.862H88.7096C89.704 108.862 90.3251 109.979 90.3251 109.979C88.2109 110.603 87.3419 108.862 87.3419 108.862ZM95.3204 100.842L96.1194 101.953C96.7027 102.764 96.1515 103.919 96.1515 103.919C94.4135 102.554 95.3204 100.842 95.3204 100.842ZM103.407 107.794L104.203 108.905C104.786 109.713 104.235 110.871 104.235 110.871C102.497 109.515 103.407 107.794 103.407 107.794ZM88.4675 104.56L89.0916 103.344C89.5494 102.47 90.8413 102.417 90.8413 102.417C90.4097 104.581 88.4646 104.56 88.4646 104.56H88.4675Z" fill="white"/>
</svg>
